<?xml version="1.0"?>


<svg width="13.932mm" height="16.818336mm" viewBox="0 0 13.932 16.818336" version="1.1" id="svg1" xmlns:inkscape="http://www.inkscape.org/namespaces/inkscape" xmlns:sodipodi="http://sodipodi.sourceforge.net/DTD/sodipodi-0.dtd" xmlns="http://www.w3.org/2000/svg" xmlns:svg="http://www.w3.org/2000/svg">
  <namedview id="namedview1" pagecolor="#ffffff" bordercolor="#000000" borderopacity="0.25"></namedview>
  <defs id="defs1">
    <clipPath clipPathUnits="userSpaceOnUse" id="clipPath3037">
      <rect style="fill:none;stroke:#293474;stroke-width:1.69336;stroke-linecap:round;stroke-linejoin:round;stroke-miterlimit:4;stroke-dasharray:none;stroke-opacity:1" id="rect3039" width="68.072273" height="74.893425" x="590.6062" y="-1162.5781" transform="scale(1,-1)"></rect>
    </clipPath>
  </defs>
  <g id="layer1" transform="translate(-97.366666,-139.96459)">
    <g transform="matrix(0.49442785,0,0,-0.49442785,-175.01301,170.61954)" id="g13513" style="display:inline;fill:#ffffff;fill-opacity:1">
      <g clip-path="url(#clipPath3037)" id="g25620-5" transform="matrix(0.42969029,0,0,0.42969029,296.04869,-436.49636)" style="fill:#ffffff;fill-opacity:1">
        <path d="m 729.8489,1100.5243 c -0.034,0.066 0.036,0.282 0.004,0.409 l -0.06,0.076 -0.031,0.506 -0.077,0.05 c -0.553,-0.259 -0.938,-0.69 -1.576,-0.813 -0.105,-0.185 -0.315,-0.124 -0.484,-0.147 -2.441,-0.613 -4.039,2.013 -2.063,3.534 0.46,0.353 1.083,0.495 1.618,0.682 0.065,0.023 0.206,0.01 0.288,0.027 l 0.072,0.095 c 0.216,0.089 0.449,0.141 0.661,0.237 0.186,-0.09 0.249,0.037 0.378,0.133 0.062,0 0.225,-0.01 0.281,0.022 0.032,0.207 0.898,0.449 0.925,1.298 0.021,0.718 -0.742,1.073 -1.34,1.108 -0.008,-0.011 -0.822,-0.405 -0.975,-0.535 -0.329,-0.279 -1.262,-1.51 -1.775,-1.308 -0.683,0.268 -0.615,1.264 -0.228,1.254 0.091,0.404 0.524,0.607 0.902,0.678 0.03,0.041 0.113,0.141 0.167,0.15 0.081,-0.014 0.165,-10e-4 0.244,0.01 0.248,0.456 2.255,0.451 2.588,0.437 0.119,-0.01 0.169,-0.197 0.422,-0.091 0.394,-0.197 0.967,-0.331 1.044,-0.84 0.985,-0.417 0.352,-5.09 0.593,-5.576 0.148,-0.064 0.224,-0.227 0.353,-0.315 0.237,-0.164 0.597,-0.143 0.812,-0.341 l 0.038,-0.276 c 0.016,-0.118 -0.332,-0.248 -0.422,-0.24 -0.137,0.013 -0.26,0.032 -0.404,0.035 -0.073,0 -0.111,-0.073 -0.17,-0.093 -0.157,-0.053 -1.51,-0.342 -1.515,-0.34 -0.076,0.032 -0.212,0.112 -0.27,0.174 m -52.7,0.933 -0.087,0.077 c -0.994,-0.561 -2.023,-1.285 -3.248,-1.033 -0.033,0.062 -0.181,0.111 -0.242,0.121 -0.15,-0.072 -0.344,0.088 -0.469,0.153 -0.441,0.233 -0.786,0.633 -0.954,1.103 -0.089,0.248 -0.061,1.581 0.317,1.649 0.16,0.621 0.876,0.867 1.423,0.991 0.151,0.244 0.33,0.073 0.489,0.171 0.038,0.061 0.114,0.106 0.179,0.134 0.617,0.26 1.266,0.395 1.866,0.708 0.111,0.057 0.226,0.122 0.355,0.128 l 0.031,0.089 c 0.316,0.203 0.406,1.015 0.271,1.306 -0.076,0.166 -0.329,0.305 -0.346,0.457 l -0.11,0.068 c -0.101,-0.027 -0.3,0.045 -0.4,0.067 l -0.087,0.095 h -0.345 l -0.118,-0.1 c -0.634,-0.047 -1.502,-1.138 -1.927,-1.524 -0.873,-0.794 -1.519,0.687 -1.044,0.861 0.301,1.107 3.783,1.878 4.174,1.333 0.069,-0.031 0.307,0.055 0.682,-0.135 0.901,-0.454 1.235,-1.541 1.236,-2.49 10e-4,-0.622 -0.126,-3.212 0.073,-3.714 0.252,-0.637 1.093,-0.415 1.153,-0.865 l -0.06,-0.214 c -0.089,-0.044 -0.188,-0.105 -0.28,-0.139 -0.131,-0.048 -0.26,0.061 -0.398,0.023 -0.357,-0.098 -1.527,-0.436 -1.867,-0.429 l -0.087,0.033 c -0.178,0.122 -0.171,0.866 -0.18,1.076 m 23.37,-1.047 c -0.134,0.07 -0.189,0.038 -0.323,0.012 -0.189,-0.036 -0.581,0.1 -0.753,0.154 -1.008,0.316 -1.791,1.314 -2.161,2.261 -0.099,0.25 -0.057,0.512 -0.121,0.686 -0.025,0.068 -0.078,0.077 -0.081,0.168 -0.035,1.145 0.072,1.907 0.668,2.878 0.086,0.139 0.223,0.377 0.4,0.417 0.08,0.267 0.219,0.35 0.429,0.536 0.873,0.771 1.881,0.882 2.998,0.744 1.164,-0.145 1.992,-1.107 1.94,-2.267 -0.009,-0.2 -0.159,-0.72 -0.408,-0.72 -0.199,-0.221 -0.258,-0.471 -0.65,-0.537 l -0.155,0.037 -0.14,-0.124 c -0.075,-0.027 -0.596,-0.231 -0.665,-0.228 -0.091,0 -0.146,0.038 -0.244,0 -0.136,-0.229 -2.81,-0.653 -1.684,-2.184 0.192,-0.261 0.438,-0.436 0.712,-0.598 0.324,-0.191 0.577,-0.158 0.956,-0.161 0.058,0 0.958,0.204 0.986,0.22 0.121,0.068 0.21,0.158 0.347,0.224 0.201,0.096 0.76,0.436 0.968,0.342 0.144,-0.152 0.011,-0.581 -0.195,-0.647 -0.244,-0.455 -0.999,-0.943 -1.512,-1.01 -0.085,-0.011 -0.172,0.015 -0.256,-0.01 l -0.078,-0.096 c -0.355,-0.084 -0.747,-0.028 -0.978,-0.099 m 33.088,0.985 c -0.622,0.338 -0.668,1.44 -0.116,1.866 0.201,0.157 0.553,0.18 0.792,0.198 0.038,0 0.11,-0.063 0.13,-0.09 0.774,-0.041 0.75,-0.938 0.399,-1.428 0.029,-0.143 0.136,-0.204 0.194,-0.261 0.482,-0.47 1.301,-0.591 1.916,-0.316 0.111,0.296 0.505,0.402 0.609,0.886 0.044,0.209 0.041,0.766 -0.109,0.964 -0.261,0.347 -1.716,0.789 -2.064,0.914 -0.085,0.03 -0.55,0.154 -0.603,0.289 -0.398,0.12 -0.459,0.102 -0.67,0.495 -0.516,0.137 -0.56,1.555 -0.329,1.854 0.221,0.58 0.564,1.119 1.176,1.237 0.048,0.122 0.177,0.159 0.287,0.198 1.128,0.409 1.442,-0.106 2.428,-0.24 0.136,-0.019 0.309,0 0.431,0.068 0.072,0.042 0.908,0.69 0.79,-10e-4 -0.021,-0.122 -0.048,-0.24 -0.106,-0.351 -0.083,-0.161 -0.888,-2.166 -1.431,-1.699 -0.005,2.448 -2.32,1.916 -2.524,0.71 -0.065,-0.39 0.278,-0.539 0.332,-0.811 0.334,-0.136 2.555,-0.941 2.605,-1.035 0.546,-0.014 1.025,-0.71 1.173,-1.18 0.029,-0.089 -0.079,-0.166 -0.037,-0.282 0.032,-0.089 0.098,-0.136 0.087,-0.243 -0.022,-0.241 0.004,-0.725 -0.236,-0.881 -0.022,-0.212 -0.116,-0.605 -0.367,-0.637 -0.048,-0.091 -0.118,-0.118 -0.183,-0.184 -0.093,-0.096 -0.109,-0.205 -0.229,-0.293 -0.621,-0.451 -1.704,-0.71 -2.47,-0.633 -0.563,0.057 -1.045,0.252 -1.527,0.534 -0.138,0.08 -0.32,0.175 -0.348,0.352 m -37.477,-0.434 c 0.187,0.533 -0.674,0.488 -0.921,0.608 -0.149,0.074 -0.249,0.235 -0.387,0.33 l -0.062,0.17 c 0.108,0.177 -0.14,6.048 0.104,6.294 -10e-4,0.095 -0.035,0.199 -0.078,0.282 l -0.137,0.046 c -0.11,0.036 -0.045,0.025 -0.196,0.011 -0.59,-0.055 -1.124,-0.345 -1.719,-0.358 -0.18,0 -0.606,0.039 -0.753,-0.037 -0.593,-0.303 0.1,-0.73 0.635,-0.738 0.062,-0.104 0.336,-0.313 0.433,-0.386 0.093,-0.113 0.003,-4.562 0,-5.292 -0.125,-0.071 -0.264,-0.183 -0.319,-0.32 l -0.144,-0.058 c -0.101,0.053 -0.33,-10e-4 -0.425,-0.043 l -0.077,-0.092 c -0.096,-0.017 -0.196,-0.04 -0.288,-0.074 -0.207,-0.204 -0.095,-0.499 0.169,-0.574 0.643,-0.182 2.758,-0.104 3.606,-0.061 0.143,0.01 0.499,0.154 0.559,0.292 m -15.133,0.308 c 0.194,0.31 0.986,0.152 1.198,0.636 0.012,0.03 0.094,0.279 0.097,0.305 0.107,1.118 0.013,2.671 0.023,3.836 0.013,1.708 0.116,3.795 -0.017,5.467 -0.014,0.18 -0.126,0.342 -0.184,0.509 l -0.174,0.049 c -0.154,-0.08 -0.427,-0.032 -0.592,0.01 -0.329,0.42 0.471,0.804 0.759,0.971 0.682,0.394 1.37,0.799 2.099,1.1 0.354,0.146 0.832,0 0.62,-0.256 -0.342,-0.418 -0.79,-0.848 -0.802,-1.425 -0.061,-2.962 -0.115,-5.934 -0.065,-8.896 0.006,-0.327 0.013,-1.408 0.15,-1.691 0.266,-0.549 1.283,-0.248 1.25,-0.839 -0.016,-0.291 -0.331,-0.246 -0.531,-0.283 l -0.093,-0.087 c -0.056,-0.017 -0.115,-0.02 -0.172,-0.021 -0.736,0 -1.471,0 -2.207,0 -0.374,0 -1.671,-0.163 -1.359,0.617 m 24.799,0.429 c 0.309,1.061 0.146,3.678 0.146,4.892 0,0.522 -0.03,0.644 -0.454,0.883 -0.075,0.042 -0.109,0.13 -0.214,0.129 l -0.12,-0.041 c -0.128,0.026 -0.331,0.102 -0.425,0.199 -0.08,0.14 -0.109,0.314 -0.007,0.45 0.254,0.212 0.637,0.128 0.94,0.134 0.558,0.012 1.102,0.288 1.659,0.369 0.15,-0.101 0.247,-0.076 0.357,-0.116 l 0.062,-0.105 c 0.024,-0.316 -0.069,-0.658 -0.075,-0.979 l 0.095,-0.071 0.183,0.044 c 0.204,0.635 3.158,1.624 4.092,0 0.672,-1.169 0.377,-3.892 0.376,-5.075 -0.002,-0.709 0.28,-0.896 0.912,-1.061 l 0.13,-0.168 c 0.059,-0.252 -0.187,-0.51 -0.435,-0.513 -0.761,-0.01 -2.133,-0.118 -2.807,0 l -0.091,0.092 c -0.321,-0.016 -0.565,0.286 -0.325,0.557 0.165,0.187 0.528,0.165 0.661,0.305 0.131,0.137 0.188,0.292 0.214,0.477 0.178,1.257 0.042,2.632 -0.008,3.897 -0.043,1.081 -0.894,1.313 -1.767,1.254 -0.102,-0.01 -0.167,0.024 -0.272,-0.028 -0.099,-0.151 -0.306,-0.239 -0.427,-0.382 -0.454,-0.535 -0.506,-1.304 -0.578,-1.968 -0.005,-0.044 -0.06,-0.098 -0.063,-0.147 -0.009,-0.151 0.041,-0.284 0.046,-0.432 0.021,-0.733 0.03,-1.467 0.074,-2.2 0.013,-0.209 0.215,-0.347 0.26,-0.539 l 0.139,-0.054 c 0.246,0.06 0.943,-0.145 0.821,-0.487 l -0.11,-0.063 c -0.082,-0.231 -0.104,-0.291 -0.407,-0.292 -1.113,0 -2.301,-0.1 -3.405,0.019 -0.313,0.033 -0.369,0.369 -0.253,0.601 0.089,0.177 0.866,0.256 1.076,0.417 m -35.886,2.385 c 0.231,0.151 0.104,0.419 0.177,0.514 0.241,0.313 1.259,3.348 1.301,3.756 0.004,0.042 0.215,0.409 0.253,0.518 0.165,0.474 0.968,2.867 0.838,3.236 -0.152,0.431 -0.406,0.31 -0.689,0.379 l -0.093,0.083 c -0.672,0.089 -1.37,-0.153 -2.035,0.01 -0.672,0.162 -0.559,0.691 -0.854,0.807 -0.619,0.242 -1.161,-2.11 -1.17,-2.383 0.076,-0.048 0.246,-0.201 0.31,-0.22 0.587,-0.176 1.298,-0.019 1.918,-0.068 0.08,-0.01 0.182,0.042 0.28,0.031 0.06,-0.15 0.289,-0.195 0.386,-0.355 0.163,-0.707 -0.462,-1.421 -0.382,-1.893 -0.253,-0.136 -1.415,-4.201 -1.593,-4.239 l -0.098,0.083 c -0.178,0.645 -0.622,2.415 -0.97,2.843 -0.051,0.062 0.006,0.206 -0.023,0.285 -0.188,0.53 -0.387,1.063 -0.609,1.579 -0.058,0.134 -0.274,0.723 -0.426,0.791 -0.004,0.55 -1.34,2.695 -1.927,2.805 -0.064,0.143 -0.36,0.3 -0.489,0.251 l -0.098,-0.082 -0.244,-0.044 -0.044,-0.118 c -0.352,0.057 -0.738,-0.56 -0.923,-0.681 -0.139,-0.091 -0.295,-0.167 -0.412,-0.296 -0.255,-0.282 -0.766,-0.679 -0.533,-1.093 l 0.205,-0.083 c 0.052,-0.01 0.777,0.185 0.865,0.193 0.248,0.021 0.45,-0.101 0.687,-0.122 0.102,-0.308 0.407,-0.495 0.587,-0.768 0.228,-0.348 0.433,-0.705 0.622,-1.076 0.884,-1.748 1.6,-3.967 2.034,-5.877 0.123,-0.544 0.183,-1.099 0.301,-1.641 0.041,-0.188 0.239,-0.292 0.253,-0.487 0.116,-0.091 0.584,-0.064 0.736,-0.067 0.184,0 0.367,0.01 0.552,0.017 0.422,0.018 0.834,1.869 0.916,2.115 0.115,0.345 0.294,0.698 0.369,1.052 0.017,0.078 -0.014,0.156 0.022,0.249 m 16.698,-3.308 -0.123,0.01 c -0.021,0.059 -0.093,0.17 -0.159,0.187 l -0.03,0.149 c 0.132,0.589 1.375,0.1 1.386,1.244 l 0.012,2.692 c 10e-4,0.428 0.099,0.843 0.007,1.267 -0.059,0.267 -0.239,0.612 -0.266,0.863 l -0.201,0.087 c -0.323,-0.089 -0.54,0.176 -0.813,0.181 l -0.125,0.197 c -0.093,0.613 0.896,0.904 1.274,1.159 0.163,0.11 0.336,0.251 0.498,0.371 0.084,0.307 0.642,0.961 0.956,1.056 0.53,-0.225 0.302,-1.706 0.362,-2.018 l 0.092,-0.081 c 0.199,0 1.279,0.013 1.399,-0.037 0.042,-0.076 0.177,-0.156 0.255,-0.181 0.051,-0.169 0.051,-0.436 -0.076,-0.572 -0.262,-0.271 -1.238,0.125 -1.591,0 l -0.087,-0.122 -0.02,-1.191 c -0.003,-0.135 -0.05,-0.309 -0.05,-0.47 l -0.005,-2.371 c 0,-0.041 0.056,-0.101 0.057,-0.143 0.007,-0.326 -0.012,-0.933 0.168,-1.213 0.254,-0.396 0.723,-0.27 1.089,-0.485 0.396,-0.235 0.02,-0.616 -0.294,-0.67 -0.128,-0.021 -0.267,-0.019 -0.398,-0.019 -0.485,-10e-4 -3.095,-0.121 -3.317,0.112 m -10.996,0.775 c 0.085,0.131 0.65,0.244 1.014,0.832 0.107,0.173 0.41,1.085 0.44,1.101 -0.005,0.285 0.107,1.38 0.066,1.446 -0.717,-0.285 -1.391,-0.733 -2.159,-0.88 -0.152,-0.248 -0.852,-0.479 -0.956,-0.779 0.026,-0.117 -0.094,-0.352 -0.102,-0.496 -0.029,-0.589 0.234,-1 0.812,-1.135 0.137,-0.032 0.768,-0.126 0.885,-0.089 m 53.167,3.001 c 0.415,0.036 0.823,0.366 0.924,0.376 0.077,-0.671 0,-1.483 -0.26,-2.12 -0.081,-0.199 -0.364,-0.744 -0.535,-0.906 -0.632,-0.591 -2.179,-0.461 -2.362,0.675 -0.03,0.192 0.02,0.499 0.132,0.673 0.536,0.829 1.914,0.993 2.101,1.302 m -8.387,2.361 c -0.34,0.349 -0.981,0.429 -1.18,0.644 -0.18,-0.017 -1.216,0.021 -1.296,-0.014 -0.108,-0.139 -0.213,-0.139 -0.371,-0.162 -0.073,-0.082 -0.18,-0.118 -0.259,-0.189 -0.134,-0.119 -0.922,-1.311 -0.921,-1.389 0.005,-0.273 -0.061,-0.518 -0.083,-0.79 l -0.077,-0.106 c -0.003,-0.186 -0.055,-0.364 0.081,-0.508 -0.005,-0.416 0.287,-1.046 0.253,-1.309 0.316,-0.345 0.528,-0.81 0.9,-1.161 0.231,-0.218 1.095,-0.368 1.379,-0.333 0.264,0.033 0.733,0.132 0.965,0.306 0.063,0.048 0.075,0.133 0.114,0.195 0.494,0.785 0.491,1.282 0.495,2.24 l 0.002,2.057 z m -21.499,-2.757 0.109,-0.018 c 0.325,0.298 0.738,0.447 1.144,0.57 0.028,0.034 0.106,0.12 0.144,0.137 0.456,0.203 1.258,0.528 1.481,1.02 0.305,0.67 -0.19,1.021 -0.622,1.402 -0.042,0.038 -0.076,0.125 -0.143,0.131 -0.254,0.022 -0.532,0.078 -0.788,0.054 -1.451,-0.139 -1.451,-2.265 -1.325,-3.296 m -5.537,5.739 c 0.35,0.148 0.453,-0.256 1.18,0.253 0.65,0.454 0.39,2.046 -1.106,1.835 -0.962,-0.136 -1.012,-1.786 -0.074,-2.088 m 2.756,15.731 c -0.265,0.076 -1.091,0.39 -1.176,0.666 -0.316,0.088 -0.546,0.329 -0.781,0.546 -1.035,0.953 -1.558,2.059 -1.919,3.363 0.047,0.101 0.047,0.183 0.008,0.286 l -0.077,0.066 c -0.058,0.812 -0.1,1.468 -0.008,2.292 0.024,0.219 0.282,1.286 0.522,1.356 0.197,0.786 0.74,1.317 1.307,1.896 0.037,0.038 0.187,0.089 0.236,0.103 0.046,0.054 0.068,0.139 0.108,0.185 0.352,0.405 1.502,0.965 2.068,0.983 0.114,0.289 0.526,0.046 0.666,0.237 1.45,0.253 3.025,0.092 4.323,-0.634 0.854,-0.477 1.798,-1.252 2.298,-2.093 0.056,-0.093 0.059,-0.237 0.127,-0.328 0.29,-0.395 0.501,-0.818 0.644,-1.298 0.081,-0.269 0.17,-0.631 0.181,-0.907 0.005,-0.122 -0.035,-0.251 -0.011,-0.379 0.125,-0.633 0.181,-1.648 -0.157,-2.232 -0.038,-0.066 0.008,-0.188 -0.002,-0.259 -0.002,-0.012 -0.294,-0.812 -0.328,-0.886 -0.621,-1.336 -1.74,-2.405 -3.077,-3.013 -0.134,-0.061 -0.323,-0.018 -0.427,-0.085 -0.409,-0.26 -1.121,-0.377 -1.612,-0.362 -0.218,0.01 -0.431,0.069 -0.661,0.047 -0.149,-0.014 -0.25,-0.05 -0.409,-0.039 -0.195,0.013 -1.742,0.252 -1.843,0.489 m 21.181,-0.135 -0.051,-0.076 c -1.022,-0.448 -1.641,1.453 -0.421,1.673 1.266,0.229 1.281,-1.62 0.472,-1.597 m -10.598,-0.01 0.061,-0.077 c 0.589,-0.191 1.106,0.271 1.12,0.859 0.002,0.086 -0.124,0.127 -0.129,0.216 0.063,0.183 -0.037,0.25 -0.163,0.38 -0.802,0.832 -2.082,-0.568 -1.132,-1.305 z m -16.34,-0.085 c -0.82,-0.209 -1.493,0.849 -0.816,1.466 0.77,0.7 1.871,-0.285 1.311,-1.12 -0.199,-0.297 -0.334,-0.165 -0.495,-0.346 m -12.671,0.344 c 0.006,0.081 0.017,0.171 0.047,0.247 0.498,0.357 0.577,0.174 0.896,0.251 0.171,0.227 0.406,0.378 0.41,0.703 0.049,2.831 0.015,5.667 0.015,8.498 0,0.402 -0.094,0.77 -0.467,0.978 -0.108,0.06 -0.299,0.023 -0.435,0.07 -0.12,0.041 -0.218,0.18 -0.351,0.168 -0.117,0.147 -0.139,0.261 -0.068,0.433 l 0.101,0.077 c 0.235,-0.022 0.284,0.116 0.457,0.118 2.506,0.029 3.865,0.179 6.12,-0.437 0.192,-0.248 0.671,-0.133 0.796,-0.438 0.756,-0.249 1.509,-1.271 1.898,-1.898 1.143,-1.842 1.025,-5.312 -0.148,-7.129 -0.179,-0.279 -0.424,-0.644 -0.76,-0.726 l -0.048,-0.148 c -1.586,-1.3 -4.108,-1.132 -6.026,-1.134 -0.333,-10e-4 -2.252,-0.227 -2.437,0.367 m 35.757,-0.236 c -0.099,0 -0.163,-0.025 -0.225,-0.106 -0.182,-0.048 -3.084,-0.026 -3.357,-0.027 -1.197,-10e-4 -1.322,0.787 0.042,0.886 0.136,0.206 0.301,0.338 0.373,0.589 0.045,0.158 0.075,8.297 0.02,8.882 -0.003,0.031 -0.067,0.245 -0.081,0.278 -0.226,0.557 -0.925,0.339 -1.213,0.672 -0.361,0.697 0.734,0.611 1.073,0.614 l 0.999,0.01 c 1.41,0.011 2.71,0 4.093,-0.223 0.387,-0.063 2.145,-0.7 1.962,-1.214 0.84,-0.192 1.568,-4.684 -0.624,-5.554 -0.021,-0.028 -0.113,-0.155 -0.138,-0.17 l -0.097,-0.044 c -0.232,-0.108 -0.362,-0.143 -0.615,-0.263 l -0.08,-0.028 c -0.099,0 -0.168,0.039 -0.247,0.01 -0.115,-0.224 -0.959,-0.331 -1.206,-0.321 -0.117,-0.137 -0.828,-0.36 -1.001,-0.316 -0.068,-0.075 -0.244,-0.206 -0.346,-0.209 -0.091,-0.17 -0.249,-0.283 -0.318,-0.466 -0.159,-0.427 -0.152,-1.325 -0.023,-1.78 0.05,-0.174 0.215,-0.302 0.289,-0.465 0.197,-0.065 1.124,-0.034 0.951,-0.518 -0.046,-0.051 -0.169,-0.209 -0.231,-0.23 m -13.754,0.595 c 0.059,0.074 1.057,0.416 1.335,0.612 0.673,0.472 0.746,1.027 1.151,1.406 -0.004,0.378 0.292,1.176 0.323,1.725 0.111,1.899 -0.553,4.094 -1.812,5.535 -0.317,0.364 -0.83,0.798 -1.275,1.006 -0.15,0.071 -1.072,0.323 -1.101,0.371 -0.142,0.014 -0.696,0.012 -0.825,-0.01 -0.042,-0.068 -0.155,-0.072 -0.221,-0.082 -0.531,-0.082 -1.061,-0.324 -1.478,-0.66 -0.523,-0.422 -0.744,-0.768 -1.021,-1.392 -0.044,-0.099 -0.122,-0.344 -0.229,-0.402 -0.038,-0.08 -0.011,-0.162 -0.015,-0.245 -0.01,-0.191 -0.109,-0.399 -0.133,-0.593 -0.083,-0.685 -0.052,-1.327 -0.008,-2.014 0.023,-0.361 0.118,-0.732 0.158,-1.097 0.189,-0.21 0.444,-1.26 0.501,-1.329 0.028,-0.034 0.093,-0.07 0.115,-0.106 0.196,-0.338 0.393,-0.661 0.615,-0.983 0.046,-0.066 0.021,-0.165 0.1,-0.23 0.553,-0.463 1.001,-0.888 1.659,-1.223 0.054,-0.028 0.107,-0.079 0.153,-0.119 0.411,0.015 0.967,-0.169 1.606,-0.153 0.133,0 0.268,-0.01 0.402,-0.021 m -14.092,4.231 c 0.004,0.25 0.031,1.556 -0.083,1.654 -0.009,0.985 -0.351,2.15 -0.937,2.941 -0.17,0.231 -0.39,0.427 -0.575,0.649 -0.28,0.069 -0.578,0.264 -0.836,0.386 -0.585,0.276 -1.332,0.301 -1.961,0.344 -0.135,-0.717 -0.188,-8.414 -0.108,-8.741 l 0.083,-0.097 c 10e-4,-0.172 0.069,-0.343 0.076,-0.525 0.15,-0.132 0.234,-0.328 0.38,-0.464 0.404,-0.376 1.033,-0.327 1.532,-0.276 0.235,0.023 0.644,0.272 0.802,0.412 1.453,1.289 1.425,3.499 1.627,3.717 m 26.831,-0.498 c -0.161,2.184 -0.075,4.381 -0.064,6.528 l 0.077,0.083 0.784,-0.043 c 1.658,-0.092 2.53,-1.337 2.65,-2.868 0.061,-0.787 -0.045,-1.409 -0.514,-2.047 -0.411,-0.559 -1.533,-0.869 -2.103,-1.091 -0.059,-0.023 -0.113,-0.12 -0.178,-0.145 -0.271,-0.106 -0.458,-0.163 -0.652,-0.417 m 8.188,-29.597 c -0.033,0.067 -0.132,0.23 -0.205,0.263 l -0.032,0.123 c 0.099,0.207 -0.013,0.435 -0.024,0.659 l -0.114,0.019 c -4.453,-3.118 -7.462,2.826 -4.436,5.958 0.232,0.238 0.739,0.722 1.089,0.72 0.135,0.186 0.664,0.372 0.846,0.367 l 0.112,-0.048 c 0.137,0 0.189,0.081 0.296,0.095 0.174,0.024 1.177,-0.064 1.336,-0.128 0.124,-0.104 0.277,-0.147 0.342,-0.108 0.056,-0.01 0.14,-0.11 0.168,-0.152 0.086,-0.034 0.331,-0.075 0.415,-0.043 0.069,0.518 0.169,3.728 -0.16,3.978 -0.395,0.032 -0.317,0.176 -0.697,0.084 -0.514,0.451 0.76,1.149 1.078,1.228 0.089,0.022 0.206,-0.01 0.284,0.048 0.186,0.318 1.084,0.652 1.407,0.811 0.028,0.014 0.183,-0.019 0.249,0.012 l 0.046,0.081 0.144,0.042 c 0.608,-0.136 -0.373,-1.005 -0.487,-1.265 -0.232,-0.531 -0.151,-1.713 -0.151,-2.232 -0.008,-2.725 -0.006,-5.449 0.008,-8.173 l 0.034,-0.663 c 0.111,-0.102 0.271,-0.286 0.416,-0.332 0.304,-0.097 0.959,-0.094 0.937,-0.539 -0.004,-0.098 -0.053,-0.22 -0.135,-0.278 -0.321,-0.128 -1.401,-0.103 -1.497,-0.171 -0.285,-0.211 -0.388,-0.117 -0.578,-0.17 -0.081,-0.172 -0.542,-0.189 -0.691,-0.186" style="fill:#ffffff;fill-opacity:1;fill-rule:evenodd;stroke:none" id="path2407-7"></path>
        <path d="m 650.7102,1160.0785 -0.017,0.045 h -0.058 l -0.008,-0.044 0.05,-0.017 z m -7.411,-3.114 0.051,0.016 -0.066,0.012 z m -5.123,-1.009 c 0.256,-0.042 0.61,0.263 0.921,0.257 -0.024,0.055 -0.159,0.099 -0.217,0.093 -0.158,-0.019 -0.624,-0.221 -0.704,-0.35 m -1.068,-0.4 -0.032,-0.062 c 0.095,-10e-4 0.186,0.038 0.275,0.069 -0.045,0.076 -0.2,0.02 -0.243,-0.01 m 0.433,-4.073 0.046,-0.013 z m -3.954,-0.928 c -0.03,0.017 -0.081,0.062 -0.09,0.098 0.047,0.053 0.109,0.097 0.163,0.142 0.067,0.053 0.815,0.696 0.9,0.696 0.328,0 0.657,-0.014 0.983,-0.038 0.228,-0.016 0.463,-0.087 0.689,-0.088 -0.081,-0.051 -0.164,-0.018 -0.256,-0.014 -0.103,0 -1.203,0.075 -1.264,0.029 -0.375,-0.275 -0.754,-0.546 -1.125,-0.825 m -1.328,-0.956 c 0.257,0.124 0.507,0.357 0.738,0.525 0.086,0.063 0.426,0.298 0.436,0.337 -0.165,0 -1.151,-0.719 -1.174,-0.862 m -1.302,-0.951 c 0.25,0.158 1.167,0.787 1.163,0.88 l -0.056,0.016 c -0.172,-0.134 -1.093,-0.825 -1.107,-0.896 m -1.533,-1.006 c 0.192,0.132 0.349,0.284 0.494,0.445 l 0.005,0.043 -0.05,-0.01 c -0.199,-0.157 -0.326,-0.24 -0.449,-0.482 m -1.164,-0.789 c -0.039,-0.01 -1.984,-1.509 -2.13,-1.677 0.103,-0.04 0.359,-0.069 0.415,-0.026 0.161,0.126 1.45,1.14 1.487,1.217 0.047,0.097 0.07,0.206 0.123,0.301 0.031,0.053 0.096,0.125 0.105,0.185 m -2.347,-1.908 c 0.147,0.022 0.273,0.102 0.432,0.081 -0.032,-0.053 -0.403,-0.09 -0.432,-0.081 m 1.706,-0.095 -0.086,0.052 0.091,0.03 c 0.098,0.173 0.353,1.002 0.359,1.23 -0.495,-0.303 -0.924,-0.681 -1.365,-1.015 l 0.833,-0.193 c -0.221,-0.078 -0.89,0.164 -1.013,0.054 l 0.022,-0.052 c 0.126,-0.016 1.069,-0.21 1.084,-0.207 0.04,0.01 0.076,0.061 0.075,0.101 m 11.106,-0.126 c 0.092,0.018 0.089,0.084 0.138,0.146 -0.003,0.024 -0.003,0.05 10e-4,0.074 0.122,0.095 0.2,0.414 0.276,0.47 -0.087,0.161 -0.129,0.327 -0.213,0.442 -0.035,0.049 -0.091,0.09 -0.109,0.15 -0.034,-0.081 -0.254,-0.567 -0.33,-0.641 -0.009,-0.136 0.26,-0.527 0.237,-0.641 m -12.773,-0.118 c 0.108,0.09 0.253,0.09 0.355,0.075 -0.033,-0.022 -0.33,-0.089 -0.355,-0.075 m 2.251,0.069 c -0.016,-0.019 -0.061,-0.08 -0.054,-0.109 l 0.082,-0.053 c 0.202,0.418 1.441,2.969 1.415,3.035 l -0.046,-0.01 c -0.115,-0.108 -0.439,-0.369 -0.489,-0.475 -0.106,-0.227 -0.989,-2.196 -0.908,-2.392 m -2.982,-0.223 c 0.181,0 0.45,0.069 0.64,0.148 -0.09,0.068 -0.537,-0.089 -0.64,-0.148 m 13.055,-0.097 c -0.013,-0.024 -0.025,-0.052 -0.03,-0.08 l -0.247,-0.01 -0.03,0.059 c 0.021,0.02 0.148,0.27 0.149,0.298 0.03,0.028 0.06,0.059 0.083,0.093 l 0.006,0.089 c 0.042,0.035 0.081,0.15 0.101,0.205 0.078,-0.026 0.195,-0.43 0.264,-0.526 -0.023,-0.035 -0.035,-0.074 -0.049,-0.113 -0.081,-0.01 -0.165,-0.017 -0.247,-0.015 m -14.002,-0.805 -0.029,0.05 -0.048,-0.059 0.048,-0.019 z m -2.93,-0.425 c 0.143,0.027 2.922,2.339 3.4,2.73 0.091,0.074 0.723,0.563 0.72,0.612 -0.421,-0.224 -0.817,-0.574 -1.192,-0.863 -0.854,-0.657 -1.689,-1.34 -2.526,-2.018 -0.147,-0.119 -0.346,-0.27 -0.402,-0.461 m 6.302,-1.125 -0.003,-0.048 0.01,0.046 z m -0.04,-0.268 0.014,0.068 z m -5.946,-0.264 c 0.037,0.063 0.132,0.233 0.161,0.29 l -0.053,-0.024 c -0.024,-0.031 -0.119,-0.234 -0.108,-0.266 m 8.888,-0.23 0.031,0.054 -0.055,-0.028 -0.017,-0.046 z m -0.403,-0.58 c -0.02,0.026 -0.047,0 -0.065,-0.029 z m -12.196,-0.371 c 0.268,0.109 1.996,1.754 2.421,2.014 -0.192,0.044 -2.325,-1.851 -2.421,-2.014 m 10.386,-0.114 c 0.052,0.064 0.38,0.584 0.356,0.719 l -0.043,0.012 -0.084,-0.044 c -0.037,-0.08 -0.247,-0.646 -0.229,-0.687 m -0.605,-0.011 c 0.103,0.165 0.322,0.683 0.338,0.863 l -0.074,0.025 c -0.03,-0.015 -0.293,-0.802 -0.264,-0.888 m -8.982,-0.121 0.044,-0.089 c 0.047,0 0.065,-10e-4 0.072,0.01 0.617,0.605 1.344,1.128 2.014,1.671 0.04,0.032 0.223,0.284 0.203,0.338 -0.248,-0.16 -2.265,-1.801 -2.333,-1.925 m 8.823,-0.245 c -0.054,0.01 -0.044,-0.057 -0.037,-0.082 l 0.045,0.02 c 0.003,0.02 -0.003,0.043 -0.008,0.062 m -0.396,-0.096 0.053,-0.034 0.051,0.01 0.039,0.056 c 0,0.027 -0.029,0.056 -0.05,0.069 -0.105,0.417 0.346,1.482 0.306,1.838 -0.217,-0.6 -0.387,-1.298 -0.399,-1.939 m -10.353,-0.314 0.078,0.01 c 0.301,0.253 0.65,0.501 0.923,0.786 -0.158,-0.079 -0.998,-0.737 -1.001,-0.794 m 11.144,-0.374 c 0.049,0.022 0.508,0.867 0.452,0.984 -0.18,-0.101 -0.413,-0.76 -0.452,-0.984 m -10.286,-0.77 c 0.916,0.791 1.821,1.571 2.739,2.337 -0.052,-0.236 -0.149,-0.443 -0.207,-0.642 -0.075,-0.256 -0.043,-0.55 -0.071,-0.812 -0.024,-0.218 -0.067,-0.439 -0.1,-0.656 l -0.021,-0.105 -0.043,-0.031 c -0.144,10e-4 -0.316,0.061 -0.457,0.083 -0.233,0.036 -0.512,0.029 -0.744,0.011 -0.267,-0.022 -0.925,-0.185 -1.096,-0.185 m 2.787,0.041 0.023,-0.051 0.07,0.032 c 0.017,0.218 0.27,1.009 0.338,1.272 l 0.164,0.62 c 0.091,0.351 0.373,1.058 0.407,1.329 l -0.053,0.011 c -0.476,-0.313 -0.887,-2.608 -0.949,-3.213 m -0.485,-0.1 0.014,0.045 c -0.145,0.041 -0.37,0.087 -0.519,0.049 0.094,-0.018 0.433,-0.108 0.505,-0.094 m 0.552,-0.06 -0.072,0.026 -0.02,-0.048 0.072,-0.042 z m -7.756,-0.352 c 0.038,-0.06 0.064,-0.111 0.094,-0.173 0.185,0.049 1.089,0.924 1.276,0.982 l -0.03,0.07 c -0.018,0.121 0.822,0.547 0.822,0.786 l -0.108,0.029 c -0.156,-0.093 -0.315,-0.161 -0.474,-0.261 -0.57,-0.364 -1.182,-0.811 -1.646,-1.307 -0.005,-0.034 0.008,-0.075 0.018,-0.107 z m 3.98,-0.439 c 0.069,0.01 0.115,0.014 0.155,0.028 0.904,0.309 1.758,0.559 2.711,0.597 0.017,10e-4 0.036,0.01 0.053,0.013 -0.174,0.127 -1.088,-0.067 -1.352,-0.131 -0.383,-0.094 -1.247,-0.233 -1.567,-0.507 m -0.076,-0.63 c 0.457,0.24 0.904,0.366 1.377,0.549 l 0.026,0.046 c -0.247,0.017 -1.398,-0.349 -1.403,-0.595 m 5.071,-0.655 c 0.072,0.033 0.145,0.25 0.19,0.324 1.056,1.761 1.923,2.463 3.704,3.428 0.036,0.019 0.076,0.033 0.114,0.05 -0.072,0.057 -0.312,-0.04 -0.385,-0.069 -1.075,-0.428 -1.911,-1.231 -2.654,-2.09 -0.065,-0.075 -0.98,-1.393 -0.969,-1.643 m -6.617,-0.029 c 0.237,0.127 0.71,0.821 1.213,1.061 l -0.025,0.047 c -0.193,0.043 -1.061,-0.862 -1.188,-1.108 m 6.576,-0.025 0.004,-0.045 0.019,0.047 z m -5.594,-0.465 c 0.067,0.02 0.923,0.712 0.97,0.809 -0.176,0 -0.918,-0.649 -0.97,-0.809 m -0.059,-0.069 0.049,0.013 z m 4.518,-0.435 0.028,0.063 z m 0.95,-0.132 c -0.064,0.124 0.278,1.658 0.304,1.905 0.062,0.586 0.101,1.187 0.197,1.768 0.113,0.678 0.555,2.342 0.892,2.91 0.206,0.35 0.478,0.626 0.703,0.958 -0.768,-0.392 -1.519,-2.739 -1.65,-3.496 l -0.036,0.047 c 0.041,0.377 0.122,0.764 0.231,1.129 0.312,1.031 0.474,1.42 1.158,2.296 0.155,0.198 0.326,0.4 0.547,0.531 0.261,0.156 0.538,0.284 0.812,0.415 0.085,0.041 0.188,0.061 0.279,0.086 0.27,0.076 1.67,0.486 1.808,0.48 0.153,-0.01 0.34,-0.035 0.488,-0.079 0.019,-0.08 -0.1,-0.817 -0.104,-0.971 -0.008,-0.305 0.009,-0.617 0.032,-0.922 0.006,-0.09 0.066,-0.214 0.058,-0.295 -0.074,-0.78 -0.286,-1.047 -0.211,-1.97 10e-4,-0.016 -0.004,-0.035 -0.005,-0.051 -0.036,-0.015 -0.389,-0.123 -0.415,-0.114 0.045,0.052 0.185,0.14 0.234,0.176 -0.109,0.132 -0.75,-0.018 -0.904,-0.063 -2.25,-0.663 -3.453,-2.718 -4.382,-4.712 z m -0.966,0.048 -0.035,-0.107 c 0.052,0.037 0.048,0.082 0.035,0.107 m 6.647,-0.304 c 0.039,0.357 0.13,0.745 0.173,1.1 0.053,0.442 0.121,0.901 0.152,1.343 0.016,0.22 -0.012,0.452 -0.003,0.677 0.007,0.167 0.083,0.328 0.067,0.499 -0.086,-0.047 -0.143,-0.318 -0.156,-0.418 -0.085,-0.671 -0.1,-1.37 -0.151,-2.046 -0.026,-0.346 -0.126,-0.824 -0.082,-1.155 m -9.367,-0.058 0.054,0.013 -0.048,0.027 z m 3.124,-0.145 0.002,-0.044 0.02,0.044 z m -0.566,-0.092 h 0.046 c 0.014,0.011 0.088,0.365 0.073,0.427 -0.035,-0.122 -0.163,-0.342 -0.119,-0.43 m -2.539,-0.121 0.043,-0.011 z m -2.59,-0.293 c 0.052,0.046 0.496,0.958 0.551,1.019 -0.065,-0.179 -0.647,-0.861 -0.551,-1.019 m 5.698,-0.133 c 0.07,0.038 0.177,0.26 0.126,0.331 -0.07,-0.114 -0.103,-0.217 -0.126,-0.331 m -0.364,-0.025 c -0.024,-0.041 -0.041,-0.123 -0.024,-0.168 0.037,0.041 0.045,0.144 0.024,0.168 m -4.642,-0.352 0.038,0.057 -0.081,-0.048 z m 3.797,-0.749 c 0.05,0.079 -0.086,0.494 -0.129,0.592 -0.263,0.592 -0.478,1.101 -1.22,1.073 -0.098,0 -0.3,-0.022 -0.393,-0.057 0.17,-0.085 0.665,0.184 1.126,-0.373 0.17,-0.205 0.498,-1.212 0.616,-1.235 m -11.999,0.01 c 0.041,-0.011 0.284,0.218 0.327,0.255 l 0.02,0.069 c -0.078,-0.021 -0.335,-0.223 -0.347,-0.324 m -1.444,-1.271 c 0.074,0.01 0.751,0.633 0.748,0.666 -0.166,-0.114 -0.629,-0.499 -0.748,-0.666 m 2.176,-0.432 c 0.11,0.11 0.189,0.244 0.236,0.362 h -0.058 c -0.077,-0.111 -0.107,-0.242 -0.178,-0.357 m 10.903,-0.235 c 0.121,0.706 -0.017,2.444 -0.697,2.908 0.352,-0.579 0.658,-1.254 0.682,-1.938 0.012,-0.323 -0.007,-0.647 0.015,-0.97 m -9.692,-0.096 c 0.091,0.118 0.438,0.488 0.554,0.592 l -0.008,0.055 -0.05,0.019 c -0.065,-0.066 -0.484,-0.559 -0.496,-0.666 m -4.654,-0.373 c 0.107,0.046 0.202,0.147 0.279,0.234 -0.099,-0.062 -0.201,-0.147 -0.279,-0.234 m 14.307,-0.034 0.03,0.402 c -0.022,-0.137 -0.035,-0.265 -0.03,-0.402 m -9.215,-0.284 -0.005,-0.052 0.057,-0.029 c 0.046,0.022 0.138,0.07 0.17,0.111 l -0.034,0.058 c -0.059,-0.04 -0.134,-0.049 -0.188,-0.088 m 9.167,-0.246 0.036,0.278 c -0.061,-0.066 -0.036,-0.197 -0.036,-0.278 m -12.282,-0.131 0.047,-0.01 c 0.042,0.046 0.152,0.588 0.146,0.625 -0.195,-0.222 -0.207,-0.334 -0.193,-0.619 m 3.373,-0.116 -0.069,0.056 c -0.006,0.04 -0.03,0.081 -0.056,0.111 l 0.075,0.1 c 0.088,0 0.19,0.099 0.283,0.091 0.072,-0.025 0.149,-0.07 0.14,-0.157 l 0.064,-0.012 c 0.036,0.036 0.18,0.057 0.222,0.033 -0.067,-0.043 -0.134,-0.044 -0.202,-0.052 -0.011,-0.02 -0.379,-0.118 -0.457,-0.17 m 8.89,0.115 c -0.011,-0.042 -0.034,-0.159 -0.016,-0.202 0.004,0.035 0.037,0.175 0.016,0.202 m -15.329,-0.271 c 0.102,0.018 0.937,0.775 0.986,0.863 -0.218,-0.122 -0.798,-0.667 -0.986,-0.863 m 2.063,-0.248 0.13,-0.023 c -0.029,0.018 -0.095,0.038 -0.13,0.023 m -1.376,-0.07 c 0.032,-0.03 0.096,-0.016 0.127,0.01 0.153,0.12 2.859,2.252 2.873,2.327 -0.196,-0.032 -2.651,-2.008 -3,-2.336 m 14.258,0.121 c -0.022,-0.057 -0.025,-0.136 -0.017,-0.195 0.031,0.03 0.046,0.165 0.017,0.195 m -13.076,-0.24 c 0.06,-0.019 0.177,-0.036 0.238,-0.015 -0.081,0.027 -0.196,0.032 -0.238,0.015 m -0.225,-0.061 h 0.052 l -0.062,0.01 z m -2.644,0.046 -0.087,-0.038 c 0.03,0.01 0.062,0.021 0.087,0.038 m 2.478,-0.065 h -0.105 l 0.108,-0.028 z m 14.786,-0.01 0.005,-0.046 z m -17.482,-0.115 0.044,0.05 -0.073,-0.034 z m 7.968,-0.011 c 0.269,0.087 0.453,0.168 0.707,0.204 -0.012,0.088 -0.015,0.155 -0.065,0.204 -0.045,0.02 -0.101,0.035 -0.151,0.033 l 0.077,0.011 0.031,0.074 c -0.072,0.075 -0.096,0.212 -0.149,0.298 -0.1,0.165 -0.558,-0.069 -0.711,-0.077 l -0.035,-0.054 c 0.038,-0.048 0.043,-0.12 0.088,-0.159 l 0.011,-0.122 0.083,-0.111 0.009,-0.089 c 0.044,-0.046 0.079,-0.15 0.105,-0.212 m -3.555,-0.028 c 0.019,0.137 0.578,1.723 0.589,2.031 -0.722,-0.476 -1.397,-0.97 -2.083,-1.449 0.076,-0.043 0.753,-0.091 0.829,-0.182 l 0.129,-0.01 -0.087,-0.026 c -0.07,0.031 -0.213,0.036 -0.287,0.035 0.194,-0.097 0.433,-0.137 0.662,-0.208 l 0.04,0.047 -0.025,0.044 0.047,0.046 c 0.007,0.083 0.016,0.167 0.032,0.25 0.034,-0.128 0.003,-0.532 0.154,-0.579 m -2.467,-0.025 c 0.026,-0.052 0.563,0.104 0.578,0.127 -0.084,0.04 -0.472,-0.096 -0.578,-0.127 m 16.452,-0.212 c 0.153,0.255 0.161,0.641 0.204,0.922 0.065,0.424 0.157,0.83 0.257,1.245 0.006,0.029 0.022,0.1 0,0.127 l -0.062,0.04 -0.107,-0.07 c -0.116,-0.446 -0.367,-1.779 -0.292,-2.264 m -16.63,-0.225 0.053,-0.012 c 0.225,0.093 0.471,0.172 0.689,0.273 -0.126,0.086 -0.629,-0.168 -0.742,-0.261 m -0.813,-0.26 c 0.017,0.01 0.042,0.018 0.056,0.03 0.18,0.168 0.361,0.297 0.549,0.449 l -0.059,0.023 c -0.145,-0.1 -0.479,-0.346 -0.546,-0.502 m 0.333,-0.612 c 0.163,0.235 0.487,0.348 0.674,0.573 -0.262,-0.074 -0.541,-0.361 -0.674,-0.573 m 3.388,-0.184 c 0.251,0.4 0.137,1.076 0.139,1.529 0,0.057 0.681,2.256 0.739,2.39 -0.168,-0.046 -0.268,-0.246 -0.323,-0.384 -0.119,-0.299 -0.268,-0.604 -0.36,-0.912 -0.247,-0.822 -0.216,-1.745 -0.205,-2.59 z m -0.84,-0.215 0.018,0.079 -0.028,-0.05 z m 0.691,-0.112 c 0.056,0.032 0.103,0.141 0.105,0.2 -0.016,0.021 -0.056,0.06 -0.086,0.06 -0.045,-0.079 -0.024,-0.173 -0.019,-0.26 m -7.007,-0.27 0.048,0.01 c 0.211,0.228 0.528,0.405 0.705,0.648 -0.269,-0.214 -0.564,-0.4 -0.753,-0.654 m -0.196,-0.196 0.041,0.045 -0.077,-0.035 z m 5.207,-0.058 0.052,0.011 -0.065,0.012 z m -0.371,-0.123 0.047,-0.012 z m 1.53,0 0.049,-0.047 c 0.034,0.261 0.073,0.482 0.078,0.697 -0.037,-0.19 -0.182,-0.456 -0.127,-0.65 m -2.019,-0.296 -0.099,-0.028 c 0.033,0 0.071,0.012 0.099,0.028 m -0.187,-0.079 0.048,-0.012 z m 1.034,-0.014 -0.083,0.02 0.049,-0.032 z m -0.146,-0.043 -0.062,0.02 c 0.014,-0.043 0.05,-0.027 0.062,-0.02 m -0.143,-0.064 0.001,0.045 z m -0.786,0.077 -0.137,-0.085 c 0.021,-0.038 0.11,0.05 0.142,0.077 z m 0.671,-0.125 0.046,0.017 -0.056,0.014 z m 2.063,0.011 c 0.026,0.106 0.255,0.801 0.247,0.824 -0.116,0.036 -0.162,0.218 -0.248,0.246 l -0.033,0.16 c -0.084,-0.21 -0.167,-0.42 -0.19,-0.626 l -0.055,-0.055 c -0.008,-0.051 -0.015,-0.109 -0.006,-0.16 0.038,-0.051 0.261,-0.385 0.285,-0.389 m -4.661,-0.041 c 0.078,0.301 0.326,1.622 0.47,1.781 -0.011,0 -0.05,-0.012 -0.058,-0.017 -0.582,-0.47 -1.17,-0.933 -1.761,-1.392 l -0.098,-0.078 c 0.223,-0.01 0.784,0.048 0.946,-0.046 l -0.069,-0.038 0.069,-0.035 c 0.061,0.028 0.139,0.03 0.204,0.018 l -0.113,-0.023 c 0.118,-0.064 0.283,-0.124 0.41,-0.17 m -1.231,0.01 -0.089,0.01 0.085,-0.015 z m -0.205,-0.041 -0.08,0.01 0.05,-0.04 z m 3.065,-0.043 -0.053,-0.01 z m -4.127,-0.123 c 0.054,0.087 0.401,0.376 0.521,0.447 0.003,-0.072 -0.435,-0.371 -0.521,-0.447 m 4.632,-0.033 0.054,0.01 c 0.06,0.075 0.333,0.181 0.367,0.242 -0.076,0 -0.35,-0.181 -0.421,-0.249 m -3.786,-0.07 c 0.084,0 0.322,0.031 0.403,0.1 -0.098,0.031 -0.311,-0.052 -0.403,-0.1 m -0.592,-0.097 c 0.075,0.061 0.252,0.146 0.325,0.208 -0.089,-0.028 -0.278,-0.117 -0.325,-0.208 m 6.703,-0.092 0.062,0.047 c -0.131,0.362 -0.423,1.119 -0.955,0.986 0.115,-0.059 0.237,-0.074 0.353,-0.141 0.213,-0.121 0.432,-0.664 0.54,-0.892 m 1.301,0.02 c 0.041,0.074 0.204,0.487 0.185,0.525 -0.081,-0.109 -0.193,-0.422 -0.185,-0.525 m -3.995,-0.05 c 0.116,0.062 0.223,0.162 0.329,0.239 -0.081,-0.032 -0.301,-0.163 -0.329,-0.239 m -0.65,-0.055 -0.011,0.045 0.042,0.063 -0.031,0.05 c 0.104,0.388 0.108,0.797 0.226,1.187 0.091,0.304 0.275,0.577 0.407,0.864 -0.077,-0.039 -0.324,-0.506 -0.378,-0.591 -0.047,0.083 0.102,0.359 0.141,0.428 0.223,0.399 0.571,0.868 1.007,1.048 0.037,0.016 1.302,0.294 1.336,0.296 0.161,0.01 0.334,-0.035 0.494,-0.058 0.019,-0.706 -0.341,-1.417 -0.251,-2.093 -1.354,0.41 -2.87,-1.247 -2.982,-1.239 m 4.621,-0.086 c 0.011,0.021 0.024,0.067 0.011,0.089 l -0.021,-0.079 z m -4.081,0.044 c -0.056,-0.03 -0.084,-0.058 -0.114,-0.079 0.029,0.012 0.098,0.047 0.114,0.079 m 2.521,-0.165 0.027,0.071 c -0.065,0.173 -0.245,0.819 -0.463,0.812 0.217,-0.24 0.332,-0.59 0.436,-0.883 m -6.098,-0.013 c 0.039,0 0.286,0.162 0.289,0.199 h -0.052 c -0.062,-0.038 -0.212,-0.137 -0.237,-0.203 m 3.367,0 0.044,0.024 z m 16.407,0.023 c 0.312,1.926 0.668,3.814 0.976,5.705 l 0.13,0.795 0.049,0.292 0.048,0.292 c 0.096,0.581 0.166,1.19 0.292,1.766 0.035,0.158 0.101,0.31 0.14,0.466 0.009,0.037 0.051,0.136 0.032,0.168 -0.366,-0.677 -0.241,-0.716 -0.359,-1.432 h -0.075 l -0.023,0.109 c -0.243,-0.433 -0.271,-0.72 -0.236,-1.207 l -0.07,-0.039 -0.038,0.044 c -0.345,-0.949 -0.571,-1.892 -0.688,-2.887 l 0.048,-0.072 c 0.023,-0.149 -0.117,-0.972 -0.155,-1.227 -0.053,0.06 0.022,0.861 0.015,1.05 -0.099,-0.726 -0.395,-2.425 -0.269,-2.944 0.079,0.451 0.144,0.909 0.189,1.366 0.091,-0.206 -0.035,-1.801 -0.006,-2.247 m -17.47,-0.441 c -0.015,-0.026 -0.036,-0.076 -0.031,-0.107 0.061,0.023 0.143,0.119 0.138,0.15 l -0.019,0.047 c 0.027,0.037 0.054,0.078 0.073,0.12 -0.039,0.053 -0.096,0.049 -0.128,0.038 -0.04,-0.046 -0.057,-0.192 -0.033,-0.248 m 3.87,-0.328 c 0.038,0.063 0.006,0.517 -0.005,0.631 l -0.037,-0.049 c 0.026,-0.192 0.023,-0.389 0.042,-0.582 m 1.836,-0.032 -0.009,0.072 c -0.038,-0.041 -0.034,-0.076 -0.026,-0.106 z m -0.051,-0.104 -0.04,-0.092 c 0.047,0.016 0.051,0.059 0.04,0.092 m -1.799,-0.014 c -0.019,-0.058 -0.021,-0.142 -0.006,-0.202 0.007,0.061 0.019,0.141 0.006,0.202 m -3.796,-0.415 c -0.035,-0.045 -0.062,-0.147 -0.041,-0.202 0.037,0.076 0.102,0.153 0.096,0.202 z m 3.753,-0.133 -0.025,-0.155 c 0.023,0.037 0.039,0.111 0.025,0.155 m 1.624,-0.372 c 0.033,0.231 0.196,0.523 0.179,0.759 -0.04,-0.165 -0.227,-0.645 -0.179,-0.759 m -1.664,-0.052 -0.039,-0.056 0.006,-0.073 c 0.051,0.034 0.04,0.097 0.033,0.129 m -0.292,-0.278 -0.027,-0.162 0.035,0.073 z m -6.423,-0.202 -0.06,0.013 c -0.029,-0.018 -0.053,-0.057 -0.056,-0.09 0.055,-0.024 0.096,0.01 0.113,0.041 z m 36.694,-0.591 c 0.065,0.033 0.065,0.116 0.117,0.161 -0.002,0.09 0.03,0.233 0.098,0.296 l 0.003,0.215 c 0.062,0.05 0.071,0.186 0.136,0.244 -0.004,0.045 -0.006,0.098 0.007,0.142 0.047,0.035 0.048,0.107 0.089,0.152 -0.009,0.078 -0.011,0.125 0.045,0.184 l 10e-4,0.124 c 0.038,0.146 0.067,0.257 0.137,0.336 -0.003,0.103 0.027,0.219 0.098,0.296 -0.003,0.041 -0.004,0.084 10e-4,0.125 0.182,0.125 0.083,0.47 0.233,0.626 l 0.007,0.125 c 0.19,0.186 0.096,0.519 0.276,0.719 l 0.002,0.126 c 0.036,0.116 0.065,0.283 0.133,0.33 -0.002,0.084 0.04,0.235 0.101,0.301 -0.006,0.079 -0.014,0.124 0.046,0.183 l 0.002,0.124 c 0.071,0.081 0.213,2.008 0.255,2.26 -0.058,-0.102 -0.066,-0.273 -0.163,-0.378 10e-4,-0.164 0.029,-0.344 -0.091,-0.476 -0.004,-0.216 -0.08,-0.374 -0.099,-0.591 -0.044,-0.041 -0.045,-0.105 -0.089,-0.151 0.002,-0.045 0.002,-0.096 -0.009,-0.141 l -0.045,-0.183 -0.04,-0.059 -0.006,-0.126 -0.04,-0.059 c 10e-4,-0.059 -0.001,-0.12 -0.008,-0.179 l -0.04,-0.058 -0.004,-0.074 c -0.072,-0.063 -0.017,-0.19 -0.09,-0.258 0,-0.042 -10e-4,-0.085 -0.006,-0.127 -0.055,-0.052 -0.101,-0.209 -0.093,-0.278 -0.043,-0.041 -0.044,-0.105 -0.089,-0.151 0.003,-0.07 0.005,-0.147 -0.051,-0.198 0.006,-0.065 0.009,-0.136 -0.044,-0.183 0.002,-0.059 0,-0.119 -0.006,-0.178 l -0.04,-0.057 c 0.003,-0.051 -0.004,-0.098 -0.044,-0.133 l -0.007,-0.087 c -0.062,-0.056 -0.027,-0.134 -0.092,-0.207 l -0.005,-0.123 c -0.043,-0.044 -0.044,-0.111 -0.086,-0.16 10e-4,-0.042 -0.002,-0.084 -0.007,-0.126 -0.111,-0.095 -0.078,-0.323 -0.183,-0.436 l -0.006,-0.126 c -0.058,-0.053 -0.076,-0.185 -0.134,-0.25 l -0.006,-0.126 c -0.023,-0.021 -0.208,-0.401 -0.21,-0.435 -10e-4,-0.042 0.015,-0.084 0.016,-0.126 0.007,-0.275 0.002,-0.555 0.03,-0.829 m -23.01,-0.126 c 0.038,0.534 0.124,1.76 0.223,2.273 -0.055,0.093 -0.144,0.344 -0.139,0.416 -0.103,0.098 -0.16,0.341 -0.188,0.471 -0.072,0.055 -0.38,0.76 -0.377,0.844 -0.124,0.111 -0.159,0.4 -0.274,0.536 l -0.003,0.108 c -0.045,0.052 -0.045,0.119 -0.094,0.168 0.004,0.031 0.013,0.115 -0.006,0.142 l -0.051,0.011 -0.034,-0.093 c -0.05,-0.61 -0.09,-1.235 -0.098,-1.847 -0.002,-0.152 0.071,-0.425 0.188,-0.543 l 0.007,-0.125 c 0.067,-0.066 0.092,-0.202 0.092,-0.291 l 0.063,-0.024 c 0.025,-0.048 0.037,-0.11 0.037,-0.165 0.044,-0.039 0.044,-0.107 0.085,-0.153 -0.008,-0.117 0.115,-0.372 0.184,-0.466 -0.005,-0.154 0.09,-0.255 0.103,-0.409 0.081,-0.071 0.073,-0.207 0.102,-0.298 0.028,-0.024 0.053,-0.053 0.074,-0.082 l 0.01,-0.09 c 0.114,-0.102 0.053,-0.263 0.096,-0.383 m -11.779,-0.034 -0.004,-0.048 z m 34.672,-0.324 0.044,-10e-4 z m -0.137,-0.293 c 0.048,0.047 0.046,0.108 0.094,0.155 0.04,0.338 0.043,1 0.028,1.384 -0.027,-0.068 -0.051,-0.137 -0.095,-0.197 -0.021,-0.028 -0.075,-0.055 -0.075,-0.096 0,-0.418 0.05,-0.83 0.048,-1.246 m -30.31,0.183 c -0.023,-0.039 -0.008,-0.199 -0.003,-0.243 0.025,0.032 0.02,0.178 0.022,0.221 z m 32.97,-1.059 c -0.034,0.07 0,0.116 0.018,0.136 -0.011,0.07 0.076,0.397 0.142,0.469 l 0.007,0.125 c 0.025,0.021 0.043,0.062 0.044,0.095 0.112,0.098 2.736,-0.083 3.017,-0.486 l 0.01,-0.044 c -0.174,-0.065 -0.737,-0.269 -0.888,-0.285 -0.644,-0.066 -1.448,0 -2.112,0.025 -0.091,0 -0.15,-0.027 -0.238,-0.035 m -0.067,-0.106 c -0.004,-0.032 -0.016,-0.132 0.002,-0.16 0.029,0 0.113,-0.016 0.137,0.01 0.009,0.084 -0.04,0.122 -0.069,0.194 z m -25.068,-0.55 c -0.039,0.094 -0.082,0.211 -0.089,0.324 -0.017,0.29 0.023,0.543 0.036,0.821 0.005,0.088 -0.049,0.158 -0.047,0.229 l 0.057,0.045 0.042,0.046 c -0.039,0.297 0.072,0.87 0.039,1.022 l -0.07,0.018 -0.032,-0.046 c -0.054,0.105 0.071,1.629 0.113,1.674 0.04,-0.042 0.115,-0.197 0.137,-0.22 -0.006,-0.04 -0.007,-0.086 0.004,-0.125 0.082,-0.059 0.067,-0.221 0.134,-0.286 -0.002,-0.062 -10e-4,-0.101 0.047,-0.148 -0.002,-0.099 0.058,-0.136 0.055,-0.239 -0.006,-0.212 -0.205,-2.27 -0.244,-2.307 0,-0.063 0.012,-0.152 -0.005,-0.213 -0.03,-0.211 -0.115,-0.43 -0.177,-0.595 m -15.791,-0.292 c 0.056,0.07 0.261,0.701 0.229,0.766 -0.062,-0.018 -0.245,-0.732 -0.229,-0.766 m -0.425,-0.179 0.024,0.046 z m 48.281,-0.087 c -0.059,0.137 -0.445,0.242 -0.574,0.222 l -0.062,-0.055 0.018,-0.043 c 0.082,-0.043 0.501,-0.104 0.618,-0.124 m -47.639,0.01 c 0.042,0 0.088,-0.01 0.128,-0.02 l 0.015,0.054 c -0.062,0.155 0.428,1.733 0.37,2.022 -0.017,-0.074 -0.063,-0.125 -0.08,-0.196 -0.066,-0.291 -0.439,-1.681 -0.433,-1.86 m -0.655,-0.137 -0.007,0.086 -0.028,-0.093 z m -0.07,-0.209 0.026,0.053 -0.036,-0.044 z m 0.733,0 c 0.042,0.068 0.097,0.22 0.087,0.245 -0.072,-0.047 -0.091,-0.167 -0.087,-0.245 m -0.004,-0.118 -0.002,0.044 c -0.039,-0.027 -0.043,-0.067 -0.028,-0.091 z m -0.76,-0.067 c 0.008,0.027 0.013,0.068 -0.003,0.093 l -0.028,-0.06 z m 52.731,-0.147 c -0.369,0.363 -2.415,0.654 -2.617,0.44 l -0.016,-0.046 c 0.107,-0.064 0.221,-0.05 0.338,-0.076 0.424,-0.096 0.897,-0.073 1.33,-0.127 0.281,-0.035 0.698,-0.211 0.965,-0.191 m -52.766,-0.013 -0.008,0.07 -0.027,-0.103 z m 9.937,-0.108 c 0.031,0.119 0.096,0.812 0.052,0.845 -0.013,-0.222 -0.136,-0.632 -0.052,-0.845 m 5.848,-0.204 0.005,0.067 -0.028,-0.046 z m 9.58,-0.222 c -0.016,0.039 -0.04,0.076 -0.065,0.109 l -0.005,0.129 c -0.088,0.083 -0.105,0.262 -0.186,0.354 0.008,0.08 0.007,0.126 -0.049,0.187 0.004,0.143 -0.108,0.359 -0.187,0.477 0.963,0.204 1.915,0.401 2.871,0.574 0.339,0.062 0.687,0.16 1.03,0.196 l 0.055,0.064 c -0.022,0.159 0.109,1.255 0.126,1.474 0.086,1.138 0.184,2.279 0.234,3.42 0.157,3.52 0.362,7.036 0.533,10.555 0.049,1.034 0.208,2.045 0.231,3.081 10e-4,0.023 0.008,0.047 0.012,0.07 l 0.079,0.01 c 0.003,-0.039 10e-4,-0.164 0.022,-0.195 0.207,0.382 0.235,0.436 0.101,0.851 -0.015,0.043 -0.062,0.198 -0.115,0.212 -0.204,-0.054 -0.438,-0.087 -0.636,-0.161 -0.689,-0.259 -1.692,-0.901 -2.174,-1.452 0.279,0.189 0.517,0.43 0.805,0.61 0.316,0.196 1.6,0.847 2.053,0.723 l 0.039,-0.055 c 0.005,-0.033 0.001,-0.073 -0.013,-0.104 -0.236,-0.207 -0.573,-0.286 -0.844,-0.443 -0.782,-0.454 -0.848,-0.444 -1.518,-1.138 -0.299,-0.31 -0.55,-0.712 -0.787,-1.071 -1.094,-1.662 -1.707,-4.376 -2.205,-6.271 -0.05,-0.196 -0.104,-0.439 -0.187,-0.624 -0.038,-0.085 -0.107,-0.156 -0.131,-0.251 -0.092,-0.349 -0.073,-0.824 -0.102,-1.19 -0.095,-1.249 -0.263,-2.492 -0.331,-3.746 -0.03,-0.56 -0.136,-1.191 -0.075,-1.749 0.09,0.044 0.121,0.443 0.125,0.536 0.01,0.234 0.067,0.467 0.093,0.699 0.057,0.502 0.131,1.007 0.182,1.51 0.105,1.039 0.162,2.083 0.386,3.104 l 0.055,0.04 c 0.03,-0.19 -0.047,-0.43 -0.061,-0.626 -0.042,-0.632 -0.216,-1.288 -0.266,-1.928 -0.063,-0.797 -0.08,-1.609 -0.111,-2.409 -0.011,-0.272 -0.084,-0.567 -0.122,-0.838 -0.064,-0.465 -0.055,-0.937 -0.093,-1.405 l -0.056,-0.031 -0.009,0.145 c -0.041,0.043 -0.049,0.108 -0.088,0.156 l -0.005,0.124 c -0.085,0.083 -0.097,0.258 -0.184,0.346 0.004,0.042 0.004,0.086 -0.002,0.127 -0.048,0.038 -0.054,0.117 -0.095,0.166 l 0.003,0.056 c -0.08,0.06 -0.1,0.16 -0.1,0.255 -0.046,0.036 -0.048,0.109 -0.088,0.156 0.006,0.054 -0.004,0.091 -0.046,0.131 0.006,0.043 -0.099,0.289 -0.135,0.318 -0.004,0.165 -0.11,0.118 -0.104,0.329 -0.066,0.059 -0.073,0.182 -0.136,0.246 0.014,0.146 -0.093,0.133 -0.099,0.2 -0.019,0.226 -0.173,0.352 -0.228,0.548 -0.041,0.147 -0.081,0.365 -0.193,0.484 0.005,0.042 0.002,0.085 -0.005,0.126 -0.039,0.033 -0.036,0.065 -0.053,0.107 l -0.071,0.018 c -0.006,0.091 -0.072,0.341 -0.148,0.392 -0.064,0.274 0.077,0.562 0.032,0.831 -0.034,-0.209 -0.076,-0.401 -0.081,-0.613 l -0.048,-0.031 -0.004,0.129 c -0.063,0.074 -0.074,0.185 -0.14,0.266 l -10e-4,0.069 c -0.032,0.025 -0.055,0.09 -0.05,0.129 l -0.089,0.077 c 0.005,0.033 0.007,0.126 -0.023,0.151 l -0.056,0.01 c -0.014,0.049 -0.022,0.106 -0.017,0.157 -0.154,0.124 -0.195,0.582 -0.358,0.689 -0.045,0.081 0.183,1.297 0.121,1.494 -0.03,-0.309 -0.153,-0.653 -0.181,-0.935 -0.005,-0.057 -10e-4,-0.127 -0.028,-0.181 l -0.062,0.011 c -0.029,0.141 0.204,1.644 0.223,1.906 0.029,0.407 0.034,0.84 0.015,1.245 -0.029,0.609 -0.195,2.155 -0.897,2.426 -0.467,0.18 -1.456,-0.741 -1.719,-1.016 l -0.057,0.039 c -0.003,0.03 -0.014,0.153 -0.031,0.176 -0.022,0.027 -0.089,0.074 -0.084,0.113 -0.021,0.187 1.484,1.125 1.739,1.163 l -0.052,0.047 c -0.177,-0.125 -0.6,-0.247 -0.907,-0.482 -0.066,-0.051 -0.78,-0.678 -0.854,-0.636 -0.011,0.057 -0.058,0.098 -0.073,0.157 -0.03,0 -0.065,0.026 -0.084,0.051 l -0.002,0.125 -0.041,0.062 c 0,0 3.557,3.506 4.398,-0.351 0.117,0.145 0.184,0.265 0.184,0.431 -10e-4,0.256 0.066,0.88 0.05,1.047 -0.15,-0.171 -0.2,-1.071 -0.222,-1.091 -0.1,0.118 -0.082,0.251 -0.092,0.368 -0.04,0.442 -0.017,0.68 0.09,1.098 0.011,0.042 -0.041,0.442 -0.035,0.537 0.018,0.268 0.191,0.539 0.226,0.811 0.037,0.29 0.063,0.582 0.106,0.871 0.016,0.1 0.07,0.208 0.031,0.313 l -0.097,0.034 c -0.033,-0.163 -0.009,-0.337 -0.075,-0.457 -0.035,0.012 -0.091,0.032 -0.128,0.027 -0.09,-0.334 -0.304,-2.067 -0.303,-2.404 -0.048,0.048 -0.091,0.126 -0.097,0.213 -0.091,0.022 -0.135,-0.085 -0.145,-0.128 -0.084,0.396 0.254,2.664 0.203,2.808 -0.088,0.04 -0.216,0.041 -0.309,0.028 -0.358,-0.049 -1.103,-0.272 -1.495,-0.365 -0.244,-0.059 -0.539,-0.083 -0.775,-0.158 -0.371,-0.118 -1.044,-0.762 -1.284,-1.055 -0.301,-0.367 -0.563,-0.838 -0.739,-1.278 -0.019,-0.049 -0.065,-0.255 -0.086,-0.275 l -0.069,0.014 c 0.011,0.083 -0.02,0.118 -0.086,0.171 10e-4,0.063 -0.066,0.095 -0.069,0.158 l -0.066,0.025 c -0.016,0.146 -0.15,0.217 -0.165,0.342 l -0.062,0.028 c -0.039,0.147 -0.17,0.255 -0.176,0.405 0.052,0.079 0.43,0.782 0.43,0.785 -0.186,-0.117 -0.489,-0.397 -0.568,-0.57 -0.03,0.042 -0.064,0.082 -0.101,0.119 l -0.053,0.015 c 0.002,0.103 -0.167,0.256 -0.165,0.329 -0.025,0.027 -0.056,0.053 -0.089,0.07 10e-4,0.05 -0.056,0.089 -0.061,0.147 -0.04,0.037 -0.141,0.12 -0.136,0.181 l -0.065,0.023 c -0.02,0.056 -0.165,0.299 -0.165,0.331 l -0.082,0.053 c -0.017,0.089 -0.098,0.165 -0.115,0.256 l -0.065,0.023 c -0.031,0.107 -0.264,0.416 -0.261,0.439 0.656,0.674 1.476,1.118 2.133,1.798 0.157,0.162 0.701,0.419 0.793,0.502 1.165,1.064 2.371,2.083 3.574,3.102 0.938,0.794 1.871,1.589 2.806,2.386 0.656,0.56 1.279,1.164 1.923,1.738 1.009,0.9 2.038,1.803 3.013,2.739 0.323,0.308 0.656,0.604 1.009,0.877 0.427,0.328 0.931,0.57 1.354,0.907 l 0.396,0.314 c 0.56,0.446 1.069,0.977 1.615,1.442 0.84,0.716 1.813,1.288 2.763,1.839 0.086,0.05 0.625,0.277 0.728,0.193 0.019,-0.059 -0.087,-0.18 -0.119,-0.22 -0.062,-0.08 -0.108,-0.177 -0.175,-0.253 -0.256,-0.287 -0.858,-0.574 -1.184,-0.83 -0.031,-0.025 -0.14,-0.099 -0.14,-0.148 l 0.096,-0.08 c -0.304,-0.359 -0.745,-0.614 -1.113,-0.86 -0.518,-0.344 -1.031,-0.743 -1.514,-1.135 -0.11,-0.091 -0.234,-0.181 -0.348,-0.268 -1.349,-1.034 -2.67,-2.141 -3.924,-3.288 l -0.398,-0.363 c -0.208,-0.19 -0.392,-0.408 -0.599,-0.599 -0.416,-0.382 -0.862,-0.733 -1.29,-1.099 -0.025,-0.021 -0.069,-0.049 -0.07,-0.086 0.217,0.01 1.751,1.327 1.869,1.425 l 0.096,0.08 c 0.901,0.746 1.787,1.504 2.691,2.248 0.317,0.261 0.669,0.516 0.965,0.798 0.258,0.246 0.488,0.505 0.755,0.745 0.778,0.696 2.279,1.62 3.163,2.237 0.347,0.242 0.698,0.494 1.021,0.767 0.302,0.255 0.551,0.515 0.881,0.741 0.167,0.113 0.969,0.644 1.146,0.557 l 0.004,-0.047 c -0.221,-0.187 -0.911,-0.586 -1.052,-0.795 -0.01,-0.015 0.041,-0.492 0.045,-0.502 l 0.081,0.012 c 0.251,0.292 0.647,0.64 0.961,0.866 0.042,0.031 0.877,0.337 0.94,0.345 0.161,0.021 0.305,0 0.466,0.041 0.078,0.021 0.793,0.549 0.835,0.248 -0.655,-0.428 -1.323,-0.81 -1.947,-1.24 -0.283,-0.195 -0.777,-0.472 -1.016,-0.713 -0.042,-0.042 -0.051,-0.149 -0.042,-0.205 h 0.076 c 0.54,0.382 1.796,1.326 2.464,1.211 0.03,-0.022 0.058,-0.08 0.059,-0.117 -0.238,-0.606 -3.52,-2.528 -3.528,-2.688 0.443,-0.027 1.362,-0.24 1.812,-0.39 0.058,-0.019 0.384,-0.146 0.408,-0.143 -0.05,-0.058 -0.299,0.043 -0.377,0.067 -0.503,0.158 -0.994,0.234 -1.527,0.214 0.363,-0.026 1.781,-0.445 2.121,-0.653 0.036,-0.022 0.403,-0.238 0.41,-0.293 -0.014,-0.012 -0.285,-0.545 -0.289,-0.593 l -0.068,-0.018 c -0.004,-0.023 -0.094,-0.202 -0.109,-0.222 v -0.109 l -0.05,-0.042 c -0.051,-0.01 -0.166,0.095 -0.211,0.121 -0.231,0.133 -0.879,0.297 -1.138,0.301 -0.512,0.01 -1.037,0.084 -1.55,0.048 -0.534,-0.037 -1.107,-0.33 -1.572,-0.58 -0.097,-0.052 -0.202,-0.057 -0.293,-0.13 -0.336,-0.269 -0.752,-0.843 -1.012,-1.214 -0.253,-0.365 -0.463,-0.733 -0.68,-1.123 -0.213,-0.385 -0.958,-1.945 -0.971,-2.334 l 0.056,-0.023 c 0.82,1.435 1.215,3.065 2.547,4.175 0.016,-0.068 -0.968,-1.264 -1.119,-1.453 -0.194,-0.246 -0.316,-0.635 -0.45,-0.921 -0.308,-0.659 -0.752,-1.518 -0.973,-2.196 -0.22,-0.673 -0.38,-1.359 -0.536,-2.049 -0.022,-0.096 -0.194,-0.602 -0.175,-0.645 l 0.06,0.01 c 0.12,0.245 0.685,0.86 0.882,1.077 1.387,1.515 2.879,2.938 4.741,3.834 0.318,0.153 0.571,0.241 0.923,0.296 0.045,0.01 0.093,0.057 0.14,0.037 -0.051,-0.038 -0.087,-0.075 -0.134,-0.089 -0.131,-0.04 -0.279,-0.069 -0.414,-0.1 -0.468,-0.109 -1.118,-0.55 -1.55,-0.8 -0.619,-0.359 -1.235,-0.848 -1.762,-1.33 -1.086,-0.994 -2.031,-2.016 -2.936,-3.165 0.004,-0.063 -0.031,-0.17 -0.052,-0.228 l 0.047,-0.019 c 0.125,0.135 0.223,0.288 0.328,0.436 0.259,0.364 0.603,0.744 0.915,1.06 0.201,0.203 0.389,0.439 0.594,0.645 1.302,1.311 2.583,2.411 4.286,3.128 0.054,0.023 0.492,0.186 0.516,0.182 l 0.041,-0.047 -0.007,-0.071 c -0.026,-0.019 -0.117,-0.219 -0.156,-0.273 -0.037,-0.019 -0.078,-0.034 -0.118,-0.044 l 0.053,-0.036 c 0.004,-0.065 -0.012,-0.13 -0.055,-0.179 l -10e-4,-0.11 -0.092,-0.126 -0.006,-0.072 c -0.044,-0.042 -0.042,-0.111 -0.094,-0.149 -0.122,-0.089 -0.346,-0.133 -0.485,-0.198 -0.336,-0.154 -0.658,-0.349 -0.962,-0.557 -0.868,-0.596 -1.619,-1.327 -2.342,-2.087 -0.157,-0.166 -1.215,-1.377 -1.279,-1.543 0.081,0.028 0.705,0.832 0.791,0.926 0.963,1.048 1.963,2.129 3.201,2.856 0.072,0.043 0.913,0.503 1.014,0.483 -0.023,-0.07 -0.02,-0.143 -0.037,-0.214 -0.058,-0.041 -0.19,-0.385 -0.182,-0.455 -0.03,-0.026 -0.05,-0.075 -0.056,-0.113 -0.144,-0.118 -0.599,-0.295 -0.822,-0.463 -1.013,-0.766 -1.851,-1.645 -2.656,-2.618 -0.474,-0.571 -1.541,-2.101 -1.542,-2.865 l -10e-4,-1.747 c 0,-0.231 0.02,-0.462 -10e-4,-0.693 -0.015,-0.153 -0.062,-0.318 -0.086,-0.47 -0.092,-0.584 -0.178,-1.186 -0.237,-1.773 -0.103,-1.015 -0.094,-2.256 -0.099,-3.279 -0.077,-0.071 -0.141,-0.282 -0.148,-0.388 -0.051,-0.149 -0.058,-0.272 -0.091,-0.376 -0.062,-0.045 -0.073,-0.178 -0.13,-0.228 l -0.01,-0.232 c -0.063,-0.055 -0.074,-0.183 -0.137,-0.247 l -0.003,-0.129 -0.043,-0.059 -0.006,-0.124 c -0.042,-0.043 -0.044,-0.107 -0.086,-0.153 l -0.011,-0.145 c -0.028,-0.085 -0.05,-0.162 -0.084,-0.194 0,-0.061 -0.005,-0.098 -0.05,-0.145 10e-4,-0.042 0.014,-0.203 -0.007,-0.233 l -0.069,-0.019 -0.019,-0.248 c -0.025,-0.022 -0.045,-0.062 -0.048,-0.096 -0.063,0.137 0.075,1.109 0.089,1.303 0.081,1.092 0.147,2.186 0.234,3.276 0.122,1.521 0.199,3.054 0.283,4.578 0.029,0.526 0.031,1.058 0.073,1.584 0.018,0.211 0.056,0.468 0.127,0.67 0.176,0.5 1.09,1.822 1.116,1.921 -0.108,-0.01 -0.598,-0.822 -0.649,-0.903 -0.22,-0.355 -0.453,-0.683 -0.643,-1.055 -0.517,-1.013 -0.503,-4.768 -0.486,-5.745 0.003,-0.161 0.028,-0.322 0.026,-0.483 -0.009,-0.762 -0.098,-1.507 -0.127,-2.265 -0.011,-0.319 -0.335,-3.856 -0.368,-3.884 0.001,-0.041 0.001,-0.084 -0.005,-0.125 -0.093,-0.067 -0.063,-0.287 -0.136,-0.34 l -0.006,-0.125 c -0.046,-0.042 -0.039,-0.113 -0.088,-0.153 0.004,-0.061 -0.007,-0.106 -0.049,-0.154 l -0.005,-0.164 c -0.042,-0.042 -0.046,-0.107 -0.087,-0.153 l -0.005,-0.129 c -0.087,-0.082 -0.071,-0.292 -0.136,-0.343 l -0.004,-0.127 c -0.048,-0.048 -0.05,-0.116 -0.093,-0.169 0.009,-0.064 0.012,-0.125 -0.042,-0.169 -0.03,-0.188 -0.093,-0.311 -0.101,-0.515 -0.047,-0.036 -0.047,-0.107 -0.09,-0.152 l -10e-4,-0.123 -0.043,-0.058 c 10e-4,-0.043 0.005,-0.102 -0.009,-0.143 l -0.067,-0.066 -0.024,-0.205 c -0.074,-0.072 -0.033,-0.111 -0.051,-0.198 -0.048,-0.036 -0.048,-0.108 -0.089,-0.153 0.003,-0.04 0.007,-0.085 -0.003,-0.124 -0.048,-0.034 -0.046,-0.108 -0.089,-0.153 l -0.007,-0.126 c -0.069,-0.067 -0.081,-0.206 -0.097,-0.295 l -0.038,-0.17 -0.042,-0.06 -0.012,-0.14 c -0.092,-0.079 -0.134,-0.399 -0.181,-0.433 0.008,-0.06 -0.007,-0.101 -0.048,-0.147 0.007,-0.054 -0.048,-0.281 -0.093,-0.323 0.01,-0.058 -0.01,-0.103 -0.049,-0.147 v -0.164 c -0.064,-0.072 -0.102,-0.188 -0.094,-0.283 -0.083,-0.079 -0.019,-0.121 -0.049,-0.2 -0.065,-0.044 -0.149,-0.305 -0.143,-0.373 -0.047,-0.039 -0.047,-0.108 -0.09,-0.155 0.021,-0.16 -0.105,-0.243 -0.099,-0.406 -0.041,-0.038 -0.144,-0.318 -0.137,-0.377 -0.045,-0.043 -0.041,-0.108 -0.088,-0.155 0.008,-0.08 -0.057,-0.142 -0.056,-0.227 -0.484,-0.134 -1.026,-0.097 -1.495,-0.259 0.418,-0.063 0.789,-0.017 1.2,0 0.049,0 0.143,0.035 0.189,0.02 0.013,-0.041 0.024,-0.096 0.013,-0.139 -0.034,-0.027 -0.125,-0.243 -0.149,-0.291 -0.918,-0.054 -1.841,-0.094 -2.744,-0.24 -0.119,-0.02 -0.227,0 -0.347,-0.036 -0.018,-0.01 -0.051,-0.018 -0.073,-0.01 m -10.366,-0.423 0.048,-0.021 c 0.078,0.213 0.215,1.455 0.122,1.55 -0.049,0 -0.159,-1.287 -0.167,-1.369 -0.006,-0.051 -0.022,-0.11 -0.003,-0.16 m 0.517,-0.31 c 0.077,-0.046 0.174,-0.035 0.269,-0.025 l -0.055,0.035 c -0.072,0 -0.143,0 -0.214,-0.01 m -0.449,-0.046 -0.053,0.025 -0.063,-0.074 c 0.042,-0.043 0.085,-0.034 0.111,-0.017 z m -6.773,-0.139 c 0.049,0.056 0.068,1.45 0.043,1.5 -0.038,-0.198 -0.066,-1.461 -0.043,-1.5 m -3.45,-0.288 c -0.039,1.329 0.182,2.642 0.274,3.964 0.023,0.346 0.005,0.687 0.007,1.033 0.002,0.502 0.047,1 0.105,1.499 l 0.064,0.01 0.014,0.052 c 0.022,-0.07 0.041,-0.169 0.037,-0.242 -0.067,-1.062 -0.141,-2.122 -0.226,-3.182 -0.032,-0.398 -0.159,-0.906 -0.121,-1.301 0.024,-0.01 0.056,-0.013 0.081,-0.01 0.034,-0.16 -0.065,-1.021 -0.082,-1.22 -0.009,-0.097 0.033,-0.242 0.04,-0.343 l 0.055,0.01 c 0.228,0.412 0.38,2.882 0.39,3.342 0.011,0.474 0.014,0.944 0.068,1.415 0.034,0.309 0.119,0.605 0.119,0.92 0,0.291 -0.014,0.581 0.024,0.871 l 0.083,0.032 c 0.176,0.501 0.446,0.784 0.785,1.128 0.285,0.287 0.596,0.552 0.944,0.761 0.454,0.273 0.672,0.327 0.972,-0.122 0.734,-1.096 -0.026,-3.537 0.092,-3.808 0.071,0.338 0.147,0.675 0.194,1.019 0.042,-0.246 -0.115,-1.383 -0.222,-1.647 -0.018,0.057 -0.038,0.146 -0.029,0.208 l -0.039,-0.054 c -0.009,-0.345 -0.098,-0.701 -0.136,-1.044 -0.109,-0.993 -0.162,-2.006 -0.128,-3.002 -0.296,-0.043 -3.365,-0.284 -3.365,-0.284 m 36,-0.019 -0.027,0.058 0.042,0.061 10e-4,0.215 c 0.078,0.074 0.049,0.188 0.051,0.287 l 0.039,0.057 c -0.002,0.086 -0.021,0.224 0.051,0.29 0,0.13 -0.045,0.365 0.047,0.47 -0.002,0.041 -0.002,0.084 0.003,0.125 l 0.043,0.057 c 0,0.109 0.047,0.615 0.095,0.66 l 0.005,0.126 0.04,0.058 0.003,0.126 c 0.073,0.077 0.049,0.191 0.052,0.29 0.028,0.03 0.044,0.08 0.047,0.12 0.113,0.047 1.511,0.051 1.718,0.055 0.613,0.011 1.252,0.189 1.854,0.185 0.441,0 2.372,0.042 2.842,-0.316 l 0.016,-0.046 c -0.545,-0.067 -2.238,0.08 -2.46,-0.111 -0.028,-0.107 -0.086,-0.19 -0.077,-0.307 -0.073,-0.082 -0.129,-0.195 -0.213,-0.264 l 0.036,-0.046 c 0.216,-0.01 0.36,0.066 0.563,0.088 0.311,0.033 0.631,0.033 0.943,0.062 0.236,0.022 0.499,0.078 0.733,0.078 0.113,0 1.476,-0.226 1.619,-0.271 0.34,-0.105 0.762,-0.383 1.102,-0.422 0.474,-0.054 0.992,-0.047 1.471,-0.055 0.164,0 0.758,-0.12 0.834,-0.304 -0.012,-0.043 -0.098,-0.084 -0.109,-0.085 -0.631,-0.045 -1.514,0.046 -2.174,0.058 -1.479,0.027 -3.014,0.043 -4.489,0.116 -0.203,0.01 -0.655,0.046 -0.711,-0.244 0.739,0.078 1.554,-0.053 2.259,-0.09 0.692,-0.036 2.308,-0.043 2.931,-0.549 0.003,-0.03 0.01,-0.134 -0.01,-0.159 -0.413,-0.396 -5.586,-0.212 -6.252,-0.212 -0.662,0 -1.332,-0.025 -1.991,-0.072 -0.29,-0.021 -0.643,-0.014 -0.927,-0.089 m -22.826,0 -0.051,0.054 -0.012,0.104 c -0.045,0.039 -0.044,0.105 -0.088,0.15 0.003,0.042 0.003,0.085 -0.004,0.126 -0.075,0.071 -0.077,0.249 -0.135,0.297 0.006,0.052 -0.005,0.099 -0.045,0.133 l -0.002,0.071 c -0.021,0.039 -0.052,0.078 -0.086,0.105 -0.014,0.034 -0.012,0.077 -0.01,0.111 0.038,0.039 0.885,0.21 0.952,0.202 0.032,-0.014 0.063,-0.042 0.081,-0.071 -0.003,-0.037 -0.009,-0.109 0.006,-0.144 0.031,0 0.067,-0.022 0.089,-0.046 0.002,-0.108 -0.006,-0.288 0.09,-0.371 0.004,-0.071 0.004,-0.147 0.051,-0.204 -0.007,-0.077 -0.011,-0.125 0.046,-0.182 -0.003,-0.04 -0.007,-0.086 0.003,-0.126 l 0.043,-0.056 -0.023,-0.076 c -0.085,-0.025 -0.867,-0.1 -0.905,-0.077 m -7.591,-0.084 c -0.029,0.09 10e-4,0.226 -0.002,0.324 1.383,0.09 2.728,0.132 4.07,0.212 l 0.039,-0.052 -0.008,-0.09 -0.067,-0.039 c -0.554,-0.072 -3.834,-0.483 -4.032,-0.355 m -0.645,-0.012 c 0.089,0.01 0.108,0.241 0.086,0.308 -0.058,-0.095 -0.095,-0.211 -0.086,-0.308 m -1.489,-0.091 0.049,-0.01 c 0.031,0.105 0.004,0.218 -0.003,0.325 -0.048,-0.043 -0.07,-0.279 -0.046,-0.318 m 28.016,-0.095 -0.004,0.158 c 0.059,0.047 0.125,0.25 0.137,0.326 l 0.045,0.056 c -0.007,0.058 0.005,0.104 0.044,0.15 -0.003,0.099 0.078,0.3 0.142,0.376 -0.002,0.042 0,0.087 0.01,0.128 0.057,0.043 0.073,0.183 0.13,0.234 0,0.047 0.002,0.095 0.009,0.142 0.136,0.096 0.182,0.578 0.319,0.708 0,0.038 -0.002,0.109 0.015,0.145 0.067,0.05 0.097,0.086 0.087,0.17 0.125,0.137 0.091,0.382 0.229,0.53 -0.005,0.108 0.16,0.488 0.236,0.57 l 0.005,0.128 c 0.035,0.03 0.042,0.067 0.054,0.108 l 0.068,0.02 c 0.009,0.044 0.033,0.091 0.062,0.125 l 10e-4,0.107 0.077,0.059 c 0.017,0.047 0.024,0.102 0.024,0.153 0.036,0.02 0.137,0.234 0.139,0.283 0.195,0.016 0.484,0.043 0.667,0.087 l 0.029,-0.09 -0.038,-0.061 c -0.002,-0.093 -0.009,-0.25 -0.094,-0.316 -0.003,-0.069 0.005,-0.149 -0.049,-0.201 0.003,-0.111 0.005,-0.146 -0.087,-0.216 10e-4,-0.045 -0.019,-0.131 -0.057,-0.161 0.001,-0.042 -0.002,-0.085 -0.005,-0.126 -0.054,-0.051 -0.029,-0.093 -0.051,-0.148 -0.09,0 -0.263,-0.021 -0.345,-0.062 0.1,-0.032 0.177,-0.04 0.282,-0.046 0.002,-0.116 -0.084,-0.211 -0.074,-0.309 l -0.042,-0.058 c 0.005,-0.066 0.01,-0.137 -0.045,-0.184 0,-0.046 -10e-4,-0.092 -0.006,-0.138 -0.06,-0.046 -0.073,-0.182 -0.131,-0.234 l -0.013,-0.143 c -0.091,-0.074 -0.052,-0.265 -0.129,-0.325 l -0.007,-0.14 c -0.091,-0.088 -0.082,-0.299 -0.136,-0.341 0.006,-0.115 -0.024,-0.203 -0.099,-0.292 0.015,-0.207 -0.169,-0.354 -0.142,-0.585 -0.064,-0.058 -0.072,-0.184 -0.134,-0.248 l -0.007,-0.127 c -0.053,-0.053 -0.033,-0.09 -0.055,-0.145 -0.034,0 -1.026,-0.093 -1.061,-0.067 m -31.569,-0.13 c 0.28,-0.027 3.357,0.179 3.467,0.204 0.02,0.059 0.026,0.312 -10e-4,0.351 -0.016,0 -0.074,0.021 -0.086,0.02 -0.312,-0.029 -3.182,-0.307 -3.336,-0.377 -0.028,-0.06 -0.046,-0.13 -0.044,-0.198 m -0.238,-0.039 0.104,-0.013 c 0.052,0.066 0.074,0.154 0.062,0.21 -0.082,0.03 -0.128,0.021 -0.166,0 -0.028,-0.061 -0.013,-0.136 0,-0.199 m 10.425,0.118 -0.056,-0.021 -0.014,-0.089 0.093,-0.027 c 0.05,0.055 0.048,0.092 0.042,0.121 z m -1.272,-0.136 c 0.257,0.048 0.525,0.078 0.785,0.087 l 0.043,-0.046 c -0.27,-0.068 -0.565,-0.078 -0.828,-0.041 m -9.458,0.181 c -0.021,-0.053 -0.03,-0.128 -0.023,-0.185 0.047,0.015 0.083,0.146 0.064,0.175 z m -3.314,-0.243 c -0.078,0.469 0.194,0.761 0.221,1.136 0.026,0.34 0.011,0.666 0.063,1.011 0.067,0.442 0.188,0.88 0.271,1.32 0.106,0.557 0.154,1.119 0.204,1.684 0.002,0.017 0.049,0.231 0.043,0.248 -0.092,-0.05 -0.132,-0.345 -0.14,-0.435 -0.132,0.266 0.281,1.16 0.507,1.196 l 0.032,-0.045 c 0.015,-0.092 -0.086,-0.126 -0.095,-0.187 0.053,0.036 0.145,0.11 0.167,0.172 l -0.041,0.054 c -0.008,0.029 0.001,0.066 0.012,0.093 l 0.055,0.046 c 0.003,-0.07 -0.019,-0.128 -0.009,-0.161 l 0.059,-0.034 c 0.117,0.331 0.682,0.566 1.009,0.594 -0.339,0.114 -0.444,-0.133 -0.676,-0.169 0.008,0.091 0.096,0.125 0.139,0.149 0.388,0.207 0.629,0.174 1.026,0.05 l 0.052,0.041 c 0.11,-0.06 0.215,-0.183 0.299,-0.273 h 0.047 l 0.008,0.053 c -0.205,0.246 -0.419,0.599 -0.786,0.61 -0.053,10e-4 -0.338,0 -0.37,0.018 0.484,0.101 0.687,-0.012 1.084,-0.274 l 0.047,0.052 c -0.004,0.01 -0.014,0.043 -0.021,0.049 -0.386,0.39 -0.602,0.422 -1.151,0.392 -0.107,-0.01 -0.225,-0.075 -0.328,-0.072 l 0.071,0.765 c 0.017,0.128 0.239,0.461 0.228,0.508 -0.048,-0.01 -0.156,-0.205 -0.186,-0.257 l -0.044,0.014 c 0.104,0.366 0.386,0.578 0.687,0.773 0.173,0.112 1.018,0.188 1.172,0.149 0.028,-0.287 -0.191,-1.173 -0.054,-1.317 0.052,0.134 0.048,0.334 0.087,0.442 0.028,-0.207 -0.007,-0.471 0.119,-0.648 l 0.046,-0.014 0.014,0.051 c -0.014,0.05 -0.044,0.127 -0.047,0.177 -0.002,0.032 0.163,0.467 0.19,0.492 -0.003,0.023 0,0.053 0.011,0.074 l 0.049,-0.027 c 0.043,0.064 0.023,0.128 0.089,0.194 l 0.046,-0.072 c 0.101,0.186 0.083,0.607 0.109,0.641 l 0.069,0.029 c 0.01,0.016 0.104,0.977 0.134,1.111 0.094,0.413 0.312,0.777 0.498,1.154 0.032,0.062 0.293,0.373 0.33,0.4 -0.067,-0.283 -0.608,-1.077 -0.754,-1.533 -0.079,-0.248 -0.131,-1.243 -0.171,-1.577 -0.005,-0.038 -0.037,-0.081 -0.042,-0.121 -0.026,-0.176 -0.024,-0.344 -0.064,-0.515 l 0.029,-0.092 c -0.838,-1.132 -0.654,-0.966 -0.87,-2.273 -0.061,0.121 -0.008,0.36 10e-4,0.494 0.069,0.92 0.183,0.86 0.657,1.62 -0.538,-0.754 -0.724,-0.927 -0.78,-1.875 -0.11,-1.857 -0.195,-3.72 -0.348,-5.574 -10e-4,-0.017 -0.01,-0.036 -0.014,-0.052 -0.312,-0.098 -0.686,-0.111 -1.011,-0.155 -0.644,-0.088 -1.288,-0.182 -1.927,-0.3 -0.015,0 -0.036,0 -0.052,0 m -0.474,-0.07 0.044,-0.017 c 0.127,0.143 0.472,2.201 0.413,2.322 -0.27,-0.326 -0.229,-1.517 -0.327,-1.845 -0.013,-0.045 -0.135,-0.424 -0.13,-0.46 m 25.715,-0.253 c 0.058,-0.01 1.515,0.158 1.62,0.182 l 0.092,0.127 v 0.127 c 0.047,0.045 0.051,0.118 0.095,0.167 -0.01,0.097 0.026,0.205 0.091,0.278 -10e-4,0.041 -10e-4,0.083 0.004,0.123 0.076,0.067 0.074,0.232 0.135,0.287 0,0.031 0,0.062 0.006,0.092 0.065,0.051 0.068,0.182 0.132,0.233 l 0.009,0.141 c 0.046,0.04 0.048,0.11 0.092,0.156 -0.004,0.043 -0.001,0.087 0.005,0.13 0.015,0.012 0.09,0.153 0.09,0.171 -0.054,0.076 -0.596,-0.031 -0.687,-0.043 -0.225,-0.029 -2.333,-0.291 -2.355,-0.304 l -0.015,-0.05 c 0.003,0 0.16,-0.455 0.236,-0.543 l 0.002,-0.113 c 0.092,-0.11 -0.017,-0.18 0.115,-0.268 0.005,-0.048 0.031,-0.144 0.069,-0.178 -0.01,-0.116 -10e-4,-0.144 0.088,-0.221 10e-4,-0.092 0.062,-0.152 0.057,-0.24 0.058,-0.121 0.047,-0.19 0.119,-0.254 m -25.365,-0.089 c 0.016,-0.01 2.671,0.367 3.057,0.42 l 0.039,0.163 c -0.124,0.043 -2.923,-0.296 -3.007,-0.323 -0.024,-0.044 -0.106,-0.228 -0.089,-0.26 m -0.486,-0.067 0.044,-0.046 c 0.027,0 0.059,0.019 0.074,0.039 -0.042,0.09 0.057,0.211 0.038,0.28 l -0.047,0.01 c -0.056,-0.039 -0.094,-0.218 -0.109,-0.28 m 25.984,-0.307 -0.022,0.065 c 0.042,0.055 1.322,0.192 1.391,0.177 l 0.015,-0.046 c -0.147,-0.016 -1.341,-0.207 -1.384,-0.196 m 2.457,-0.397 -0.077,-0.044 -0.044,0.017 c -0.061,0.061 -0.067,0.431 -0.049,0.53 0.04,0.145 0.022,0.222 0.094,0.302 -0.004,0.041 -0.006,0.085 0,0.126 0.061,0.039 0.098,0.222 0.097,0.282 0.047,0.037 0.049,0.109 0.088,0.157 -0.013,0.107 0.023,0.186 0.092,0.269 -0.002,0.084 -0.007,0.134 0.048,0.2 0,0.04 10e-4,0.082 0.006,0.123 0.045,0.039 0.045,0.105 0.088,0.151 -0.006,0.059 -0.007,0.141 0.045,0.183 -0.004,0.034 0.06,0.257 0.094,0.281 -10e-4,0.063 0.002,0.103 0.046,0.153 0,0.042 0.002,0.084 0.007,0.126 l 0.045,0.059 v 0.159 c 0.043,0.053 0.047,0.121 0.095,0.171 v 0.074 c 0.058,0.049 0.042,0.17 0.049,0.241 l 0.079,0.095 c 10e-4,0.033 0.004,0.073 0.02,0.102 l 0.064,0.035 c 0.029,0.026 0.018,0.191 0.026,0.246 0.048,0.033 0.05,0.109 0.089,0.156 -0.002,0.04 -0.006,0.088 0.006,0.128 l 0.065,0.021 c 0.011,0.064 0.009,0.164 0.066,0.207 l 0.011,0.053 0.066,0.024 c 0.015,0.051 0.054,0.129 0.081,0.177 0.041,-0.093 0.041,-0.165 -0.012,-0.222 0.008,-0.08 0.008,-0.127 -0.048,-0.187 l -10e-4,-0.214 -0.044,-0.058 -10e-4,-0.125 c -0.06,-0.042 -0.02,-0.188 -0.092,-0.265 0.003,-0.021 -0.047,-0.358 -0.052,-0.405 -0.047,-0.036 -0.049,-0.106 -0.091,-0.153 0.004,-0.089 -0.054,-0.526 -0.097,-0.573 0.007,-0.039 0.008,-0.086 -0.003,-0.125 -0.047,-0.035 -0.05,-0.107 -0.089,-0.153 0.002,-0.041 0.001,-0.082 -0.003,-0.123 l -0.043,-0.059 v -0.107 c -0.069,-0.097 -0.02,-0.186 -0.094,-0.275 l -0.002,-0.125 c -0.041,-0.034 -0.053,-0.138 -0.049,-0.186 l -0.043,-0.058 10e-4,-0.164 c -0.065,-0.037 -0.107,-0.035 -0.138,-0.049 l -0.052,-0.075 c 0.01,-0.115 -0.058,-0.192 -0.041,-0.313 l 0.067,-0.019 0.009,-0.045 c -0.033,10e-4 -0.105,-0.01 -0.127,-0.037 -0.004,-0.089 -0.202,-0.592 -0.252,-0.689 m -10.036,-0.257 c 0.239,-0.026 0.517,0.047 0.755,0.08 0.039,0.067 -0.077,0.358 -0.061,0.522 l -0.076,0.093 -0.019,0.3 c -0.025,0.02 -0.056,0.071 -0.054,0.105 l -0.044,0.184 c -0.13,0.091 -0.037,0.324 -0.134,0.435 0.004,0.066 0.008,0.129 -0.048,0.173 -0.124,-0.016 -0.846,-0.073 -0.89,-0.141 -0.012,-0.086 -0.021,-0.139 0.042,-0.203 -0.003,-0.04 -0.008,-0.086 0.002,-0.125 0.087,-0.08 0.103,-0.247 0.183,-0.338 l 0.008,-0.127 c 0.051,-0.052 0.096,-0.219 0.093,-0.284 0.057,-0.053 0.104,-0.212 0.093,-0.283 0.097,-0.087 0.115,-0.278 0.15,-0.391 m -18.906,-0.321 0.033,0.056 -0.065,-0.058 z m -0.115,-0.07 c -0.026,0.057 0.067,0.235 0.144,0.252 l 0.052,-0.01 0.036,-0.063 0.044,-0.011 c 0.018,0.03 0.066,0.09 0.101,0.102 0.231,0.075 0.852,0.081 1.125,0.105 0.831,0.07 1.664,0.154 2.495,0.23 0.015,10e-4 0.037,-0.01 0.053,-0.01 -0.874,-0.13 -1.773,-0.232 -2.641,-0.368 -0.204,-0.033 -1.343,-0.244 -1.409,-0.232 m -0.441,-0.066 0.091,-0.015 c 0.051,0.033 0.14,0.22 0.113,0.272 l -0.046,0.016 c -0.067,-0.073 -0.126,-0.18 -0.158,-0.273 m 4.985,-0.514 0.022,0.052 z m 5.014,0.055 c -0.04,-0.03 -0.056,-0.077 -0.083,-0.105 l 0.085,0.067 z m -5.04,-0.198 -0.028,-0.106 c 0.045,0.039 0.037,0.079 0.028,0.106 m -0.069,-0.273 0.026,0.063 z m 4.426,-0.816 -0.047,-0.02 c -0.02,0.201 0.22,1.612 0.253,1.701 l -0.053,0.037 c -0.032,0 -0.13,0.01 -0.158,-0.012 -0.083,-0.321 -0.215,-0.623 -0.303,-0.941 l -0.058,-0.034 c -0.103,0.151 -0.057,0.771 -0.003,0.942 -1.336,0.056 -2.699,0.014 -4.013,-0.05 l -0.05,-0.05 c -0.022,-0.26 -0.057,-0.529 -0.15,-0.774 -0.077,0.177 0.053,0.569 0.056,0.796 l -0.156,0.028 c -0.034,-0.03 -0.064,-0.069 -0.084,-0.109 l -0.061,0.067 -0.061,0.039 c -0.384,0.015 -0.786,-0.039 -1.172,-0.049 -0.226,-0.01 -0.468,-0.061 -0.694,-0.081 -0.738,-0.069 -1.473,-0.138 -2.213,-0.212 l -0.071,-0.055 c -0.006,-0.055 -0.06,-0.104 -0.056,-0.152 l -0.051,0.016 c 0.033,0.032 0.063,0.104 0.04,0.149 h -0.087 c -0.043,-0.057 -0.064,-0.127 -0.112,-0.179 l -0.022,0.152 c -0.367,0.06 -0.822,-0.096 -1.181,0.055 -0.017,0.036 -0.036,0.096 -0.028,0.136 0.28,0.085 0.542,0.191 0.839,0.223 0.048,0 0.107,0.02 0.149,0.045 0.017,0.085 0.07,0.193 0.067,0.278 l -0.053,0.044 c -0.108,-0.044 -1.779,-0.331 -1.885,-0.319 -0.118,0.013 -0.265,0.054 -0.34,0.153 l 0.059,0.073 c 0.048,0 0.22,0.076 0.27,0.095 0.27,0.1 0.538,0.23 0.82,0.281 0.197,0.036 0.592,0.057 0.76,0.119 0.054,0.02 0.157,0.013 0.196,0.046 l -0.028,0.071 c -0.09,-0.01 -0.518,-0.01 -0.553,0.014 l 0.043,0.062 c 0.258,0.128 0.754,0.182 0.936,0.288 0.175,0.275 0.418,1.983 0.492,2.389 0.019,0.103 0.15,0.493 0.135,0.558 0.054,-0.038 -0.095,-0.735 -0.117,-0.88 l 0.048,-0.04 c 0.161,0.57 0.308,1.141 0.453,1.713 0.044,0.175 0.162,0.408 0.181,0.581 0.01,0.098 -0.007,0.203 0.006,0.302 0.056,0.383 0.275,1.496 0.419,1.832 0.143,0.332 0.365,0.648 0.616,0.905 0.119,0.123 0.305,0.223 0.41,0.35 0.038,0.045 0.01,0.126 0.013,0.178 0.003,0.03 0.041,0.071 0.041,0.099 0.008,0.772 -0.029,1.073 0.452,1.745 -0.24,-0.026 -0.445,-0.596 -0.489,-0.823 -0.046,-0.238 -0.022,-0.41 -0.036,-0.637 l -0.063,-0.035 c -0.022,-0.104 -0.007,-0.232 -0.003,-0.337 h -0.075 c -0.077,-0.045 -0.088,-0.083 -0.127,-0.151 0.017,0.291 0.007,0.511 0.021,0.762 0.015,0.253 0.115,0.562 0.175,0.811 -0.054,0.026 -0.102,0.016 -0.148,0.012 0.104,0.202 0.539,0.601 0.726,0.765 l -0.237,-0.152 c -0.133,-0.085 -0.791,-0.633 -0.885,-0.554 l -0.005,0.049 c 0.081,0.126 0.223,0.217 0.347,0.299 l 0.021,0.045 -0.045,0.029 c 0.006,0.013 0.023,0.064 0.032,0.072 1.683,1.619 3.549,3.02 5.189,4.682 -0.365,-0.14 -0.774,-0.693 -1.113,-0.896 l 0.007,0.047 c 0.363,0.367 0.757,0.705 1.133,1.061 1.314,1.245 2.645,2.461 3.98,3.686 0.089,0.081 0.518,0.504 0.536,0.502 0.002,-0.018 0.149,-0.332 0.16,-0.352 0.031,0 0.069,-0.023 0.088,-0.048 -0.162,-0.315 -0.582,-0.459 -0.749,-0.721 0.056,-0.042 0.668,0.513 0.76,0.591 0.053,-0.017 0.414,-0.709 0.422,-0.754 l 0.066,-0.032 c 0.025,-0.097 0.211,-0.375 0.21,-0.419 l 0.086,-0.076 c 0,-0.042 10e-4,-0.085 0.006,-0.127 0.029,-0.022 0.054,-0.072 0.06,-0.107 l 0.064,-0.026 c -10e-4,-0.059 0.039,-0.149 0.083,-0.189 -0.016,-0.038 -0.084,-0.125 -0.076,-0.156 0.034,0.014 0.085,0.038 0.123,0.037 0.08,-0.079 0.09,-0.191 0.16,-0.27 -0.204,-0.248 -0.387,-0.419 -0.548,-0.703 l -0.044,-0.018 c -0.046,0.148 -0.394,0.751 -0.48,0.81 l -0.076,0.084 -0.035,0.116 c -0.031,0.01 -0.131,0.02 -0.16,10e-4 l -0.01,-0.137 c 0.033,-0.017 0.067,-0.042 0.089,-0.071 l 0.01,-0.127 c 0.013,-0.011 0.51,-0.997 0.511,-1.008 0.008,-0.129 -0.216,-0.788 -0.258,-0.981 l 0.062,-0.048 c 0.105,0.063 0.254,0.628 0.283,0.719 l 0.058,-0.013 c 0.002,-0.171 -0.149,-0.474 -0.137,-0.589 0.129,0.015 0.247,0.168 0.382,0.107 l 0.031,-0.059 c -0.089,-0.085 -0.584,-0.444 -0.548,-0.557 0.187,0.121 0.448,0.242 0.599,0.407 l 0.047,-0.132 c 0.088,-0.094 0.205,-0.414 0.24,-0.532 0.085,-0.065 0.134,-0.208 0.133,-0.311 0.019,-0.018 0.053,-0.063 0.048,-0.092 -0.238,-0.218 -1.259,-1.098 -1.315,-1.467 -0.055,-0.358 -0.068,-0.725 -0.109,-1.088 -0.051,-0.461 -0.48,-1.065 -0.681,-1.457 -0.13,-0.252 -0.304,-1.51 -0.291,-1.818 0.044,0.113 0.071,0.206 0.102,0.32 0.058,-0.078 -0.222,-1.429 -0.237,-1.653 -0.026,-0.403 0.016,-0.817 0.027,-1.22 0.013,-0.46 0.008,-0.921 0.008,-1.381 0,-0.05 0.031,-0.108 0.033,-0.158 0.009,-0.259 -0.126,-0.574 -0.16,-0.836 -0.03,-0.23 -0.008,-0.48 -0.008,-0.712 0.317,-0.057 0.595,-0.026 0.896,-0.01 0.551,0.029 1.099,0.06 1.649,0.109 0.53,0.047 1.057,0.146 1.584,0.184 0.052,0.034 0.051,0.068 0.051,0.087 0,0.328 0.063,0.67 0.087,0.998 0.038,0.514 0.087,1.034 0.105,1.549 0.014,0.37 0.067,0.745 0.082,1.115 0.038,0.914 0.051,1.84 0.14,2.75 l 0.07,-0.035 c 0.03,-0.01 0.064,-0.03 0.08,-0.056 0.006,-0.303 0.355,-0.736 0.337,-0.97 0.057,-0.051 0.069,-0.179 0.135,-0.251 l 0.002,-0.073 c 0.066,-0.064 0.069,-0.187 0.136,-0.25 0.006,-0.081 0.166,-0.449 0.22,-0.496 l 0.022,-0.14 0.066,-0.046 c 0.027,-0.048 -0.043,-1.82 -0.037,-2.052 0.01,-0.363 -0.174,-0.749 -0.181,-1.116 h -0.043 c 0.007,0.179 0.006,0.359 10e-4,0.538 -0.002,0.061 -0.187,0.116 -0.231,0.138 -0.04,-0.202 -0.077,-1.495 -0.067,-1.526 0.119,-0.044 1.651,0.237 1.872,0.281 0.019,-0.059 0.036,-0.127 0.033,-0.19 0.043,-0.041 0.044,-0.107 0.085,-0.155 l 0.007,-0.162 c 0.147,-0.154 0.03,-0.383 0.178,-0.482 l 0.011,-0.142 c -0.541,-0.129 -1.12,-0.191 -1.698,-0.224 -0.045,0 -0.094,-0.029 -0.139,-0.033 -0.143,-0.011 -0.521,0.053 -0.524,-0.167 0.825,0 1.624,0.077 2.411,0.17 0.143,-0.083 0.112,-0.274 0.138,-0.411 0.047,-0.036 0.046,-0.106 0.087,-0.151 -0.003,-0.042 -0.004,-0.085 0.003,-0.126 0.036,-0.077 0.064,-0.125 0.089,-0.148 -0.006,-0.076 0.031,-0.362 0.095,-0.428 -0.008,-0.051 0.003,-0.097 0.045,-0.131 0.004,-0.06 0.004,-0.121 0.003,-0.181 l 0.045,-0.058 c 0.004,-0.032 0.011,-0.116 -0.009,-0.146 -0.787,-0.132 -1.584,-0.163 -2.381,-0.21 -0.227,-0.013 -0.446,-0.047 -0.676,-0.044 -0.104,-0.077 -0.066,-0.177 -0.086,-0.29 -0.013,-0.071 -0.145,-0.361 -0.144,-0.385 0.025,0.085 0.099,0.531 0.115,0.629 -0.065,0.046 -0.104,0.033 -0.126,0.018 -0.02,-0.086 -0.126,-0.531 -0.205,-0.568 -0.077,0.13 0.079,0.454 0.037,0.54 -0.501,0.043 -1.05,-0.032 -1.555,-0.037 -1.21,-0.013 -2.426,-0.033 -3.636,-0.069 -0.014,0 -0.035,-0.013 -0.048,-0.019 -0.017,-0.064 -0.102,-0.319 -0.161,-0.337 -0.038,0.083 0.016,0.303 -0.021,0.335 -0.037,0 -0.187,0.019 -0.211,0 -0.028,-0.079 -0.007,-0.166 -0.02,-0.247 -0.038,-0.256 -0.291,-0.604 -0.406,-0.819 -0.086,-0.16 -0.049,-0.404 -0.176,-0.649 m 0.124,-0.181 0.082,0.041 c 0.05,0.068 0.271,0.594 0.219,0.671 l -0.048,0.012 c -0.025,-0.17 -0.16,-0.587 -0.253,-0.724" style="fill:#ffffff;fill-opacity:1;fill-rule:evenodd;stroke:none" id="path2411-5"></path>
        <path d="m 624.5842,1090.4916 -0.052,0.053 c -0.05,0.02 -0.112,-0.025 -0.163,-0.022 -0.16,0.01 -0.945,0.171 -1.003,0.292 -0.251,0.081 -0.46,0.14 -0.695,0.279 -0.67,0.394 -1.256,0.902 -1.703,1.543 -0.057,0.082 -0.065,0.169 -0.113,0.247 -0.123,0.045 -0.228,0.31 -0.281,0.414 -0.297,0.585 -0.552,1.243 -0.694,1.888 -0.047,0.21 -0.102,0.426 -0.141,0.636 -0.009,0.051 0.02,0.13 -0.006,0.176 -0.124,0.229 -0.167,0.555 -0.181,0.815 -0.003,0.047 -0.063,0.106 -0.076,0.167 -0.082,0.365 -0.164,0.729 -0.253,1.091 -0.049,0.196 -0.128,0.442 -0.149,0.638 -0.007,0.061 0.02,0.118 0,0.193 -0.092,0.064 -0.191,0.64 -0.178,0.76 l -0.05,0.051 c -0.035,0.267 -0.124,0.546 -0.192,0.806 -0.162,0.625 -0.33,1.314 -0.43,1.95 -0.009,0.061 0.013,0.133 0.003,0.199 -0.155,0.117 -0.129,0.867 -0.234,0.949 -0.14,0.855 -0.353,1.707 -0.525,2.559 -0.068,0.335 -0.173,0.679 -0.185,1.02 l -0.045,0.058 c -0.003,0.207 -0.091,0.443 -0.133,0.647 -0.077,0.388 -0.287,1.125 -0.276,1.482 0.002,0.066 -0.097,0.24 -0.109,0.336 -0.006,0.048 0.014,0.12 0.006,0.176 -0.005,0.034 -0.038,0.069 -0.061,0.091 0.004,0.078 -0.042,0.224 -0.062,0.304 -0.112,0.423 -0.292,1.121 -0.351,1.539 -0.007,0.051 0.032,0.099 0.012,0.164 l -0.055,0.047 c -0.011,0.07 -0.048,0.139 -0.056,0.207 -0.004,0.035 0.019,0.075 0.014,0.115 l -0.006,0.048 c -0.153,0.085 -0.141,0.784 -0.244,0.856 -0.067,0.231 -0.122,0.467 -0.127,0.704 l -0.054,0.047 c -0.027,0.114 -0.023,0.216 -0.045,0.322 l -0.051,0.051 c 0.002,0.113 -0.035,0.205 -0.029,0.32 l -0.055,0.041 c -0.016,0.117 -0.233,1.001 -0.298,1.064 0.01,0.077 -0.063,0.288 -0.091,0.364 -0.137,0.367 -0.235,0.774 -0.312,1.156 -0.017,0.082 -0.087,0.168 -0.113,0.25 -0.016,0.054 -0.006,0.199 -0.033,0.247 l -0.047,0.026 c -0.003,0.04 0.006,0.083 0.016,0.122 0.3,-0.827 0.623,-1.618 0.874,-2.451 0.061,-0.207 0.179,-0.413 0.246,-0.618 0.089,-0.271 0.255,-0.589 0.314,-0.856 0.01,-0.044 -0.014,-0.099 0.006,-0.143 l 0.06,-0.045 c 0.096,-0.231 0.288,-0.625 0.256,-0.87 0.043,-0.026 0.088,-0.082 0.11,-0.128 0.134,-0.299 0.592,-1.56 0.645,-1.807 0.011,-0.052 -0.016,-0.098 0.011,-0.157 l 0.054,-0.041 c 0.104,-0.248 0.184,-0.508 0.28,-0.761 l -0.017,-0.089 c 0.003,-0.032 0.067,-0.094 0.087,-0.125 0.016,-0.026 0.281,-0.732 0.284,-0.758 0.038,0 0.047,0.023 0.045,0.032 -0.041,0.199 -0.052,0.4 -0.086,0.601 -0.01,0.057 0.022,0.134 0.007,0.203 -0.166,0.732 -0.304,1.422 -0.438,2.112 -0.061,0.319 -0.174,0.641 -0.224,0.96 -0.008,0.061 0.018,0.121 0.01,0.178 l -0.055,0.049 c -0.034,0.259 -0.233,1.101 -0.321,1.308 0.02,0.034 -0.341,1.465 -0.39,1.513 0.022,0.142 -0.107,0.35 -0.137,0.487 -0.075,0.338 -0.187,0.665 -0.25,0.995 -0.005,0.028 -0.01,0.146 -0.021,0.164 -0.096,0.169 -0.254,0.519 -0.237,0.722 -0.076,0.069 -0.837,2.061 -0.849,2.146 -0.005,0.044 0.013,0.095 0.007,0.141 -0.128,0.039 -0.41,0.936 -0.46,1.064 -0.159,0.413 -1.275,3.538 -1.477,3.702 0.002,0.202 -0.676,1.577 -0.783,1.808 -0.137,0.295 -0.327,0.622 -0.396,0.94 -0.027,0.028 -0.062,0.056 -0.087,0.088 -0.127,0.165 -0.2,0.461 -0.267,0.656 -0.022,0.061 -0.076,0.102 -0.099,0.152 -0.275,0.56 -0.555,1.12 -0.85,1.682 -0.077,0.148 -0.188,0.314 -0.217,0.478 -0.145,0.143 -0.332,0.723 -0.403,0.753 -0.111,0.425 -0.668,1.068 -0.841,1.566 -0.002,10e-4 -2.236,3.649 -2.42,3.926 -0.029,0.045 -0.065,0.111 -0.064,0.166 -0.168,0.155 -0.749,0.973 -0.754,1.141 -0.029,0.011 -0.809,1.007 -0.79,1.132 -0.09,0.038 -0.514,0.608 -0.587,0.728 -0.029,0.047 -0.01,0.125 -0.045,0.163 -0.02,-0.01 -0.05,0 -0.069,0.01 -0.147,0.188 -0.277,0.388 -0.422,0.577 -0.598,0.778 -1.202,1.551 -1.804,2.325 -0.378,0.486 -0.82,0.96 -1.169,1.467 -0.037,0.054 -0.213,0.321 -0.216,0.386 l 0.054,0.066 c 0.125,-0.036 0.73,-0.37 0.75,-0.45 0.328,-0.169 0.63,-0.4 0.944,-0.608 -0.108,0.244 -0.641,0.715 -0.644,0.814 -0.134,0.024 -0.389,0.297 -0.484,0.384 -0.023,0.02 -0.031,0.07 -0.057,0.092 -0.153,0.128 -0.7,0.478 -0.735,0.642 -0.294,0.144 -1.141,0.985 -1.221,1.224 -0.161,0.059 -1.064,1.117 -1.19,1.256 -0.009,0.024 -0.014,0.063 0,0.088 0.036,0.039 0.172,0.078 0.224,0.098 0.779,0.304 2.105,-1.003 2.609,-1.465 0.243,-0.222 0.55,-0.445 0.737,-0.712 0.033,-0.049 0.098,-0.058 0.141,-0.091 0.078,-0.057 0.894,-0.782 0.903,-0.871 0.175,-0.076 0.446,-0.351 0.582,-0.49 l 0.022,-0.087 c 0.191,-0.025 0.353,-0.25 0.484,-0.373 0.012,-0.012 0.019,-0.051 0.031,-0.067 0.035,-0.047 0.346,-0.274 0.397,-0.323 0.384,-0.36 0.754,-0.707 1.117,-1.091 0.009,-0.01 0.037,-0.082 0.044,-0.098 0.072,-0.043 0.17,-0.095 0.177,-0.188 0.2,-0.116 2.068,-2.133 2.072,-2.355 0.189,-0.119 0.656,-0.71 0.671,-0.883 0.025,0 0.093,-0.025 0.11,-0.044 0.265,-0.292 0.615,-0.819 0.846,-1.135 0.091,-0.125 0.153,-0.245 0.219,-0.384 0.025,-0.051 0.076,-0.054 0.106,-0.085 0.099,-0.102 0.548,-0.777 0.541,-0.859 0.145,-0.114 0.474,-0.564 0.482,-0.765 0.17,-0.123 0.395,-0.605 0.437,-0.625 0.007,-0.034 0.022,-0.068 0.037,-0.099 0.145,-0.051 0.085,-0.26 0.328,-0.334 l 0.023,-0.16 c 0.07,-0.037 0.097,-0.134 0.114,-0.205 0.09,-0.035 0.123,-0.341 0.261,-0.323 l 0.022,0.046 c -0.014,0.146 -0.228,0.591 -0.362,0.647 0.01,0.243 -0.176,0.401 -0.294,0.584 -0.022,0.034 -0.02,0.093 -0.043,0.133 -0.047,0.011 -0.524,0.789 -0.57,0.877 -0.024,0.046 -0.018,0.105 -0.051,0.151 -0.087,0.023 -0.242,0.266 -0.225,0.374 l -0.093,0.039 -0.242,0.373 c -0.024,0.038 -0.018,0.097 -0.052,0.136 -0.143,0.159 -0.252,0.331 -0.371,0.512 -0.023,0.037 -0.038,0.112 -0.057,0.154 -0.087,0.033 -0.425,0.591 -0.512,0.707 -0.161,0.215 -1.024,1.302 -1.016,1.459 -0.034,0 -0.086,0.025 -0.105,0.055 -0.01,0.046 -0.032,0.092 -0.053,0.133 -0.017,0.01 -0.066,0.035 -0.078,0.047 -0.273,0.291 -0.468,0.672 -0.721,0.981 -0.224,0.274 -0.46,0.541 -0.688,0.813 -0.085,0.1 -0.528,0.579 -0.526,0.684 -0.03,0.018 -0.076,0.039 -0.101,0.062 -0.304,0.267 -0.676,0.813 -0.961,1.129 -0.922,1.022 -1.887,2.012 -2.825,3.021 -0.029,0.03 -0.064,0.099 -0.054,0.143 l -0.067,-10e-4 -0.185,0.177 c 0.065,0.134 0.138,0.233 0.213,0.329 l 0.047,0.018 c 0.222,-0.099 1.191,-0.484 1.244,-0.663 0.138,-0.01 0.371,-0.147 0.417,-0.283 0.128,0.027 0.551,-0.338 0.655,-0.421 0.569,-0.457 1.102,-0.951 1.62,-1.464 1.476,-1.461 2.824,-3.226 4.171,-4.815 0.134,-0.159 1.205,-1.361 1.223,-1.557 0.118,-0.056 0.553,-0.605 0.564,-0.753 0.097,-0.04 1.107,-1.439 1.108,-1.51 0.028,-0.02 0.144,-0.158 0.14,-0.197 l 0.077,-0.064 0.022,-0.123 c 0.141,-0.073 0.198,-0.375 0.355,-0.439 0.019,-0.071 0.192,-0.353 0.241,-0.37 0.003,-0.032 0.111,-0.228 0.127,-0.251 l 0.062,-0.033 c 0.07,-0.067 0.106,-0.155 0.11,-0.221 0.051,-0.029 0.123,-0.136 0.138,-0.194 0.072,-0.041 0.245,-0.312 0.236,-0.37 l 0.063,-0.057 c 0.01,-0.051 0.022,-0.11 0.051,-0.156 l 0.059,-0.037 c 0.009,-0.06 0.139,-0.267 0.187,-0.288 0.011,-0.116 0.23,-0.392 0.303,-0.533 l 0.063,-0.036 c 0.063,-0.242 0.349,-0.592 0.478,-0.817 0.095,-0.164 0.197,-0.373 0.271,-0.554 l 0.051,-0.021 c 0.075,-0.098 0.475,-0.832 0.53,-0.928 0.565,-1.005 1.105,-2.038 1.607,-3.074 0.007,-0.015 0.471,-1.065 0.552,-1.12 0.016,-0.072 0.054,-0.13 0.061,-0.206 0.052,-0.037 0.067,-0.178 0.136,-0.243 -0.013,-0.071 0.033,-0.186 0.078,-0.239 l 0.047,-0.024 0.028,-0.142 0.068,-0.052 c 0.005,-0.071 0.277,-0.712 0.317,-0.738 0.016,-0.094 0.067,-0.17 0.086,-0.258 0.023,-0.014 0.053,-0.048 0.063,-0.073 0.035,-0.09 0.049,-0.178 0.074,-0.27 0.053,-0.197 0.396,-0.709 0.373,-0.87 0.168,-0.166 0.218,-0.677 0.369,-0.814 -0.003,-0.096 0.016,-0.129 0.086,-0.192 0.002,-0.076 0.244,-0.7 0.292,-0.748 -10e-4,-0.03 0.15,-0.491 0.168,-0.523 l 0.063,-0.035 c -0.003,-0.099 0.958,-2.471 1.053,-2.721 0.05,-0.134 0.137,-0.498 0.219,-0.587 -0.004,-0.199 0.153,-0.377 0.158,-0.59 l 0.057,-0.04 c 0.01,-0.063 0.187,-0.527 0.214,-0.548 -0.005,-0.101 0.925,-2.624 1.026,-2.922 0.058,-0.167 0.558,-1.699 0.597,-1.751 l 0.075,0.01 c 0.152,0.5 0.253,1.027 0.384,1.535 0.074,0.285 0.205,0.567 0.279,0.843 0.034,0.128 0.04,0.364 0.14,0.463 l 0.004,0.087 c 0.058,0.052 0.124,0.313 0.143,0.391 0.022,0.088 0.088,0.18 0.118,0.27 0.048,0.15 0.085,0.301 0.123,0.453 0.054,0.214 0.196,0.447 0.266,0.66 0.012,0.037 0.004,0.089 0.019,0.124 0.028,0.067 0.11,0.182 0.124,0.246 0.022,0.096 0.021,0.201 0.099,0.278 -0.005,0.067 0.006,0.151 0.032,0.213 0.137,0.098 0.091,0.329 0.205,0.453 0,0.254 0.256,0.526 0.239,0.779 0.067,0.064 0.086,0.196 0.091,0.282 l 0.043,0.058 0.008,0.124 c 0.156,0.145 0.069,0.471 0.225,0.624 0.002,0.032 0.016,0.061 0.029,0.089 0.078,0.182 0.086,0.371 0.137,0.561 l 0.034,0.127 c 0.039,0.118 0.135,0.239 0.168,0.36 0.033,0.12 0.028,0.297 0.069,0.405 0.015,0.042 0.056,0.124 0.084,0.158 0,0.043 10e-4,0.086 0.006,0.128 l 0.041,0.058 c -0.007,0.061 0.047,0.238 0.094,0.285 l 0.007,0.126 c 0.104,0.084 0.129,0.351 0.141,0.469 l 0.062,0.035 c 0.02,0.133 0.071,0.499 0.166,0.595 -0.004,0.077 -0.006,0.128 0.047,0.188 -0.006,0.083 0.087,0.417 0.142,0.47 l 0.008,0.124 c 0.098,0.085 0.046,0.254 0.132,0.345 l 0.009,0.124 c 0.047,0.044 0.096,0.224 0.088,0.282 0.108,0.101 0.249,0.924 0.327,1.007 0.002,0.097 0.124,0.614 0.208,0.651 0.018,0.047 -0.006,0.114 0.005,0.14 0.023,0.057 0.076,0.115 0.061,0.182 0.058,0.032 0.24,0.746 0.247,0.843 0.053,0.043 0.151,0.41 0.139,0.468 0.106,0.087 0.056,0.266 0.139,0.36 l 0.002,0.106 c 0.09,0.081 0.081,0.247 0.105,0.352 0.042,0.196 0.192,0.373 0.219,0.576 0.005,0.039 -0.007,0.089 0.013,0.125 0.038,0.068 0.108,0.168 0.121,0.243 0.123,0.724 0.455,1.606 0.72,2.305 0.322,0.852 0.621,1.704 0.983,2.539 l 0.558,1.285 c 0.045,0.101 0.064,0.192 0.158,0.26 0.025,0.054 0.004,0.109 0.024,0.156 0.432,1.019 0.848,2.033 1.25,3.063 l 0.199,0.5 c 0.051,0.13 0.159,0.278 0.194,0.398 -0.023,0.08 0.046,0.273 0.112,0.291 0.054,0.547 1.428,3.474 1.415,3.62 l 0.074,0.059 c 0,0.049 0.017,0.166 0.058,0.201 -0.012,0.182 0.146,0.172 0.148,0.408 0.038,0.029 0.754,1.751 0.796,1.836 l 0.058,0.04 c -0.016,0.12 0.589,1.417 0.702,1.473 0.007,0.097 0.593,1.278 0.71,1.455 l 0.063,0.033 c 0.073,0.088 0.071,0.223 0.13,0.327 0.194,0.344 2.074,3.569 2.325,3.627 0.221,0.531 1.341,1.584 1.77,1.937 0.063,0.051 0.191,0.081 0.262,0.146 0.022,0.019 0.032,0.068 0.055,0.087 0.178,0.149 0.461,0.219 0.657,0.062 0.141,-0.341 0.026,-0.874 -0.122,-1.209 -0.066,-0.146 -0.455,-1.108 -0.554,-1.152 -0.015,-0.121 -0.592,-1.39 -0.672,-1.406 -0.003,-0.128 -1.431,-3.135 -1.587,-3.477 -0.054,-0.119 -0.247,-0.631 -0.337,-0.658 -0.028,-0.285 -0.262,-0.706 -0.426,-0.951 -0.031,-0.045 -0.015,-0.112 -0.034,-0.156 -0.192,-0.427 -0.377,-0.86 -0.575,-1.284 -0.197,-0.421 -0.392,-0.816 -0.568,-1.232 -0.115,-0.273 -0.297,-0.488 -0.383,-0.762 l -0.057,-0.046 c -0.016,-0.084 -0.203,-0.351 -0.138,-0.436 l 0.198,0.013 0.052,0.053 c 0.143,-0.01 0.373,0.101 0.534,0.132 0.1,0.263 0.389,0.643 0.438,0.899 l 0.054,0.041 c 0.027,0.047 0.018,0.107 0.038,0.154 0.046,0.11 0.111,0.22 0.164,0.327 0.08,0.158 0.446,0.999 0.552,1.015 0.002,0.336 2.679,5.583 3.008,5.658 0.003,0.083 0.049,0.168 0.093,0.235 0.066,0.101 1.039,1.591 1.124,1.636 h 0.05 c 0.022,0.147 0.592,0.949 0.687,0.946 0.074,0.199 0.607,0.79 0.759,0.959 0.103,0.115 0.201,0.187 0.308,0.287 10e-4,0.182 1.127,1.203 1.211,1.202 0.047,0.2 0.755,0.748 0.986,0.858 0.046,0.139 1.523,1.197 1.759,1.205 0.134,0.126 0.584,0.37 0.779,0.287 0.09,-0.33 -0.694,-1.273 -0.943,-1.277 -0.092,-0.198 -0.802,-0.842 -1.066,-0.938 -0.016,-0.041 -0.098,-0.075 -0.135,-0.084 -0.058,-0.107 -0.682,-0.585 -0.768,-0.572 -0.009,-0.154 -0.469,-0.472 -0.604,-0.583 -0.015,-0.012 -0.038,-0.075 -0.057,-0.092 -0.39,-0.36 -0.747,-0.737 -1.019,-1.196 l -0.116,-0.044 c -0.004,-0.209 -0.192,-0.38 -0.305,-0.542 -0.376,-0.536 -0.638,-2.003 -0.851,-2.657 -0.015,-0.051 -0.05,-0.123 -0.1,-0.15 0.006,-0.146 -0.25,-0.877 -0.333,-1.001 l -0.06,-0.054 c 0.05,-0.131 -0.701,-2.042 -0.834,-2.331 -0.462,-1.001 -1.095,-1.929 -1.676,-2.868 -0.071,-0.112 -0.644,-1.149 -0.805,-1.172 -0.045,-0.217 -0.609,-0.748 -0.581,-1.011 0.2,-0.064 0.671,0.148 0.969,0.115 0.137,-0.015 0.317,-0.099 0.447,-0.141 0.044,-0.014 0.091,-0.121 0.189,-0.047 l 0.053,-0.011 c 0.646,0.067 1.593,3.237 1.96,3.487 0.022,0.156 0.12,0.432 0.227,0.529 l 0.063,0.026 c 0.025,0.2 0.343,0.689 0.514,0.772 0.049,-0.214 0.075,-0.427 0.059,-0.634 -0.018,-0.254 -0.318,-1.629 -0.424,-1.873 l -0.047,-0.033 c -0.014,-0.056 -10e-4,-0.104 -0.007,-0.155 -0.022,-0.209 -0.15,-0.505 -0.225,-0.707 -0.04,-0.123 -0.059,-0.278 -0.149,-0.327 -0.028,-0.063 10e-4,-0.125 -0.013,-0.158 -0.236,-0.571 -0.436,-1.149 -0.715,-1.704 -0.21,-0.417 -0.523,-0.833 -0.784,-1.213 -0.069,-0.1 -0.219,-0.37 -0.321,-0.404 -0.018,-0.102 -0.053,-0.184 -0.106,-0.273 -0.059,-0.099 -0.302,-0.451 -0.341,-0.548 -0.148,-0.379 -0.261,-0.801 -0.429,-1.172 -0.013,-0.03 -0.041,-0.067 -0.072,-0.082 -0.043,-0.087 0.019,-0.305 -0.125,-0.364 -0.03,-0.076 -0.011,-0.151 -0.041,-0.234 l -0.231,-0.65 c -0.044,-0.124 -0.322,-0.81 -0.323,-0.816 l 0.018,-0.051 c -0.063,-0.176 -0.108,-0.265 -0.182,-0.392 -0.03,-0.051 0.008,-0.105 -0.004,-0.137 -0.183,-0.467 -1.394,-4.044 -1.509,-4.145 l 0.011,-0.124 c -0.039,-0.018 -0.069,-0.102 -0.074,-0.139 l 0.019,-0.053 c -0.06,-0.193 -0.647,-2.691 -0.704,-2.725 0.017,-0.169 -0.523,-2.014 -0.504,-2.145 -0.058,-0.064 -0.234,-0.817 -0.251,-0.95 -0.06,-0.129 -0.142,-0.464 -0.2,-0.535 0.002,-0.02 -0.024,-0.221 -0.03,-0.233 l -0.046,-0.033 c 0.013,-0.146 -0.093,-0.289 -0.088,-0.432 -0.046,-0.038 -0.15,-0.408 -0.143,-0.463 -0.036,-0.035 -0.193,-0.503 -0.192,-0.563 -0.006,0 -0.543,-1.302 -0.665,-1.529 -0.077,-0.379 -1.132,-2.234 -1.121,-2.417 -0.073,-0.06 -0.428,-0.979 -0.472,-1.149 l -0.046,-0.033 c -0.039,-0.264 -0.196,-0.466 -0.265,-0.717 -0.015,-0.058 -0.005,-0.122 -0.031,-0.179 -0.094,-0.214 -0.363,-0.839 -0.357,-0.943 -0.063,-0.054 -0.399,-1.127 -0.466,-1.32 -0.486,-1.386 -0.938,-2.791 -1.34,-4.204 -0.154,-0.545 -0.312,-1.085 -0.451,-1.634 -0.022,-0.086 -0.104,-0.21 -0.11,-0.284 -0.038,-0.419 -0.2,-0.913 -0.305,-1.332 -0.068,-0.27 -0.149,-0.541 -0.197,-0.816 -0.127,-0.124 -0.185,-1.44 -0.35,-1.57 -0.019,-0.08 0.028,-0.117 0.023,-0.173 -0.027,-0.262 -0.023,-0.537 -0.066,-0.795 -0.067,-0.172 -0.018,-0.221 -0.012,-0.338 h 0.043 c 0.206,0.159 0.715,1.892 0.841,2.256 0.127,0.364 0.241,0.763 0.396,1.112 0.216,0.494 0.502,0.963 0.727,1.454 0.089,0.193 0.141,0.446 0.206,0.654 0.144,0.46 0.299,0.919 0.441,1.379 0.161,0.523 0.334,1.044 0.497,1.564 0.045,0.144 0.726,2.36 0.779,2.414 0.026,0.14 0.247,0.887 0.307,1.02 0.021,0.05 0.062,0.096 0.077,0.155 0.124,0.487 1.161,3.586 1.145,3.697 0.169,0.176 0.332,1.305 0.485,1.373 -0.02,0.084 10e-4,0.202 0.027,0.285 0.037,0.122 0.128,0.251 0.17,0.381 0.1,0.306 0.185,0.633 0.261,0.941 0.041,0.163 0.127,0.326 0.18,0.487 0.028,0.083 0.03,0.192 0.06,0.279 0.013,0.036 0.057,0.067 0.068,0.108 0.077,0.267 0.155,0.519 0.25,0.784 0.03,0.08 0.023,0.19 0.054,0.261 0.1,0.236 0.215,0.516 0.269,0.771 0.01,0.051 -0.003,0.115 0.022,0.163 0.172,0.323 0.342,1.063 0.472,1.471 l 0.968,3.05 c 0.165,0.514 0.375,1.052 0.497,1.576 0.054,0.232 0.085,0.473 0.155,0.701 0.044,0.143 0.084,0.218 0.171,0.33 0.012,0.016 0.009,0.15 0.025,0.197 0.028,0.076 0.11,0.144 0.122,0.213 0.01,0.049 -0.004,0.095 0.016,0.146 0.176,0.451 0.337,0.901 0.519,1.349 l 0.076,0.044 c 0.197,0.033 0.326,-0.44 0.547,-0.386 0.178,0.145 0.566,1.567 0.652,1.843 0.006,0.017 0.063,0.052 0.065,0.086 0.02,0.407 0.743,2.387 0.924,2.747 0.032,0.063 0.21,0.437 0.247,0.474 0.103,0.106 0.817,0.899 0.937,0.89 0.078,0.149 0.17,0.279 0.309,0.384 0.22,0.085 0.316,-0.687 0.319,-0.744 0.017,-0.255 0.017,-0.527 0.002,-0.781 -0.013,-0.207 -0.218,-1.658 -0.333,-1.732 -0.018,-0.069 0,-0.13 -0.007,-0.196 -0.035,-0.286 -0.15,-0.63 -0.221,-0.914 -0.014,-0.052 -0.072,-0.099 -0.072,-0.143 0,-0.181 -0.047,-0.342 -0.089,-0.519 l -0.035,-0.144 c -0.011,-0.026 -0.076,-0.058 -0.072,-0.102 0.003,-0.028 0.026,-0.08 0.024,-0.107 -0.016,-0.271 -0.345,-1.449 -0.419,-1.746 -0.008,-0.033 -0.039,-0.06 -0.067,-0.076 -0.024,-0.038 -10e-4,-0.141 -0.017,-0.199 -0.09,-0.328 -0.24,-0.652 -0.334,-0.984 -0.142,-0.498 -0.298,-0.993 -0.433,-1.492 l -0.044,-0.037 c 0.024,-0.365 -1.095,-3.533 -1.234,-3.596 0.031,-0.175 -1.191,-3.034 -1.372,-3.473 -0.017,-0.039 -0.058,-0.085 -0.098,-0.1 -0.03,-0.062 -0.032,-0.248 -0.073,-0.349 -0.165,-0.412 -1.161,-2.985 -1.129,-3.261 -0.049,-0.045 -0.367,-1.595 -0.375,-1.799 0,-0.016 -0.037,-0.079 -0.04,-0.115 -0.027,-0.387 -0.12,-0.761 -0.151,-1.161 -0.002,-0.031 -0.015,-0.074 -0.039,-0.098 0.023,-0.139 -0.07,-0.435 -0.094,-0.585 -0.105,-0.655 -0.208,-1.303 -0.382,-1.946 -0.131,-0.483 -0.45,-0.906 -0.637,-1.368 -0.042,-0.103 -0.313,-0.837 -0.403,-0.893 -0.027,-0.31 -1.072,-2.751 -1.32,-3.351 -0.032,-0.077 -0.107,-0.32 -0.175,-0.34 -0.048,-0.343 -0.579,-1.514 -0.744,-1.928 -0.573,-1.43 -1.167,-2.85 -1.739,-4.28 -0.115,-0.289 -0.251,-0.572 -0.365,-0.86 -0.042,-0.105 -0.047,-0.233 -0.082,-0.34 -0.026,-0.079 -0.021,-0.141 -0.091,-0.2 -0.012,-0.058 -0.01,-0.127 0.006,-0.184 -0.163,-0.286 -0.493,-2.516 -0.662,-2.631 -0.016,-0.049 0.005,-0.095 0.002,-0.144 -0.006,-0.123 -0.078,-0.311 -0.109,-0.436 -0.12,-0.489 -0.266,-0.974 -0.41,-1.457 l -0.082,-0.258 -0.057,-0.047 c 0.034,-0.31 -0.803,-2.236 -0.928,-2.294 -0.077,-0.163 -0.218,-0.576 -0.379,-0.619 -0.146,-0.343 -1.161,-1.561 -1.552,-1.607 -0.05,-0.108 -0.342,-0.282 -0.48,-0.278 -0.07,-0.116 -0.248,-0.211 -0.388,-0.185 -0.062,-0.207 -0.837,-0.263 -0.903,-0.346 -0.172,-0.019 -0.334,-0.023 -0.499,-0.04 -0.111,-0.097 -0.991,-0.091 -1.084,-0.043 m 0.386,3.825 c -0.089,0.09 -0.215,0.1 -0.327,0.157 -0.376,0.193 -0.603,0.648 -0.716,1.039 -0.041,0.14 -0.064,0.232 -0.069,0.373 -0.078,0.085 -0.272,0.962 -0.248,1.075 0.14,0.172 0.321,0.303 0.513,0.411 0.104,0.172 0.154,0.993 0.107,1.13 l -0.058,0.014 c -0.028,-0.064 -0.126,-0.153 -0.139,-0.207 -0.041,-0.184 -0.081,-0.291 -0.174,-0.45 -0.026,-0.047 -0.006,-0.105 -0.025,-0.155 -0.08,-0.212 -0.153,-0.44 -0.25,-0.646 -0.074,0.084 -0.067,0.252 -0.107,0.342 -0.171,0.379 -0.204,0.805 -0.353,1.191 l -0.044,0.029 c -0.037,0 -0.328,-0.222 -0.386,-0.265 -0.049,-0.094 0.689,-2.238 0.784,-2.554 0.128,-0.43 0.365,-0.779 0.638,-1.123 0.099,-0.124 0.324,-0.162 0.416,-0.306 0.061,-0.029 0.373,-0.056 0.438,-0.055 m 1.848,2.249 0.049,0.01 c 0.223,0.398 0.253,0.19 0.524,0.428 0.12,0.105 0.394,0.812 0.397,0.977 0.002,0.095 -0.101,0.156 -0.161,0.205 -0.04,0.034 -0.279,0.25 -0.315,0.239 -0.191,-0.515 -0.224,-1.093 -0.436,-1.587 -0.035,-0.081 -0.021,-0.184 -0.058,-0.271 m -0.078,0.244 c -0.012,0.139 -0.607,2.105 -0.671,2.225 -0.076,0.058 -0.544,0.185 -0.653,0.128 l -0.012,-0.049 c 0.15,-0.317 0.306,-1.232 0.437,-1.637 0.125,-0.08 0.265,-0.134 0.391,-0.211 0.2,-0.122 0.342,-0.298 0.508,-0.456 m -4.29,2.636 c 0.084,0.262 0.214,0.588 0.214,0.846 0,0.037 -0.506,1.953 -0.558,2.083 l -0.044,-0.064 c -0.021,-0.102 -0.055,-0.215 -0.066,-0.319 -0.026,-0.234 0.261,-1.194 0.249,-1.589 0.072,-0.074 0.186,-0.843 0.205,-0.957 m 5.641,0.054 c 0.044,0.052 0.097,0.109 0.099,0.151 0.016,0.295 0.081,0.575 0.14,0.866 0.003,0.015 0.047,0.044 0.047,0.075 0.005,0.29 0.526,3.092 0.644,3.169 -0.01,0.234 0.106,0.387 0.11,0.444 0.061,0.965 0.497,1.925 0.605,2.881 0.084,0.055 0.046,0.304 0.06,0.394 -0.099,-0.087 -0.243,-0.632 -0.295,-0.663 -0.014,-0.272 -0.766,-2.624 -0.898,-3.053 -0.044,-0.195 -0.074,-0.251 -0.147,-0.372 -0.026,-0.297 -0.145,-0.577 -0.218,-0.868 -0.096,-0.387 -0.173,-0.782 -0.266,-1.17 -0.041,-0.166 -0.173,-0.547 -0.163,-0.706 0.02,-0.293 0.204,-0.852 0.282,-1.148 m -6.395,3.531 0.08,0.01 c 0.007,0.14 0.075,0.249 0.054,0.394 -0.031,0.224 -0.134,0.414 -0.138,0.648 -0.083,0.067 -0.205,0.63 -0.224,0.705 -0.126,0.48 -0.351,1.105 -0.427,1.588 -0.007,0.044 0.017,0.093 -0.003,0.141 -0.1,0.237 -0.171,0.45 -0.189,0.715 -0.131,0.109 -0.147,0.614 -0.196,0.716 -0.084,0.174 -0.124,0.338 -0.176,0.53 -0.007,0.025 -0.006,0.135 -0.007,0.167 -0.074,0.059 -0.23,0.719 -0.267,0.862 -0.131,0.512 -0.27,1.022 -0.413,1.529 -0.1,0.356 -0.169,0.729 -0.286,1.079 -0.172,0.516 -0.39,1.03 -0.581,1.54 -0.103,0.273 -0.258,0.578 -0.322,0.859 -0.011,0.045 0,0.095 -0.015,0.143 -0.11,0.106 -0.06,0.11 -0.093,0.241 -0.041,0.021 -0.072,0.141 -0.079,0.181 l -0.061,0.055 -0.075,-0.033 0.021,-0.142 0.052,-0.049 c -0.002,-0.254 0.202,-0.686 0.234,-0.982 0.059,-0.042 1.008,-3.56 1.096,-3.887 0.039,-0.145 0.097,-0.299 0.124,-0.445 0.008,-0.044 -0.026,-0.102 0,-0.147 0.109,-0.052 0.263,-0.837 0.283,-0.977 0.128,-0.127 0.157,-0.486 0.182,-0.663 0.008,-0.063 0.054,-0.082 0.061,-0.105 0.341,-1.16 0.648,-2.329 1.002,-3.485 0.119,-0.391 0.27,-0.789 0.363,-1.186 m 3.377,7.407 c 0.141,0.441 0.284,1.109 0.481,1.524 -0.018,0.152 0.458,2.008 0.564,2.171 -0.011,0.148 0.204,1.057 0.269,1.092 0.01,0.206 0.062,0.483 0.134,0.679 0.019,0.052 0.053,0.09 0.063,0.149 0.067,0.402 0.844,3.463 0.784,3.568 l -0.062,0.029 c -0.029,10e-4 -0.062,-0.024 -0.08,-0.044 -0.09,-0.24 -0.27,-0.444 -0.358,-0.689 -0.187,-0.527 -0.332,-1.074 -0.481,-1.613 -0.075,-0.268 -0.185,-0.535 -0.258,-0.807 -0.074,-0.274 -0.694,-2.486 -0.761,-2.53 -0.005,-0.187 -0.411,-1.499 -0.486,-1.726 -0.023,-0.065 -0.19,-0.489 -0.19,-0.509 -0.01,-0.272 0.293,-1.021 0.381,-1.294 m -10.416,7.581 0.021,0.055 c -0.062,0.147 -0.243,0.767 -0.34,0.837 -0.014,0.043 -10e-4,0.087 -0.011,0.126 -0.065,0.275 -0.184,0.597 -0.306,0.852 l -0.044,0.028 c 0.005,-0.11 0.588,-1.877 0.68,-1.898 m -0.802,2.174 0.045,-0.171 0.047,0.01 c 0.023,0.054 -0.008,0.101 -0.032,0.149 l -0.049,0.023 z m -0.025,0.26 -0.034,-0.126 0.059,0.038 z m -0.132,0.2 0.01,-0.057 c -0.072,0.246 -0.102,0.468 -0.179,0.684 -0.141,0.391 -0.296,0.753 -0.414,1.148 -0.027,0.09 -0.094,0.182 -0.125,0.276 -0.068,0.214 -0.176,0.435 -0.235,0.655 -0.009,0.036 0.003,0.075 -0.014,0.11 l -0.056,0.049 c -0.035,0.148 -0.514,1.456 -0.61,1.499 -0.005,0.158 -0.742,2.021 -0.834,2.065 -0.031,0.151 -0.07,0.394 -0.198,0.492 -0.005,0.142 -0.068,0.291 -0.138,0.414 l -0.044,0.026 c -0.038,0.339 -0.276,0.595 -0.327,0.909 l -0.055,0.05 c -0.032,0.067 -0.025,0.142 -0.042,0.212 -0.049,0.197 -0.27,0.588 -0.377,0.758 -0.146,0.229 -1.035,1.558 -1.08,1.714 -0.042,0.017 -0.085,0.078 -0.099,0.118 l -0.024,-0.073 c 0.156,-0.237 0.619,-1.377 0.71,-1.463 -0.01,-0.073 0.157,-0.369 0.211,-0.45 0.054,-0.081 0.194,-0.485 0.231,-0.542 0.238,-0.368 0.508,-1.102 0.697,-1.539 0.106,-0.246 0.21,-0.492 0.318,-0.737 0.079,-0.175 0.163,-0.469 0.275,-0.624 0.027,-0.039 0.066,-0.064 0.082,-0.115 0.091,-0.288 0.265,-0.842 0.46,-1.037 0.015,-0.041 0.002,-0.086 0.008,-0.128 0.014,-0.108 0.513,-1.272 0.614,-1.36 0.044,-0.37 0.506,-1.072 0.536,-1.39 0.159,-0.123 0.566,-1.579 0.699,-1.664 m -4.893,11.267 -0.044,-0.011 c 0.012,-0.033 0.045,-0.083 0.078,-0.098 -0.003,0.037 -0.015,0.078 -0.034,0.109 m -0.078,0.053 0.026,0.051 z m 3.851,1.955 c 0.015,0.073 -0.08,0.24 -0.13,0.27 0.029,-0.122 0.084,-0.194 0.13,-0.27 m -5.686,1.121 c -0.032,0.165 -0.108,0.278 -0.171,0.403 -0.038,-0.102 0.132,-0.335 0.171,-0.403 m -0.266,0.492 c -0.081,0.168 -0.161,0.305 -0.248,0.436 l -0.049,0.019 -0.007,-0.044 c 0.031,-0.047 0.224,-0.394 0.304,-0.411 m -0.363,0.554 -0.009,0.077 c -0.036,-0.036 -0.028,-0.066 -0.014,-0.084 z m -0.219,0.366 -0.001,-0.053 c 0.013,-0.033 0.063,-0.116 0.104,-0.123 l -0.08,0.178 z m -0.167,0.235 0.007,0.045 -0.113,0.172 -0.045,0.017 c 0.013,-0.052 0.108,-0.215 0.151,-0.234 m -2.009,3.037 c -0.059,0.169 -0.198,0.336 -0.27,0.502 l -0.043,0.011 c -0.034,-0.088 0.257,-0.436 0.313,-0.513 m -0.43,0.61 0.046,-0.01 0.007,0.054 c -0.094,0.211 -0.699,1.177 -0.897,1.199 l 10e-4,-0.06 c 0.106,-0.183 0.715,-1.081 0.843,-1.186 m 40.942,8.194 c -0.058,-0.019 -0.133,-0.083 -0.159,-0.138 h -0.053 l -0.061,0.038 -0.022,0.099 c 0.033,0.12 0.203,0.617 0.288,0.666 -10e-4,0.157 0.312,1.008 0.439,1.063 -0.085,-0.807 -0.028,-0.998 -0.432,-1.726 m 2.371,5.532 -0.063,-0.031 c 0.116,0.303 0.276,0.584 0.453,0.829 0.136,0.188 0.683,0.951 0.91,1.017 l 0.048,0.113 0.128,0.064 c 0.042,0.107 0.054,0.155 0.176,0.188 0.088,0.135 0.248,0.361 0.417,0.376 0.054,0.124 0.297,0.355 0.429,0.379 0.115,0.269 0.937,0.749 0.95,0.848 0.484,0.399 0.943,0.825 1.488,1.136 0.037,0.021 0.046,0.074 0.074,0.098 0.142,0.13 0.484,0.36 0.661,0.369 l 0.042,0.056 c 0.042,0.017 0.089,0.03 0.134,0.036 0.014,-0.058 -0.307,-0.465 -0.319,-0.477 -0.242,-0.242 -1.141,-1.182 -1.455,-1.264 -0.051,-0.187 -0.145,-0.121 -0.241,-0.206 -0.044,-0.12 -0.743,-0.71 -0.826,-0.728 -0.03,-0.106 -0.669,-0.747 -0.76,-0.758 -0.04,-0.149 -1.001,-1.21 -1.136,-1.216 -0.004,-0.03 -0.039,-0.125 -0.057,-0.145 -0.163,-0.174 -0.606,-0.699 -0.821,-0.747 -0.139,-0.031 -0.18,0.077 -0.232,0.063" style="fill:#ffffff;fill-opacity:1;fill-rule:evenodd;stroke:none" id="path2415-9"></path>
      </g>
      <text transform="scale(1,-1)" y="-28.041882" x="550.67163" style="font-style:normal;font-variant:normal;font-weight:normal;font-stretch:normal;font-size:3.15419px;font-family:Avenir;-inkscape-font-specification:&#39;Avenir, Normal&#39;;font-variant-ligatures:normal;font-variant-caps:normal;font-variant-numeric:normal;font-variant-east-asian:normal;writing-mode:lr-tb;display:inline;fill:#ffffff;fill-opacity:1;fill-rule:nonzero;stroke:none;stroke-width:0.315419" id="text3603-2-7-1-6-4"><tspan id="tspan25893-8" y="-28.041882" x="550.67163" style="font-style:normal;font-variant:normal;font-weight:bold;font-stretch:normal;font-size:3.15419px;font-family:Avenir;-inkscape-font-specification:&#39;Avenir Bold&#39;;fill:#ffffff;fill-opacity:1;stroke-width:0.315419">DOP VALTIENDAS</tspan><tspan id="tspan25891-0" y="-24.027693" x="550.67163" style="font-size:3.15419px;fill:#ffffff;fill-opacity:1;stroke-width:0.315419"></tspan></text>
    </g>
  </g>
</svg>