<?xml version="1.0"?>


<svg version="1.1" id="svg1" width="50.200001" height="56.693333" viewBox="0 0 50.200001 56.693333" xmlns:inkscape="http://www.inkscape.org/namespaces/inkscape" xmlns:sodipodi="http://sodipodi.sourceforge.net/DTD/sodipodi-0.dtd" xmlns="http://www.w3.org/2000/svg" xmlns:svg="http://www.w3.org/2000/svg">
  <defs id="defs1"></defs>
  <namedview id="namedview1" pagecolor="#ffffff" bordercolor="#000000" borderopacity="0.25" showgrid="false">
    <page x="0" y="0" id="page1" width="50.200001" height="56.693333" margin="0" bleed="0"></page>
  </namedview>
  <g id="g1">
    <path id="path1" d="m 168.453,385.539 h 88.625 c 18.875,-21.031 30.313,-48.82 30.313,-79.293 0,-30.094 -11.172,-57.586 -29.598,-78.531 -3.281,-0.41 -6.594,-0.633 -9.949,-0.633 -14.43,0 -27.922,3.863 -39.571,10.574 23.606,13.735 39.485,39.301 39.485,68.586 0,43.75 -35.445,79.207 -79.149,79.301" style="fill:#000000;fill-opacity:1;fill-rule:nonzero;stroke:none" transform="matrix(0.13333333,0,0,-0.13333333,0,56.693333)"></path>
    <path id="path2" d="m 208.273,237.656 c -11.699,-6.797 -25.312,-10.703 -39.82,-10.703 -43.797,0 -79.3085,35.5 -79.3085,79.293 0,43.793 35.5115,79.293 79.3085,79.293 h 0.152 88.473 c -21.754,24.344 -53.406,39.656 -88.625,39.656 -65.68,0 -118.9452,-53.254 -118.9452,-118.949 0,-65.695 53.2652,-118.945 118.9452,-118.945 35.598,0 67.539,15.648 89.34,40.414 -3.281,-0.41 -6.594,-0.633 -9.949,-0.633 -14.43,0 -27.922,3.863 -39.571,10.574" style="fill:#ffffff;fill-opacity:1;fill-rule:nonzero;stroke:none" transform="matrix(0.13333333,0,0,-0.13333333,0,56.693333)"></path>
    <path id="path3" d="m 168.617,306.316 v 0 c 0,-29.359 15.942,-54.976 39.656,-68.66 23.606,13.735 39.485,39.301 39.485,68.586 0,43.75 -35.445,79.207 -79.149,79.301 v -79.227 h 0.008" style="fill:#ffffff;fill-opacity:1;fill-rule:nonzero;stroke:none" transform="matrix(0.13333333,0,0,-0.13333333,0,56.693333)"></path>
    <path id="path4" d="m 257.082,385.539 c 18.871,-21.031 30.309,-48.82 30.309,-79.293 0,-30.094 -11.172,-57.586 -29.598,-78.531 39.051,4.902 69.273,38.215 69.273,78.601 v 79.223 h -69.984" style="fill:#ffffff;fill-opacity:1;fill-rule:nonzero;stroke:none" transform="matrix(0.13333333,0,0,-0.13333333,0,56.693333)"></path>
    <path id="path5" d="m 274.652,72.582 c 2.125,-0.6172 8.078,3.3164 12.602,18.1055 0.633,2.0977 1.812,4.4297 2.121,6.5625 0.598,3.949 -0.461,7.902 0.309,11.93 0.734,4.082 2.937,6.465 5.671,9.336 3.036,3.172 8.153,6.086 14.52,4.832 2.676,-0.532 6.48,-3.594 8.238,-5.532 2.59,-2.882 3.692,-4.64 3.692,-4.64 0,0 7.781,4.277 9.758,8.379 1.257,2.578 1.769,4.879 3.386,6.433 3.446,3.34 9.438,0.844 9.981,-2.883 0.207,-1.351 0.207,-2.636 0.293,-3.835 0.07,-1.2 -0.028,-2.352 0,-3.832 0.125,-8.418 2.535,-12.938 3.484,-16.043 0.598,-1.9419 1.477,-5.727 1.477,-5.727 0,0 2.48,1.5195 3.484,2.0664 1.367,0.7734 6.566,3.6286 10.617,5.4646 1.828,0.84 4.953,2.442 7.449,2.559 3.036,0.144 4.317,-1.172 4.75,-3.84 0.235,-1.281 -0.207,-3.1407 -1.019,-4.1953 -1.375,-1.7852 -9.207,-4.2266 -13.738,-6.7383 -3.164,-1.7461 -7.305,-4.1953 -9.45,-6.2305 1.379,-8.2734 1.239,-18.0273 -1.371,-25.3398 -1.601,-4.5039 -5.183,-8.8907 -9.238,-11.2305 -2.801,-1.5977 -5.988,-3.4961 -11.234,-2.8398 -1.379,0.1679 -2.985,0.6914 -4.305,1.4375 -3.484,1.9609 -4.684,4.9765 -4.516,11.2187 0.211,7.1641 7.332,16.6719 9.535,19.4805 2.27,2.8906 4.629,5.8242 7.54,8.6562 0.96,0.9492 2.085,2.3321 2.085,2.3321 0,0 -0.207,2.746 -1.199,6.0234 -1.082,3.625 -2.031,6.0308 -2.976,10.2378 -0.293,1.297 -1.078,5.415 -1.078,5.415 0,0 -2.856,-2.606 -5.137,-4.364 -1.555,-1.195 -6.528,-4.656 -6.528,-4.656 0,0 -0.878,-6.6289 -1.488,-9.1602 -0.754,-3.2187 -1.449,-5.6484 -2.406,-9.0859 -1.023,-3.6484 -2.141,-6.7656 -3.563,-9.8125 -0.746,-1.6758 -2.328,-5.1406 -4.109,-7.543 -1.476,-1.9687 -4.226,-4.5078 -6.105,-4.832 -2.465,-0.4219 -5.536,-0.1484 -7.68,1.1289 -2.887,1.7149 -5.07,5.836 -6.133,9.5391 -0.308,1.1367 -0.5,2.9765 -1.285,3.1289 -1.07,0.2109 -1.809,-1.5274 -2.543,-2.8438 -1.387,-2.4687 -2.336,-3.1875 -3.711,-5.3945 -0.656,-1.0781 -7.012,-9.0156 -14.383,-7.3906 -1.719,0.3633 -2.609,0.8867 -4.125,1.1289 -1.273,0.207 -2.707,-0.3242 -3.988,-0.2891 -4.059,0.0977 -9.211,1.8281 -11.418,4.125 -6.426,6.7617 -6.398,17.7383 -7.23,30.2813 -0.125,1.832 -0.098,5.8672 -0.696,5.9065 -1.297,-0.0354 -3.129,-3.9378 -3.629,-5.2854 -1.531,-4.1719 -2.422,-10.0586 -3.269,-19.6055 -0.172,-1.9141 -0.172,-6.3281 -0.504,-8.1758 -0.309,-1.75 -0.375,-3.6719 -1.129,-4.6914 -0.867,-1.1562 -3.207,-2.0586 -4.836,-1.8437 -1.187,0.1484 -2.844,0.6445 -3.762,1.7304 -0.715,0.8203 -1.004,1.6875 -1.175,2.6875 -0.333,1.8985 -0.208,6.5157 -0.18,8.5196 0.14,8.0273 -0.731,17.1679 -1.02,21.6718 -0.109,1.5157 -0.859,5.1755 -1.699,5.3515 -1.226,0.246 -1.488,-2.8866 -1.84,-4.1327 -0.429,-1.5117 -3.195,-11.2774 -4.695,-14.6406 -1.363,-3.0625 -2.524,-6.0118 -4.125,-9.0899 -0.895,-1.7265 -3.301,-4.2773 -3.977,-4.9805 -3.394,-3.5312 -9.73,-7.2187 -16.5,-6.6992 -3.191,0.2578 -6.523,1.8164 -8.949,3.5586 -3.258,2.336 -5.922,6.1641 -7.555,10.375 -0.957,2.543 -1.96,5.0391 -1.96,8.6797 0,3.6719 0.433,9.0703 1.855,12.9531 2.629,7.0855 5.195,12.8825 14.047,16.4765 1.699,0.68 6.551,1.594 8.976,1.285 2.676,-0.355 5.766,-3.023 6.789,-4.273 2.774,-3.242 3.868,-8.973 2.571,-14.0666 -0.899,-3.5391 -6.946,-10.125 -8.231,-11.375 -2.675,-2.6172 -5.324,-4.7109 -8.687,-6.6875 -1.543,-0.9141 -4.055,-2.1641 -4.121,-3.5547 -0.043,-1.582 2.492,-3.2773 3.554,-3.6914 3.012,-1.1445 5.586,-0.5 7.832,0.6992 2.09,1.125 4.512,3.7813 6.258,6.2735 0.864,1.2226 1.559,2.5625 2.129,4.1172 0.543,1.5468 1.324,2.9648 1.856,4.4101 1.968,5.4766 2.636,10.7774 4.531,15.7772 0.766,2.008 1.851,5.055 2.851,7.235 1.012,2.234 2.637,5.171 4.407,5.894 3.629,1.473 7.582,-0.273 9.117,-2.316 1.285,-1.758 2.398,-5.09 2.957,-7.676 0.461,-2.074 0.836,-3.703 1.141,-3.559 0.644,0.297 2.722,6.367 3.41,7.727 1.265,2.367 3.168,5.754 5.429,6.781 2.481,1.121 5.391,0.695 7.235,-0.43 2.742,-1.707 3.98,-7.433 4.539,-12.539 0.433,-3.8668 0.433,-7.7575 0.726,-11.6325 0.387,-5.457 0.098,-11.0547 2.09,-15.875 1.531,-3.6914 4.461,-5.5507 6.887,-5.0781 2.172,0.4336 1.766,6.3906 1.84,7.9453 0.207,4.6641 0.109,23.0433 0.109,30.4103 0,3.156 0.02,16.301 0.02,16.301 0,0 -3.157,-0.289 -4.09,-0.352 -8.961,-0.668 -34.746,-1.894 -44.262,-2.492 -1.902,-0.133 -4.793,-0.383 -6.148,0.144 -1.321,0.532 -2.231,2.731 -2.121,4.692 0.097,1.402 1.41,3.699 2.441,4.113 1.363,0.527 6.406,0.738 8.418,0.738 2.691,0 36.305,1.938 37.957,2.047 1.555,0.098 5.781,0.321 7.719,0.524 0.125,4.16 -0.559,14.402 2.886,15.742 2.368,0.922 5.825,0.082 6.465,-2.086 0.809,-2.691 0.668,-12.844 0.668,-12.844 0,0 3.696,0.18 5.45,0.371 2.316,0.243 21.531,2.332 22.75,2.391 2.878,0.129 4.261,-0.469 5.109,-2.961 0.281,-0.777 0.891,-3.238 0.125,-4.406 -1.379,-2.086 -6.981,-2.094 -10.352,-2.539 -3.804,-0.485 -14.078,-1.621 -16.433,-1.809 -1.84,-0.141 -6.594,-0.769 -6.594,-0.769 0,0 -0.066,-1.5 0,-3.497 0.211,-6.382 -0.113,-13.57 -0.113,-19.753 0,-7.2075 -0.293,-16.059 -0.071,-22.8715 0.086,-2.125 -0.054,-4.7735 0.543,-6.7735 m 32.953,43.375 c -2.703,0.109 -5.66,-2.367 -7.023,-4.508 -0.602,-0.961 -1.035,-2.531 -0.812,-4.496 0.464,-3.844 2.414,-8.6522 7.96,-7.7225 2.551,0.4179 6.219,4.0705 6.551,5.6915 0.309,4.785 -2.008,10.851 -6.676,11.035 M 183.406,96.3867 c -0.726,-1.6094 -2.843,-8.4453 -1.703,-9.7265 1.703,-1.9414 5.93,1.3671 7.391,2.4648 2.156,1.6367 4.347,3.5039 5.683,5.8398 1.188,2.0391 2.778,5.5582 1.852,8.3792 -0.481,1.492 -2.461,2.168 -3.274,2.133 -4.609,-0.215 -8.335,-5.5942 -9.949,-9.0903 m 127.715,-5.4609 c -2.355,-0.4649 -7.949,-1.2031 -11.652,1.7578 -0.184,-1.8633 0.164,-10.1289 0.793,-12.8086 0.445,-2.082 1.797,-8.6172 4.191,-8.4297 2.535,0.207 3.836,4.1797 4.238,5.1719 2.332,5.7773 5.215,15.6914 5.215,15.6914 0,0 -1.008,-1.0156 -2.785,-1.3828 M 338.84,73.207 c -3.391,-3.9297 -4.715,-5.8242 -5.992,-8.5507 -1.688,-3.5704 -2.399,-7.0782 -1.16,-8.7969 0.89,-1.25 2.648,-1.0274 6.007,1.1679 2.481,1.5977 3.809,3.9532 4.504,5.4141 1.211,2.5625 2.004,5.5 1.84,9.6563 -0.059,1.4492 -0.562,5.3046 -0.879,5.8125 -1.375,-1.3204 -3.082,-3.2383 -4.32,-4.7032" style="fill:#ffffff;fill-opacity:1;fill-rule:evenodd;stroke:none" transform="matrix(0.13333333,0,0,-0.13333333,0,56.693333)"></path>
    <path id="path6" d="m 49.1875,94.7266 c 1.0469,-0.6524 2.3008,-1.6094 2.3945,-6.0313 0.043,-3.1953 -3.6757,-3.7031 -5.5703,-4.2109 0.7071,-5.7031 2.3946,-14.1133 3.8985,-19.5156 0.4765,-1.7579 1.0586,-3.7657 1.7031,-5.2735 0.9023,-2.1211 2.1289,-3.914 2.2148,-4.168 1.6289,-4.9765 -1.1992,-9.0429 -6.4961,-7.9062 -1.7968,0.3906 -3.7929,1.9023 -5.5351,6.9609 -0.8203,2.3828 -1.2539,4.6797 -1.8516,6.9688 -1.1406,4.4726 -1.8086,9.3398 -2.8398,14.7812 -0.3946,2.0586 -1.2774,7.1914 -1.2774,7.1914 0,0 -4.539,-0.5429 -6.1133,-0.6445 -3.121,-0.2226 -11.4726,-1.1172 -11.4726,-1.1172 0,0 -1.0586,-2.5351 -2.0352,-10.832 -0.7812,-6.7617 0.3907,-12.0508 -2.5586,-13.1641 -0.7968,-0.3125 -3.4179,-0.5508 -4.55074,-0.1523 -1.16797,0.4336 -2.8125,1.7422 -2.92578,3.414 -0.28125,4.1329 0.21093,8.3907 0.38281,12.0625 0.03515,0.8555 1.15234,7.9805 1.15234,7.9805 0,0 -5.14062,-0.5117 -6.35937,0.8633 -1.207035,1.3672 -1.851566,3.9805 -0.859379,6.0078 0.652349,1.3399 1.730469,1.6563 3.593749,2.168 1.32422,0.3711 5.33985,0.8711 5.33985,0.8711 0,0 1.90622,8.4062 2.38282,10.3785 0.9883,4.114 3.8594,17.262 4.3906,19.477 1.1133,4.434 2.1211,7.754 3.2891,12.09 1.2656,4.804 2.5078,10.586 8.2383,10.23 5.0898,-0.293 7.3164,-3.84 8.957,-7.531 3.2812,-7.344 5.5625,-21.852 6.7773,-32.473 0.293,-2.488 1.0157,-7.734 1.0157,-7.734 0,0 3.2304,0.4218 4.7148,-0.6914 M 25.5859,119.145 C 24.875,116.137 21.2813,99.5898 20.75,97.2461 c -0.3477,-1.5859 -0.918,-5.2539 -0.918,-5.2539 0,0 2.9844,0.3633 4.0547,0.5469 1.6992,0.3203 10.2227,1.4492 10.7461,1.6445 -0.6523,9.3824 -2.4648,22.7774 -4.0703,30.3594 -0.3594,1.695 -0.457,3.781 -1.6992,3.543 -1.4219,-1.492 -2.4414,-5.371 -3.2774,-8.941" style="fill:#ffffff;fill-opacity:1;fill-rule:evenodd;stroke:none" transform="matrix(0.13333333,0,0,-0.13333333,0,56.693333)"></path>
    <path id="path7" d="m 167.363,97.3711 c -0.113,1.5625 -0.039,3.1559 -0.152,4.7069 -0.32,5.297 -1.277,8.211 -3.539,11.125 -1.301,1.707 -4.992,3.559 -7.824,3.438 -0.774,-0.047 -7.508,0.109 -12.258,-7.739 -0.602,-1 -1.402,-3.058 -2.274,-2.996 -0.781,0.043 -1.593,2.215 -2.136,3.418 -0.645,1.352 -1.367,2.813 -1.992,3.551 -3.637,4.203 -10.372,3.258 -14.231,-0.277 -1.434,-1.336 -2.254,-2.344 -3.539,-4.125 -3.055,2.789 -6.871,8.121 -13.367,6.535 -4.071,-0.988 -5.66,-7.832 -6.2737,-10.66 -0.4453,-2.145 -1.2773,-4.4339 -1.8359,-6.9769 -1.3125,-6.0156 -2.2891,-12.6094 -3.8476,-18.332 -0.1524,-0.6368 -0.5196,-3.4922 -1.4493,-3.4922 -1.0625,0.039 -2.4687,5.2734 -2.6757,8.8867 -0.625,10.9297 0.9765,26.5044 -0.5977,28.7654 -0.9492,1.383 -4.3945,2.406 -7.2344,1.563 -1.1601,-0.344 -1.7969,-1.809 -2.0273,-3.274 -0.2617,-1.73 -0.4571,-8.14 -0.4571,-9.797 C 79.625,89.1758 71.3438,74.668 67.4688,72.3047 c -1.3047,1.0937 -1.711,3.8164 -1.7969,5.5859 -0.3438,7.8164 -0.1641,14.3672 -0.2774,22.3284 -0.082,5.437 0.7539,40.23 -0.4179,42.656 -1.7852,3.785 -8.7422,2.426 -9.6446,-1.004 -0.9765,-3.605 -0.082,-43.4843 -0.1797,-52.5976 -0.0859,-7.2461 0.2227,-13.289 1.418,-18.9101 1.3945,-6.5664 5.7031,-9.6641 6.543,-10.0899 6.668,-3.4648 11.8945,4.836 14.3359,8.75 0.6875,1.0899 3.2344,4.9805 3.7774,6.1172 0.1562,0.3008 0.9101,-2.3476 1.2304,-3.4961 2.3243,-8.5039 7.3125,-10.7578 10.2969,-11.1289 7.7191,-0.9453 8.4061,7.0977 9.8831,12.375 0.84,2.9727 1.312,5.1836 1.894,7.668 0.934,3.9609 1.785,8.4258 2.723,12.1797 0.359,1.4023 1.863,9.6877 3.062,9.3397 0.727,-0.23 0.977,-3.2967 1.266,-5.4139 0.852,-6.0938 1.258,-12.1719 1.004,-18.6289 -0.039,-0.875 -0.223,-4.793 -0.289,-5.9727 -0.074,-1.9648 -0.152,-4.2891 0.223,-6.2344 0.425,-2.1953 1.699,-3.9101 3.343,-4.5508 4.145,-1.664 6.742,1.3008 7.246,5.0899 0.278,2.1211 -0.109,5.7617 0,8.2773 0.043,1.1133 0.618,10.8282 1.274,14.3399 0.656,3.4101 1.39,6.8672 2.422,9.6758 0.554,1.5348 2.215,4.8438 3.539,4.6878 1.719,-0.211 2.551,-7.3128 2.734,-9.2425 0.668,-8.0274 0.766,-13.168 0.598,-21.1758 -0.047,-1.2813 -0.055,-4.9219 0,-6.0469 0.195,-4.7695 1.633,-6.8789 5.828,-6.8555 2.105,0 4.402,1.5274 4.609,3.1407 0.27,2.0898 0.239,4.8047 0.2,7.0664 -0.075,4.25 -0.172,8.3281 0.261,12.0703 0.797,6.9687 1.285,8.3711 2.512,12.2187 0.859,2.6641 3.652,9.0196 5.644,10.8126 2.344,2.141 4.79,-0.293 4.973,-2.277 0.418,-5.6332 0.492,-11.6684 1.016,-16.266 0,0 0.898,-16.711 1.242,-19.5078 0.379,-2.9922 1.133,-7.3907 4.102,-10.6993 1.015,-1.1132 4.179,-4.7656 8.363,-5.9336 3.844,-1.0898 7.953,-1.1171 9.625,-0.7265 2.222,0.5156 3.445,6.625 0.519,8.5781 -2.914,1.9375 -13.449,-2.5937 -13.882,17.207" style="fill:#ffffff;fill-opacity:1;fill-rule:evenodd;stroke:none" transform="matrix(0.13333333,0,0,-0.13333333,0,56.693333)"></path>
    <path id="path8" d="m 84.5156,136.258 c 3.5977,1.246 5.3633,-0.055 6.9375,-1.324 2.0391,-1.637 3.3633,-4.461 1.8321,-7.844 -0.6719,-1.485 -2.8164,-3.555 -4.4024,-3.84 -7.9219,-1.375 -10.8594,10.109 -4.3672,13.008" style="fill:#ffffff;fill-opacity:1;fill-rule:evenodd;stroke:none" transform="matrix(0.13333333,0,0,-0.13333333,0,56.693333)"></path>
    <path id="path9" d="m 78.4648,21.1523 c 2.2891,-2.0976 3.4766,-5.0078 3.4766,-8.7304 0,-3.74612 -1.1133,-6.69534 -3.3711,-8.87502 -2.25,-2.17969 -5.6914,-3.261724 -10.332,-3.261724 H 60.2539 V 24.3086 h 8.2774 c 4.3085,0 7.625,-1.0469 9.9335,-3.1563 m -0.6093,-8.8359 c 0,5.4961 -3.168,8.2344 -9.4492,8.2344 H 64.332 V 4.09375 h 4.5039 c 2.9024,0 5.1289,0.70313 6.6914,2.08203 1.5469,1.39453 2.3282,3.4336 2.3282,6.14062" style="fill:#ffffff;fill-opacity:1;fill-rule:nonzero;stroke:none" transform="matrix(0.13333333,0,0,-0.13333333,0,56.693333)"></path>
    <path id="path10" d="M 108.145,24.3086 V 20.4883 H 95.3164 V 14.1406 H 106.82 V 10.5391 H 95.3164 V 4.09375 H 108.551 V 0.28125 H 91.25 V 24.3086 h 16.895" style="fill:#ffffff;fill-opacity:1;fill-rule:nonzero;stroke:none" transform="matrix(0.13333333,0,0,-0.13333333,0,56.693333)"></path>
    <path id="path11" d="m 138.68,21.125 c -1.2,0 -2.157,-0.2266 -2.91,-0.6953 -0.77,-0.4883 -1.133,-1.2149 -1.133,-2.1953 0,-0.9766 0.363,-1.7188 1.133,-2.2383 0.753,-0.5078 2.351,-1.0625 4.832,-1.6406 2.453,-0.6016 4.324,-1.4571 5.55,-2.5196 1.266,-1.0898 1.907,-2.67574 1.907,-4.77731 0,-2.07812 -0.793,-3.78906 -2.395,-5.09375 -1.566,-1.312496 -3.664,-1.96093375 -6.223,-1.96093375 -3.742,0 -7.101,1.29687375 -10,3.88281375 l 2.532,3.07031 c 2.441,-2.11328 4.949,-3.17187 7.574,-3.17187 1.308,0 2.348,0.28125 3.121,0.84375 0.766,0.5664 1.141,1.30078 1.141,2.23828 0,0.91406 -0.368,1.64453 -1.075,2.16797 -0.734,0.50781 -1.961,0.97654 -3.75,1.39844 -1.754,0.4297 -3.089,0.8203 -4.007,1.1641 -0.914,0.3593 -1.719,0.8398 -2.442,1.3906 -1.422,1.0781 -2.137,2.7422 -2.137,4.9648 0,2.2032 0.813,3.9336 2.415,5.1211 1.632,1.2071 3.632,1.8125 6.003,1.8125 1.536,0 3.071,-0.25 4.575,-0.7539 1.5,-0.4961 2.832,-1.1992 3.914,-2.1289 l -2.157,-3.0664 c -0.714,0.6484 -1.675,1.1797 -2.886,1.5898 -1.211,0.4063 -2.41,0.5977 -3.582,0.5977" style="fill:#ffffff;fill-opacity:1;fill-rule:nonzero;stroke:none" transform="matrix(0.13333333,0,0,-0.13333333,0,56.693333)"></path>
    <path id="path12" d="m 174.637,24.3086 v -3.8203 h -12.836 v -6.3477 h 11.543 V 10.5391 H 161.801 V 4.09375 h 13.254 V 0.28125 H 157.762 V 24.3086 h 16.875" style="fill:#ffffff;fill-opacity:1;fill-rule:nonzero;stroke:none" transform="matrix(0.13333333,0,0,-0.13333333,0,56.693333)"></path>
    <path id="path13" d="m 201.816,11.9727 h 4.059 V 3.75391 C 203.59,1.24219 200.355,0 196.148,0 c -3.57,0 -6.543,1.16016 -8.925,3.50781 -2.399,2.33594 -3.61,5.29688 -3.61,8.87889 0,3.5664 1.239,6.5469 3.684,8.918 2.426,2.4062 5.391,3.582 8.851,3.582 3.465,0 6.336,-0.9961 8.625,-3.0156 l -2.175,-3.1094 c -0.918,0.8164 -1.883,1.375 -2.813,1.6875 -0.961,0.2969 -2.082,0.4492 -3.332,0.4492 -2.426,0 -4.473,-0.7773 -6.133,-2.3437 -1.644,-1.5781 -2.472,-3.6524 -2.472,-6.207 0,-2.54301 0.812,-4.59379 2.414,-6.12895 1.601,-1.55078 3.543,-2.32422 5.812,-2.32422 2.301,0 4.196,0.48828 5.742,1.47656 v 6.60161" style="fill:#ffffff;fill-opacity:1;fill-rule:nonzero;stroke:none" transform="matrix(0.13333333,0,0,-0.13333333,0,56.693333)"></path>
    <path id="path14" d="m 235.887,3.60547 c -2.434,-2.38281 -5.438,-3.5781262 -9.012,-3.5781262 -3.566,0 -6.574,1.1953162 -9.004,3.5781262 -2.433,2.37109 -3.633,5.3125 -3.633,8.87503 0,3.5156 1.2,6.4843 3.633,8.8515 2.43,2.3789 5.438,3.5547 9.004,3.5547 3.574,0 6.578,-1.1758 9.012,-3.5547 2.418,-2.3672 3.633,-5.3359 3.633,-8.8515 0,-3.56253 -1.215,-6.50394 -3.633,-8.87503 M 232.91,18.6445 c -1.64,1.6719 -3.637,2.5352 -6.035,2.5352 -2.379,0 -4.375,-0.8633 -6.031,-2.5352 -1.649,-1.6992 -2.469,-3.75 -2.469,-6.164 0,-2.4492 0.82,-4.47269 2.469,-6.17972 1.656,-1.71094 3.652,-2.54687 6.031,-2.54687 2.398,0 4.395,0.83593 6.035,2.54687 1.637,1.70703 2.445,3.73052 2.445,6.17972 0,2.414 -0.808,4.4648 -2.445,6.164" style="fill:#ffffff;fill-opacity:1;fill-rule:nonzero;stroke:none" transform="matrix(0.13333333,0,0,-0.13333333,0,56.693333)"></path>
    <path id="path15" d="m 260.047,0.28125 h -4.539 l -9.66,24.02735 h 4.539 l 7.39,-17.94922 7.383,17.94922 h 4.547 l -9.66,-24.02735" style="fill:#ffffff;fill-opacity:1;fill-rule:nonzero;stroke:none" transform="matrix(0.13333333,0,0,-0.13333333,0,56.693333)"></path>
    <path id="path16" d="m 278.281,24.3047 h 4.043 V 0.277344 h -4.043 V 24.3047" style="fill:#ffffff;fill-opacity:1;fill-rule:nonzero;stroke:none" transform="matrix(0.13333333,0,0,-0.13333333,0,56.693333)"></path>
    <path id="path17" d="m 297.527,5.73047 -2.422,-5.44922 h -4.335 l 10.589,24.02735 h 4.336 L 316.273,0.28125 h -4.32 l -2.406,5.44922 z m 10.371,3.76562 -4.367,9.90621 -4.359,-9.90621 z" style="fill:#ffffff;fill-opacity:1;fill-rule:nonzero;stroke:none" transform="matrix(0.13333333,0,0,-0.13333333,0,56.693333)"></path>
  </g>
</svg>