<?xml version="1.0"?>
<svg id="Layer_1" version="1.1" viewBox="0 0 280.5 280.5" xmlns:inkscape="http://www.inkscape.org/namespaces/inkscape" xmlns:sodipodi="http://sodipodi.sourceforge.net/DTD/sodipodi-0.dtd" xmlns="http://www.w3.org/2000/svg" xmlns:svg="http://www.w3.org/2000/svg">
  <namedview id="namedview17" pagecolor="#ffffff" bordercolor="#000000" borderopacity="0.25"></namedview>
  <defs id="defs1">
    
    <clipPath id="clipPath">
      <rect class="st2" x="-444" y="-686.2" width="1168.5" height="1652.5" id="rect1"></rect>
    </clipPath>
    <clipPath id="clipPath-1">
      <path class="st2" d="M184.4,19.6s-19.9.9-47,13.2c0,0-2.2.3-5-.4-2.8-.7-47-14.1-79.7,20.7,0,0-35.1,38.9,4.7,99.5,0,0,38.8,52.7,79.9,59.2,2.4.4,9.1,1.1,12.7.8,8.6-.7,26.5-5.7,50.2-32,33.6-37.3,44.4-81.8,41.2-103.3-3.2-21.8-14.3-57.7-55.8-57.7s-.8,0-1.2,0Z" id="path1"></path>
    </clipPath>
  </defs>
  <g class="st5" clip-path="url(#clipPath)" id="g15" style="fill:#ffffff;fill-opacity:1">
    <g id="g14" style="fill:#ffffff;fill-opacity:1">
      <path class="st1" d="M30.1,229.3h.3l.2,4.2h-.5c-.4-2.4-2-4.1-4.5-4.1-3.8,0-5,3.8-5,7s1.3,6.7,5.1,6.7,4.1-2.2,4.8-4.7h.4v4.7h-.3l-.5-1.1c-1.5,1.1-2.9,1.6-4.8,1.6-4.4,0-7.3-2.8-7.3-7.2s3.2-7.5,7.5-7.5,2.9.4,4.4,1.3l.3-1h0Z" id="path2" style="fill:#ffffff;fill-opacity:1"></path>
      <path class="st1" d="M44.4,237.6l-2.4-6.1-2.4,6.1h4.8ZM39.2,238.9c-.3.8-1,2.4-1,3.3s1.1.9,1.7.9v.5h-4.6v-.5c1.2-.1,1.6-.5,2.1-1.5.6-1.4,1.2-2.7,1.8-4.1l3.3-8.5h.7l4.4,10.9c.3.6.7,1.9,1.1,2.4.5.6,1.1.7,1.9.8v.5h-6.2v-.5c.6,0,1.7,0,1.7-.8s-.2-1.2-.4-1.7l-.8-2.2h-5.3l-.2.5h-.2Z" id="path3" style="fill:#ffffff;fill-opacity:1"></path>
      <path class="st1" d="M55.3,239.2h.5c.4,2.2,1.6,4,4.1,4s3.1-.9,3.1-2.7-1.7-2.7-3.3-3.4c-2-.8-4.1-1.8-4.1-4.2s1.9-3.9,4.3-3.9,2.3.4,3.2,1.1l.5-.8h.2v3.7c0,0-.4,0-.4,0-.5-1.8-1.5-3.4-3.6-3.4s-2.5.9-2.5,2.3,1.5,2.3,2.9,2.8c2.2.9,4.7,2,4.7,4.9s-2.6,4.2-5.1,4.2-2.6-.4-3.8-1.3l-.5.9h-.2v-4.2h0Z" id="path4" style="fill:#ffffff;fill-opacity:1"></path>
      <path class="st1" d="M83.7,232.6h-.6c0-2.1-.9-2.7-3-2.7s-2.1-.1-2.1.6v10.2c0,1.6.3,2.2,2.4,2.3v.5h-7v-.5c2.1,0,2.4-.7,2.4-2.3v-10.2c0-.6-.9-.6-1.8-.6-2.1,0-3.2.1-3.2,2.7h-.5v-3.4h13.2l.2,3.4Z" id="path5" style="fill:#ffffff;fill-opacity:1"></path>
      <path class="st1" d="M91.1,233.4c0-.7,0-2.3-.2-2.9-.3-.7-1.2-.7-1.9-.7v-.5h6.4v.5c-.7,0-1.6,0-1.9.7-.2.6-.2,2.2-.2,2.9v6.1c0,.7,0,2.3.2,2.9.3.7,1.2.7,1.9.7v.5h-6.4v-.5c.7,0,1.6,0,1.9-.7.2-.6.2-2.2.2-2.9v-6.1Z" id="path6" style="fill:#ffffff;fill-opacity:1"></path>
      <path class="st1" d="M103,233.4c0-.7,0-2.3-.2-2.9-.3-.7-1.2-.7-1.8-.7v-.5h6.4v.5c-.7,0-1.6,0-1.9.7-.2.6-.2,2.2-.2,2.9v6.4c0,2.8.4,3.2,3.2,3.2s2.2,0,3.1-.5c1.1-.7,1.2-1.5,1.4-2.7h.5l-.2,3.8h-12.2v-.5c.7,0,1.6,0,1.8-.7.2-.6.2-2.2.2-2.9v-6.1h-.1Z" id="path7" style="fill:#ffffff;fill-opacity:1"></path>
      <path class="st1" d="M120.6,233.4c0-.7,0-2.3-.2-2.9-.3-.7-1.2-.7-1.8-.7v-.5h6.4v.5c-.7,0-1.6,0-1.8.7-.2.6-.2,2.2-.2,2.9v6.4c0,2.8.4,3.2,3.2,3.2s2.2,0,3-.5c1.1-.7,1.2-1.5,1.4-2.7h.5l-.2,3.8h-12.2v-.5c.7,0,1.6,0,1.8-.7.2-.6.2-2.2.2-2.9v-6.1h0Z" id="path8" style="fill:#ffffff;fill-opacity:1"></path>
      <path class="st1" d="M144.3,237.6l-2.4-6.1-2.4,6.1h4.8ZM139,238.9c-.3.8-1,2.4-1,3.3s1.1.9,1.7.9v.5h-4.6v-.5c1.2-.1,1.6-.5,2.1-1.5.6-1.4,1.2-2.7,1.8-4.1l3.3-8.5h.7l4.3,10.9c.3.6.7,1.9,1.1,2.4.5.6,1.1.7,1.9.8v.5h-6.2v-.5c.6,0,1.7,0,1.7-.8s-.2-1.2-.4-1.7l-.8-2.2h-5.3l-.2.5h-.1Z" id="path9" style="fill:#ffffff;fill-opacity:1"></path>
      <path class="st1" d="M170.7,240.7c0,2,0,2.2,2.1,2.3v.5h-6.5v-.5c2.1-.2,2.2-.3,2.2-2.3v-2.7l-2-3.4c-.2-.4-1.9-3.7-2.6-4.5-.4-.4-.7-.3-1.3-.4v-.5h5.9v.5c-.5,0-1.6,0-1.6.7s.3,1,.6,1.5l2.8,5.2,1.4-2.2c.5-.8,2.1-3.5,2.1-4.3s-1-.8-1.5-.9v-.5h4.4v.5c-1.2.1-1.7.9-2.3,1.9l-3.7,6.2v2.9Z" id="path10" style="fill:#ffffff;fill-opacity:1"></path>
      <path class="st1" d="M192.1,233.4c0-.7,0-2.3-.2-2.9-.3-.7-1.2-.7-1.8-.7v-.5h6.4v.5c-.7,0-1.6,0-1.9.7-.2.6-.2,2.2-.2,2.9v6.4c0,2.8.4,3.2,3.2,3.2s2.2,0,3.1-.5c1.1-.7,1.2-1.5,1.4-2.7h.5l-.2,3.8h-12.2v-.5c.7,0,1.6,0,1.8-.7.2-.6.2-2.2.2-2.9v-6.1h-.1Z" id="path11" style="fill:#ffffff;fill-opacity:1"></path>
      <path class="st1" d="M209.7,233.5c0-.7,0-2.3-.2-2.9-.3-.7-1.2-.7-1.8-.7v-.6h10.7v3.3h-.5c-.4-2.5-1.5-2.7-3.8-2.7h-2.1v5.9c2.9.1,3.4-1.1,3.5-2.6h.5v5.6h-.5c-.3-2.3-1.4-2.4-3.5-2.4v3.5c0,.6,0,1.7.4,2.2.6.8,1.9.8,2.8.8,2.2,0,3.7-.3,4-2.9h.5l-.2,3.5h-11.7v-.5c.7,0,1.6,0,1.8-.7.2-.6.2-2.2.2-2.9v-5.9h0Z" id="path12" style="fill:#ffffff;fill-opacity:1"></path>
      <path class="st1" d="M232.4,227.1l3.4-2.7c.3-.2.6-.5.9-.5s.8.3.8.8-.8.9-1.4,1.2l-2.9,1.2h-.8ZM228.4,236.4c0,3.4,1.3,6.7,5.2,6.7s5-3.6,5-6.8-1.3-6.8-5.1-6.8-5.1,3.7-5.1,6.8M225.8,236.4c0-4.3,3.7-7.4,7.9-7.4s7.7,3,7.7,7.3-3.5,7.5-7.8,7.5-7.8-3-7.8-7.3" id="path13" style="fill:#ffffff;fill-opacity:1"></path>
      <path class="st1" d="M249.5,231.1c-.7-.9-1.2-1.3-2.3-1.3v-.5h3.7l9.1,11.1h0v-6c0-.9,0-2.4-.2-3.3-.3-1.2-.8-1.1-1.9-1.3v-.5h4.7v.5c-.8,0-1.3,0-1.6.9-.2.7-.3,2.9-.3,3.8v9.3h-.6c-.5-.6-.9-1.2-1.4-1.8l-8.4-10.2h0v7.2c0,.8,0,2.4.3,3.1.4.8,1.1.8,1.9.9v.5h-4.9v-.5c.8,0,1.6-.1,1.9-1.1.2-.8.2-2.1.2-3v-7.9h-.2Z" id="path14" style="fill:#ffffff;fill-opacity:1"></path>
      <rect class="st1" x="126.2" y="259.8" width="32.5" height=".7" id="rect14" style="fill:#ffffff;fill-opacity:1"></rect>
    </g>
  </g>
  <g class="st3" clip-path="url(#clipPath-1)" id="g17" style="fill:#000000;fill-opacity:1">
    <g id="g16" style="fill:#000000;fill-opacity:1">
      <path class="st0" d="M184.4,19.6s-19.9.9-47,13.2c0,0-2.2.3-5-.4s-47-14.1-79.7,20.7c0,0-35.1,38.9,4.7,99.5,0,0,38.8,52.7,79.9,59.2,2.4.4,9.1,1.1,12.8.8,8.6-.7,26.5-5.7,50.2-32,33.6-37.3,44.4-81.8,41.2-103.3-3.2-22-14.5-58.3-57-57.7" id="path15" style="fill:#fefefe;fill-opacity:1"></path>
      <path class="st4" d="M88,114.2c-.2,1.1-2.1,11,2,12.9,2.1,1,5.8-.4,9.4-3.6-1.1-.8-2.1-1.8-2.9-3.1-9.9-14.5,9.4-32.4,15-19.7,2.5,5.7.3,13.7-3.9,20.3,3.2-.3,6.5-1.9,8.6-3.6,2.5-2,5.5,1.7,3,3.7-4.2,3.5-10,5.5-15.1,4.5-4.8,5.2-10.9,8.3-16.1,5.8-3-1.4-4.4-4.3-5.1-7.6-10.6,14.2-25.4,4.6-22.2-7.5,2.7-10.3,15.2-12,24.9-11.2.9-4,1.4-7.4,1.5-9-4.3-.2-7.8-4.6-8.5-15.2-.3-4.9.2-9.7,1.3-14.3-15,3.1-29.2,2.2-33.9.6-3.4-1.2-1.6-6.3,1.8-5.1,3.9,1.4,18.6,2.2,33.8-1.4,2.7-7.8,4.6-11.2,9.4-18.2,1.8-2.6,5.8,0,4,2.7-3.9,5.7-5.3,7.8-7.8,14,3.1-1,6.1-2.1,9-3.5,3.2-1.6,5.6,3.3,2.4,4.9-4.3,2.1-8.8,3.7-13.4,4.9-1.4,4.9-2.1,10-1.7,15.2,1.2,20,12,7,15-2.5,0-.3,1.7-9.9,2.8-16.1.6-3.1,5.3-2.3,4.7.9-2,10.8-3,17.5-2.8,21.7.4,6.6,5,5.7,8.9,3.4-3.7-6.6-5.3-16.5-2.8-26.1,6.6-25,37.2-21.2,20.5,11.9-2.1,4.2-6.1,10.6-11,15.2,3.4,3.1,7,2.1,11.2-6.2,4.4-8.9,7.8-24.1,8.8-42.8.3-5.7,5,1.2,9.8-.6,2.2-.8,3.7.5,3.2,2.8-.7,2.9-9.2,43.9-1.6,44.5,6.7.5,7.4-37.4,7-45.1-1.6-4.4,3.8-2.7,5.7-2,3.2,1.1,9.7-3.2,8.5,2.2,0,0-6,27.1-2.3,42.8,2.2,9.3,6.1,4.5,8.3.9-4-6-3.7-16.6.8-25.7,4.1-8.3,14-14.5,24-9.6,2.9,1.4,5,3.3,6.3,5.5l.7-1.6c1.2-3,5.7-1.1,4.4,1.8,0,0-6.4,21.7-6.6,23.7-.5,6.4,8.8,22.2,26.1,12.5,2.8-1.6,5.1,2.7,2.2,4.2-20.8,11.1-32.6-5.9-33.3-14.7-4.6,8.3-12.5,9.3-18,8.3-1.2-.2-2.3-.6-3.3-1.2-.2.3-.5.7-.8,1.1-6,7.6-12.9,7.5-15.7-4.2-2.7-11.7-.7-28.8,1.5-41-1.4,0-2.7,0-3.8-.3.2,8,1,48.1-12.2,47.1-13.4-1-4.8-40.3-3.4-46.8-1.1,0-2.1-.2-3-.4-1.3,17.2-4.6,31.6-9.1,40.7-6.2,12.6-13.9,12.8-19.3,7.1-2.9,1.9-6.1,2.9-9.2,2.3-3.8-.7-6-2.8-6.9-6.3-2.1,3-4.5,5.4-7,6.8,0,.2-3.9,19.2-4,19.4M102.6,120c3.1-4,6.7-12.3,4.5-17.2-2.9-6.5-14.9,10.3-4.5,17.2M84.3,109.9c-7.6-.5-17.1.6-19,7.7-2.5,9.5,11.8,15.8,19-7.7M200,54.5c-6.8-3.3-14.3.6-17.6,7.4-6.4,12.9-2,22.6,2.5,23.4,16,2.8,24.7-26.1,15.1-30.8M115.9,85.2c6.5-6.2,13.7-18.8,14.2-27.9.6-10.7-12.2-8.9-16.1,5.9-1.8,6.6-1.7,15.6,1.9,22M105.5,56.6c-1.6.3-5.2-.2-5.2-3.8s4.4-6.3,8.1-3.9.7,6.2-.6,6.9c-1.3.7-1.4.7-2.3.9M89.2,143.6c.5-1.1.8-2.2.9-3.3.4-4.2-5.4-3.2-.9,3.3h0ZM112.2,158.5c-2.3,23.3,18.4,19.7,20.6.4.2-3.5.3-10.9-1.7-14.5v-.2c-.1,0-.4-.3-.4-.3-1.5-2.1-16.1-9.1-18.5,14.6M147.8,137.5h0c4.9-8,12.4-21.6,10.8-30.7-1.5-8.4-5.1-7.7-6.3-6.8-5.8,4.4-6.1,21.3-4.6,37.6M209.6,165.8c-.2-5.6-1.7-13.6-5.1-19.5,0,7,2.7,15.3,5.1,19.5M190.4,139.2c-.6.1-1.2.3-1.9.5-24.7,8.7-8.6,42.3.8,28.7,4.2-6.1,6-23.2,1.1-29.2h0ZM168.9,140.4c-.1-.5-.3-.9-.5-1-1.7-1.5-3.3-1.7-4.9-1.3.1,3.2,2.6,3.3,5.4,2.3M163.5,133.7c2.6-.5,5.3,0,8,2.4.6.5,1.1,1.4,1.5,2.4,1.6-.9,3-1.7,3.6-2.1,6.6-3.7,11.4-3.8,14.8-1.9,3.9-.5,7.7.5,10.5,2.2,3-6.4,11.7-16.5,37.2-21,3.6-.6,4.5,4.7.9,5.3-7.9,1.4-31.2,7.6-34,19.6,4.3,5.3,6.6,13,7.6,19.6.3,2.2,2.1,12-3.2,11.8-5.7-.2-11.9-18-10.1-29.9v-.8c-1.4-1.2-3.1-2-5-2.4,4.6,8.6,2.5,24.6-2.5,31.7-7.3,10.6-17.5,3.8-21-6.7-2,8.5-5.3,16.1-9.7,17.9-4.1,1.7-8.6-1-12-5.9-2.1,4-5.3,8.1-9.3,5.5-2.7-1.7-4.6-7.2-5.9-13.7-5,11.2-16.4,14.4-22.9,8.1-2.2,2.2-4.9,2.6-7.4,1.5-4.7,10.1-22,9.4-26.9-3.1-1.1-2.8,3.2-4.5,4.3-1.7,3.9,10,20,7.9,19.2-1.5-.7-8.2-6.9-14-11.9-19.7-3.8,4.8-8.6,8.6-13.3,12.4-2.4,1.9-5.3-1.7-2.9-3.6,3.6-2.9,9.4-7.5,13.2-12.4-1.4-1.9-2.6-3.9-3.3-6-4.4-13.7,18.8-11.2,9,5.5,5.8,7.1,13,13.9,13.7,23.3v2c1,.6,2.3.9,3.5-.8-1.7-3.4-2.5-8.1-1.9-14.2,2.5-24.6,17.8-23,24.4-19,.1-2.8,4.5-2.9,4.6,0,.6,13.4,3.7,50.7,11.6,30.6-.8-2.9-2.2-9.1-3.6-19.5-.5.6-1,1.3-1.4,1.8-1.9,2.3-5.5-.3-3.7-2.6,0,0,1.8-2.2,4.3-5.8-1.8-15-3.8-39.8,5.7-47,6.7-5.1,12.3,1.7,13.7,9.4,1.9,10.8-6.7,27.1-14.6,38.7,1.4,11.9,2.5,18.9,4.7,26.3,6.4,11.9,10,7.2,13.2-3.4,2.4-8.1,3.2-17.2,3-22.9-.6.2-1.2.3-1.7.3-11.6,0-11.4-10.6-4.2-11.4M174.2,141.7c.1,1.3.2,2.6.3,4,1.7-2.6,3.8-5.1,6.4-7.4-2.3,1.2-4.5,2.4-6.7,3.4" id="path16" style="fill:#000000;fill-opacity:1"></path>
    </g>
  </g>
</svg>